<svg height="908pt" preserveAspectRatio="xMidYMid meet" viewBox="0 0 908 908" width="908pt" xmlns="http://www.w3.org/2000/svg"><g transform="matrix(.1 0 0 -.1 0 908)"><path d="m1266 9069c-374-43-706-223-932-503-124-153-219-340-264-516-52-202-50-61-50-3468 0-2144 3-3204 10-3270 37-339 177-631 412-858 98-95 166-147 265-203l72-41h3755 3756l57 31c92 49 181 117 277 209 214 206 343 450 403 763 17 87 18 269 18 3352 0 3422 2 3294-41 3470-23 92-82 241-132 330-199 357-533 599-949 687l-108 23-3240 1c-1782 1-3271-2-3309-7zm1482-2691c-11-36-22-106-25-163l-6-100-49-30c-72-44-181-153-237-239-52-81-102-204-122-304-16-83-7-269 18-345l18-58-48-52c-71-76-131-179-169-287-31-90-32-102-32-235 1-122 4-151 27-228 15-48 42-117 60-153l33-66-41-83c-98-194-109-410-34-606 31-80 93-184 137-232 24-26 26-33 27-140 2-131 21-218 70-324 79-171 207-304 369-383 96-47 213-80 284-80 24 0 35-10 66-55 42-61 150-166 217-212 383-263 897-174 1177 202 24 33 47 58 51 55 3-2 24-29 47-60 56-75 147-159 231-214 293-189 667-178 958 29 69 49 168 150 210 213 23 35 33 42 61 42 72 0 182 31 283 81 90 44 115 63 195 142 50 51 106 118 125 150 80 135 131 339 118 465-6 54-5 56 37 104 57 65 120 185 148 283 17 62 22 106 23 195 0 140-20 225-79 344l-42 84 33 66c18 36 45 105 60 153 23 77 26 106 27 228 0 133-1 145-32 234-38 110-84 189-162 280l-56 66 19 55c12 36 21 97 24 175 6 128-7 206-57 337-48 129-193 303-308 373l-49 30-6 105c-3 58-12 125-21 149s-16 45-16 46c0 2 25 5 55 7l56 3 18-60c11-33 22-90 26-125 7-65 8-65 62-105 217-157 363-451 363-728 0-75-11-174-25-216-3-11 13-40 47-82 60-74 138-233 164-334 14-51 19-107 19-210 0-158-15-239-68-371l-33-82 24-48c92-179 107-447 38-652-30-89-75-175-125-241-41-54-41-55-41-142 0-166-72-374-181-521-138-185-359-323-572-356-44-7-62-15-74-33-9-13-53-61-97-105-132-132-274-213-456-262-132-35-333-36-464-4-163 41-323 130-447 249l-65 63-55-56c-113-115-292-215-455-256-132-32-332-31-465 5-214 56-413 188-547 361-17 23-35 31-89 41-282 54-519 236-648 498-59 119-95 262-95 374v85l-54 81c-71 108-90 148-123 254-24 80-27 103-27 248 0 154 1 163 32 255 18 52 41 110 51 129 18 34 18 35-6 90-14 30-36 98-51 151-23 84-26 113-26 245 0 134 3 159 27 238 41 132 108 258 180 334 29 31 29 31 16 85-21 79-17 305 5 393 54 208 184 408 338 520 55 40 55 41 62 102 4 35 15 91 26 125l19 63 47-3c25-3 51 1 57 7s12 11 13 11-7-28-18-62zm2465-218h522l-61-34c-94-50-160-102-175-138-39-94 28-203 124-203 33 0 58 10 117 48 134 86 267 108 392 66 297-100 442-444 303-719-44-88-29-156 48-208 217-150 278-420 150-664-41-79-133-171-214-214-30-16-64-45-77-64-48-71-10-172 76-201 46-15 85-6 165 42 38 22 70 39 71 37 20-26 40-110 44-189 4-80 1-109-17-167-23-77-88-182-133-215-16-12-39-37-50-55-18-30-19-41-12-120 16-166-5-271-74-378-105-160-266-252-421-241-111 8-148-13-202-114-66-124-200-234-340-280-96-31-254-34-339-5-175 59-292 165-386 351-54 107-98 140-189 140s-135-33-189-140c-95-187-209-291-386-351-85-29-243-26-339 5-140 46-282 165-345 289-46 91-86 112-196 105-127-8-243 42-351 152-66 67-103 129-131 219-19 62-20 84-14 204 7 150 0 173-62 219-45 33-110 138-133 215-31 102-19 285 23 340 12 15 19 13 81-24 111-67 186-59 237 24 45 75 14 151-85 205-75 42-181 151-217 223-103 208-66 448 92 592 32 29 74 67 93 83 46 40 57 92 32 155-55 141-64 177-65 245-1 226 147 433 358 504 115 39 258 20 367-50 65-42 135-49 183-19 44 27 75 97 66 145-9 51-35 79-127 135l-81 50h521 521l4-178c2-151 6-182 21-205 43-66 135-87 198-44 61 41 69 70 70 272 0 99 3 174 6 168 4-10 119-13 526-13z"/><path d="m4851 4622c-62-33-86-107-58-175 31-73 202-187 357-239 89-30 104-32 240-32 125-1 155 2 220 22 159 50 315 156 345 235 31 81-16 167-100 183-49 9-76 0-130-45-201-166-478-163-685 9-25 20-55 42-67 49-32 16-84 14-122-7z"/><path d="m4044 4589c-123-102-247-144-399-136-112 6-184 32-271 98-83 62-96 69-136 69-95 0-164-108-123-194 37-78 220-194 365-233 48-13 102-18 205-17 130 0 147 2 235 32 108 36 206 90 284 157 64 54 80 89 73 152-4 38-12 54-41 80-31 29-43 33-90 33-48 0-59-4-102-41z"/></g></svg>