<svg height="908pt" viewBox="0 0 908 908" width="908pt" xmlns="http://www.w3.org/2000/svg"><path d="M126.6 1.1C89.2 5.4 56 23.4 33.4 51.4 21 66.7 11.5 85.4 7 103c-5.2 20.2-5 6.1-5 346.8 0 214.4.3 320.4 1 327 3.7 33.9 17.7 63.1 41.2 85.8 9.8 9.5 16.6 14.7 26.5 20.3l7.2 4.1H829l5.7-3.1c9.2-4.9 18.1-11.7 27.7-20.9 21.4-20.6 34.3-45 40.3-76.3 1.7-8.7 1.8-26.9 1.8-335.2 0-342.2.2-329.4-4.1-347-2.3-9.2-8.2-24.1-13.2-33-19.9-35.7-53.3-59.9-94.9-68.7L781.5.5l-324-.1c-178.2-.1-327.1.2-330.9.7zm148.2 269.1c-1.1 3.6-2.2 10.6-2.5 16.3l-.6 10-4.9 3c-7.2 4.4-18.1 15.3-23.7 23.9-5.2 8.1-10.2 20.4-12.2 30.4-1.6 8.3-.7 26.9 1.8 34.5l1.8 5.8-4.8 5.2c-7.1 7.6-13.1 17.9-16.9 28.7-3.1 9-3.2 10.2-3.2 23.5.1 12.2.4 15.1 2.7 22.8 1.5 4.8 4.2 11.7 6 15.3l3.3 6.6-4.1 8.3c-9.8 19.4-10.9 41-3.4 60.6 3.1 8 9.3 18.4 13.7 23.2 2.4 2.6 2.6 3.3 2.7 14 .2 13.1 2.1 21.8 7 32.4 7.9 17.1 20.7 30.4 36.9 38.3 9.6 4.7 21.3 8 28.4 8 2.4 0 3.5 1 6.6 5.5 4.2 6.1 15 16.6 21.7 21.2 38.3 26.3 89.7 17.4 117.7-20.2 2.4-3.3 4.7-5.8 5.1-5.5.3.2 2.4 2.9 4.7 6 5.6 7.5 14.7 15.9 23.1 21.4 29.3 18.9 66.7 17.8 95.8-2.9 6.9-4.9 16.8-15 21-21.3 2.3-3.5 3.3-4.2 6.1-4.2 7.2 0 18.2-3.1 28.3-8.1 9-4.4 11.5-6.3 19.5-14.2 5-5.1 10.6-11.8 12.5-15 8-13.5 13.1-33.9 11.8-46.5-.6-5.4-.5-5.6 3.7-10.4 5.7-6.5 12-18.5 14.8-28.3 1.7-6.2 2.2-10.6 2.3-19.5 0-14-2-22.5-7.9-34.4l-4.2-8.4 3.3-6.6c1.8-3.6 4.5-10.5 6-15.3 2.3-7.7 2.6-10.6 2.7-22.8 0-13.3-.1-14.5-3.2-23.4-3.8-11-8.4-18.9-16.2-28l-5.6-6.6 1.9-5.5c1.2-3.6 2.1-9.7 2.4-17.5.6-12.8-.7-20.6-5.7-33.7-4.8-12.9-19.3-30.3-30.8-37.3l-4.9-3-.6-10.5c-.3-5.8-1.2-12.5-2.1-14.9s-1.6-4.5-1.6-4.6c0-.2 2.5-.5 5.5-.7l5.6-.3 1.8 6c1.1 3.3 2.2 9 2.6 12.5.7 6.5.8 6.5 6.2 10.5 21.7 15.7 36.3 45.1 36.3 72.8 0 7.5-1.1 17.4-2.5 21.6-.3 1.1 1.3 4 4.7 8.2 6 7.4 13.8 23.3 16.4 33.4 1.4 5.1 1.9 10.7 1.9 21 0 15.8-1.5 23.9-6.8 37.1l-3.3 8.2 2.4 4.8c9.2 17.9 10.7 44.7 3.8 65.2-3 8.9-7.5 17.5-12.5 24.1-4.1 5.4-4.1 5.5-4.1 14.2 0 16.6-7.2 37.4-18.1 52.1-13.8 18.5-35.9 32.3-57.2 35.6-4.4.7-6.2 1.5-7.4 3.3-.9 1.3-5.3 6.1-9.7 10.5-13.2 13.2-27.4 21.3-45.6 26.2-13.2 3.5-33.3 3.6-46.4.4-16.3-4.1-32.3-13-44.7-24.9l-6.5-6.3-5.5 5.6c-11.3 11.5-29.2 21.5-45.5 25.6-13.2 3.2-33.2 3.1-46.5-.5-21.4-5.6-41.3-18.8-54.7-36.1-1.7-2.3-3.5-3.1-8.9-4.1-28.2-5.4-51.9-23.6-64.8-49.8-5.9-11.9-9.5-26.2-9.5-37.4v-8.5l-5.4-8.1c-7.1-10.8-9-14.8-12.3-25.4-2.4-8-2.7-10.3-2.7-24.8 0-15.4.1-16.3 3.2-25.5 1.8-5.2 4.1-11 5.1-12.9 1.8-3.4 1.8-3.5-.6-9-1.4-3-3.6-9.8-5.1-15.1-2.3-8.4-2.6-11.3-2.6-24.5 0-13.4.3-15.9 2.7-23.8 4.1-13.2 10.8-25.8 18-33.4 2.9-3.1 2.9-3.1 1.6-8.5-2.1-7.9-1.7-30.5.5-39.3 5.4-20.8 18.4-40.8 33.8-52 5.5-4 5.5-4.1 6.2-10.2.4-3.5 1.5-9.1 2.6-12.5l1.9-6.3 4.7.3c2.5.3 5.1-.1 5.7-.7s1.2-1.1 1.3-1.1-.7 2.8-1.8 6.2zM521.3 292h52.2l-6.1 3.4c-9.4 5-16 10.2-17.5 13.8-3.9 9.4 2.8 20.3 12.4 20.3 3.3 0 5.8-1 11.7-4.8 13.4-8.6 26.7-10.8 39.2-6.6 29.7 10 44.2 44.4 30.3 71.9-4.4 8.8-2.9 15.6 4.8 20.8 21.7 15 27.8 42 15 66.4-4.1 7.9-13.3 17.1-21.4 21.4-3 1.6-6.4 4.5-7.7 6.4-4.8 7.1-1 17.2 7.6 20.1 4.6 1.5 8.5.6 16.5-4.2 3.8-2.2 7-3.9 7.1-3.7 2 2.6 4 11 4.4 18.9.4 8 .1 10.9-1.7 16.7-2.3 7.7-8.8 18.2-13.3 21.5-1.6 1.2-3.9 3.7-5 5.5-1.8 3-1.9 4.1-1.2 12 1.6 16.6-.5 27.1-7.4 37.8-10.5 16-26.6 25.2-42.1 24.1-11.1-.8-14.8 1.3-20.2 11.4-6.6 12.4-20 23.4-34 28-9.6 3.1-25.4 3.4-33.9.5-17.5-5.9-29.2-16.5-38.6-35.1-5.4-10.7-9.8-14-18.9-14s-13.5 3.3-18.9 14c-9.5 18.7-20.9 29.1-38.6 35.1-8.5 2.9-24.3 2.6-33.9-.5-14-4.6-28.2-16.5-34.5-28.9-4.6-9.1-8.6-11.2-19.6-10.5-12.7.8-24.3-4.2-35.1-15.2-6.6-6.7-10.3-12.9-13.1-21.9-1.9-6.2-2-8.4-1.4-20.4.7-15 0-17.3-6.2-21.9-4.5-3.3-11-13.8-13.3-21.5-3.1-10.2-1.9-28.5 2.3-34 1.2-1.5 1.9-1.3 8.1 2.4 11.1 6.7 18.6 5.9 23.7-2.4 4.5-7.5 1.4-15.1-8.5-20.5-7.5-4.2-18.1-15.1-21.7-22.3-10.3-20.8-6.6-44.8 9.2-59.2 3.2-2.9 7.4-6.7 9.3-8.3 4.6-4 5.7-9.2 3.2-15.5-5.5-14.1-6.4-17.7-6.5-24.5-.1-22.6 14.7-43.3 35.8-50.4 11.5-3.9 25.8-2 36.7 5 6.5 4.2 13.5 4.9 18.3 1.9 4.4-2.7 7.5-9.7 6.6-14.5-.9-5.1-3.5-7.9-12.7-13.5l-8.1-5h104.2l.4 17.8c.2 15.1.6 18.2 2.1 20.5 4.3 6.6 13.5 8.7 19.8 4.4 6.1-4.1 6.9-7 7-27.2 0-9.9.3-17.4.6-16.8.4 1 11.9 1.3 52.6 1.3z"/><path d="M485.1 445.8c-6.2 3.3-8.6 10.7-5.8 17.5 3.1 7.3 20.2 18.7 35.7 23.9 8.9 3 10.4 3.2 24 3.2 12.5.1 15.5-.2 22-2.2 15.9-5 31.5-15.6 34.5-23.5 3.1-8.1-1.6-16.7-10-18.3-4.9-.9-7.6 0-13 4.5-20.1 16.6-47.8 16.3-68.5-.9-2.5-2-5.5-4.2-6.7-4.9-3.2-1.6-8.4-1.4-12.2.7zm-80.7 3.3c-12.3 10.2-24.7 14.4-39.9 13.6-11.2-.6-18.4-3.2-27.1-9.8-8.3-6.2-9.6-6.9-13.6-6.9-9.5 0-16.4 10.8-12.3 19.4 3.7 7.8 22 19.4 36.5 23.3 4.8 1.3 10.2 1.8 20.5 1.7 13 0 14.7-.2 23.5-3.2 10.8-3.6 20.6-9 28.4-15.7 6.4-5.4 8-8.9 7.3-15.2-.4-3.8-1.2-5.4-4.1-8-3.1-2.9-4.3-3.3-9-3.3-4.8 0-5.9.4-10.2 4.1z"/></svg>