<svg xmlns="http://www.w3.org/2000/svg" xmlns:xlink="http://www.w3.org/1999/xlink" fill-rule="evenodd" stroke-miterlimit="10" clip-rule="evenodd" viewBox="0 0 1920 1080"><radialGradient id="c" cx="0" cy="0" r="1" gradientTransform="matrix(712.041 0 0 711.503 960 1079)" gradientUnits="userSpaceOnUse"><stop offset="0" stop-color="#3b14a6"/><stop offset="1" stop-color="#0e0622"/></radialGradient><linearGradient id="a"><stop offset="0" stop-color="#f942f4"/><stop offset="1" stop-color="#0274fe"/></linearGradient><linearGradient xlink:href="#a" id="d" x1="0" x2="1" y1="0" y2="0" gradientTransform="rotate(-120 526 131) scale(227.726)" gradientUnits="userSpaceOnUse"/><linearGradient xlink:href="#a" id="e" x1="0" x2="1" y1="0" y2="0" gradientTransform="rotate(-120 542 54) scale(157.94)" gradientUnits="userSpaceOnUse"/><linearGradient xlink:href="#a" id="f" x1="0" x2="1" y1="0" y2="0" gradientTransform="rotate(-120 611 28) scale(192.6306)" gradientUnits="userSpaceOnUse"/><linearGradient xlink:href="#a" id="g" x1="0" x2="1" y1="0" y2="0" gradientTransform="rotate(-120 682 -37) scale(188.1792)" gradientUnits="userSpaceOnUse"/><linearGradient xlink:href="#a" id="h" x1="0" x2="1" y1="0" y2="0" gradientTransform="rotate(-120 740 -123) scale(213.738)" gradientUnits="userSpaceOnUse"/><linearGradient xlink:href="#a" id="i" x1="0" x2="1" y1="0" y2="0" gradientTransform="rotate(-120 852 -135) scale(188.1792)" gradientUnits="userSpaceOnUse"/><clipPath id="b"><path d="M0 0h1920v1079H0z" clip-rule="nonzero"/></clipPath><path fill="none" d="M0 0h1920v1080H0z"/><g clip-path="url(#b)"><path fill="url(#c)" d="M0 0h1920v1079H0z"/><path fill-rule="nonzero" d="M0 139v13h423l-4-13zm0-27v14h413l-9-14H0zm0-26v13h391-1l5-13zm0-27v13h397a92 92 0 0 0 1-13H0zm0-26v13h396l-3-13zM0 6v13h388l-8-13H0zm0 159v14h425a97 97 0 0 0 0-14H0zm0 27v13h420l3-13zm0 27v13h408a106 106 0 0 0-1-1l7-12zm0 26v13h421l-5-13zm0 27v13h425l-1-13H0zm0 26v14h421c2-5 3-9 3-14zm0 27v13h409l7-13zm0 27v13h398l-2-11v-1l2-1zm0 26v13h395l2-13H0zm0 27v13h384l7-13zm0 26v14h362l13-14zm0 27v13h106a117 117 0 0 0 4-8l5 8h184l2-3h1c14 0 28-4 41-10zm125 26 14 14h136l14-14zM0 484v14h82l13-14zm159 27a103 103 0 0 0 95 0zM0 511v10a107 107 0 0 0 62-10z"/><g fill="none" stroke-width="3" opacity=".4"><path stroke="url(#d)" d="m563 488 2 6a99 99 0 0 1 6-12l54-99 3-3 5-1h16v162h-19V422a121 121 0 0 1 0-10l-55 101c-2 3-5 5-8 5h-3c-4 0-6-2-8-5l-57-102a106 106 0 0 1 1 11v119h-19V379h16l5 1 3 3 55 99 3 6z"/><path stroke="url(#e)" d="m718 574-2 4-5 1h-15l21-45-47-107h17l4 1 3 3 30 72a53 53 0 0 1 3 10 393 393 0 0 1 4-10l29-72 2-3 4-1h16z"/><path stroke="url(#f)" d="M834 479h52l-20-54a245 245 0 0 1-6-19l-3 11-3 9zm105 62h-23a10 10 0 0 1-10-7l-13-33h-67l-12 33a11 11 0 0 1-10 7h-24l64-163h31z"/><path stroke="url(#g)" d="M1070 460c0-9-2-17-4-25a44 44 0 0 0-26-29c-7-2-14-4-22-4h-32v115h32c8 0 15-1 22-4l16-11c4-5 8-11 10-18 2-8 4-16 4-24zm31 0c0 11-2 22-6 32a76 76 0 0 1-43 43c-10 4-22 6-34 6h-62V378h62c12 0 24 2 34 6a76 76 0 0 1 43 43c4 10 6 21 6 33z"/><path stroke="url(#h)" d="M1262 541h-31v-71h-76v71h-31V378h31v70h76v-70h31z"/><path stroke="url(#i)" d="M1408 460c0-9-1-17-4-25a44 44 0 0 0-26-29c-6-2-13-4-21-4h-32v115h32c8 0 15-1 21-4s12-7 16-11c5-5 8-11 10-18 3-8 4-16 4-24zm31 0c0 11-2 22-6 32a76 76 0 0 1-43 43c-10 4-21 6-33 6h-63V378h63c12 0 23 2 33 6a76 76 0 0 1 43 43c4 10 6 21 6 33z"/></g><path fill="#fff" fill-rule="nonzero" d="m644 547 2 5a78 78 0 0 1 4-9l44-79c0-2 1-3 2-3h17v128h-16v-94a97 97 0 0 1 1-9l-44 81c-2 2-4 4-7 4h-2c-3 0-5-2-6-4l-45-81a83 83 0 0 1 0 9v94h-15V461h16l3 3 44 79 2 4m124 69-2 3-4 1h-12l17-36-38-86h14l3 1 2 3 24 57a42 42 0 0 1 3 8 305 305 0 0 1 3-8l23-57 2-3 3-1h12zm92-76h41l-16-43a194 194 0 0 1-5-15 308 308 0 0 1-5 15zm83 49h-18a8 8 0 0 1-8-5l-10-27h-54l-9 27a8 8 0 0 1-8 5h-19l51-129h25zm104-65c0-7-1-13-3-19-2-5-4-10-8-14-3-4-8-7-13-9s-10-3-17-3h-25v91h25c7 0 12-1 17-3s10-5 13-9c4-4 6-9 8-15 2-5 3-12 3-19m25 0c0 10-2 19-5 26a60 60 0 0 1-34 34c-8 4-17 5-27 5h-49V460h49a61 61 0 0 1 61 39c3 7 5 16 5 25m128 65h-24v-56h-61v56h-24V460h24v55h61v-55h24zm116-65-2-19c-2-5-5-10-9-14-3-4-7-7-12-9-6-2-11-3-18-3h-25v91h25c7 0 12-1 18-3 5-2 9-5 12-9 4-4 7-9 9-15l2-19m25 0c0 10-2 19-5 26a60 60 0 0 1-34 34c-8 4-17 5-27 5h-49V460h49a61 61 0 0 1 61 39c3 7 5 16 5 25"/></g></svg>