<svg clip-rule="evenodd" fill-rule="evenodd" stroke-linejoin="round" stroke-miterlimit="2" viewBox="0 0 1792 1609" xmlns="http://www.w3.org/2000/svg" xmlns:xlink="http://www.w3.org/1999/xlink"><linearGradient id="a"><stop offset="0" stop-color="#f76ff7"/><stop offset=".81" stop-color="#9534fb"/><stop offset="1" stop-color="#4102fe"/></linearGradient><linearGradient id="b" gradientTransform="matrix(0 -953.764 953.764 0 895.828 1033.7)" gradientUnits="userSpaceOnUse" x1="0" x2="1" xlink:href="#a" y1="0" y2="0"/><linearGradient id="c" gradientTransform="matrix(0 -1109.3 1109.3 0 895.833 1111.47)" gradientUnits="userSpaceOnUse" x1="0" x2="1" xlink:href="#a" y1="0" y2="0"/><g fill-rule="nonzero"><g fill="#fff"><path d="m277.649 1232.37c2.962 3.246 4.446 7.554 4.446 12.917v268.116c0 5.084-1.413 9.175-4.234 12.284-2.829 3.104-6.779 4.658-11.862 4.658-5.084 0-8.896-1.554-11.434-4.658-2.541-3.109-3.812-7.2-3.812-12.284v-216.441l-91.917 176.2c-3.958 8.195-9.741 12.287-17.366 12.287-7.342 0-13.13-4.092-17.367-12.287l-92.338-174.08v214.321c0 5.084-1.341 9.175-4.025 12.284-2.683 3.104-6.562 4.658-11.641 4.658-5.084 0-9.042-1.554-11.863-4.658-2.829-3.109-4.237-7.2-4.237-12.284v-268.116c0-5.363 1.55-9.671 4.658-12.917 3.108-3.242 7.342-4.875 12.708-4.875 7.059 0 12.709 4.096 16.946 12.283l107.584 206.275 106.316-206.275c2.259-4.516 4.721-7.691 7.413-9.529 2.679-1.833 5.854-2.754 9.529-2.754 5.358 0 9.529 1.633 12.496 4.875"/><path d="m514.628 1318.14c4.237 0 8.05 1.416 11.437 4.237 3.388 2.821 5.084 6.35 5.084 10.588 0 2.537-.571 4.8-1.696 6.775l-119.021 256.679c-1.421 3.104-3.462 5.508-6.142 7.204-2.687 1.692-5.441 2.542-8.262 2.542-4.233 0-7.979-1.346-11.221-4.025-3.25-2.688-4.871-6.142-4.871-10.379 0-2.263.563-4.521 1.692-6.775l29.65-63.963-83.867-181.283c-1.129-1.975-1.696-4.092-1.696-6.354 0-4.234 1.909-7.9 5.721-11.009 3.813-3.108 7.975-4.666 12.496-4.666 2.817 0 5.571.854 8.258 2.545 2.68 1.692 4.725 4.096 6.142 7.196l70.738 158.838 70.733-157.988c3.104-6.779 8.046-10.162 14.825-10.162"/><path d="m638.729 1415.99h111.821l-55.909-125.8zm203.733 90.642c0 6.496-2.608 12.004-7.833 16.521-5.229 4.52-11.225 6.779-18.004 6.779-4.521 0-8.75-1.209-12.705-3.609-3.958-2.391-7.062-6.137-9.32-11.22l-25.409-56.759h-149.1l-25.412 56.759c-2.263 5.083-5.367 8.829-9.321 11.22-3.958 2.4-8.333 3.609-13.129 3.609-6.5 0-12.425-2.259-17.788-6.779-5.371-4.517-8.05-10.025-8.05-16.521 0-3.667.846-7.342 2.542-11.017l116.904-251.171c2.542-5.646 6.421-9.954 11.65-12.916 5.221-2.967 10.8-4.45 16.729-4.45s11.504 1.483 16.734 4.45c5.22 2.962 9.104 7.27 11.645 12.916l117.33 251.171c1.691 3.675 2.537 7.35 2.537 11.017"/><path d="m1093.21 1378.71c0-69.742-34.308-104.617-102.929-104.617h-52.096v209.663h52.096c68.621 0 102.929-35.009 102.929-105.046m-202.679 142.746c-4.659-4.517-6.988-10.875-6.988-19.063v-246.941c0-8.188 2.329-14.538 6.988-19.059 4.662-4.512 11.083-6.779 19.271-6.779h83.866c48.85 0 86.763 13.067 113.729 39.179 26.963 26.125 40.45 62.767 40.45 109.917 0 47.442-13.487 84.221-40.45 110.337-26.966 26.125-64.879 39.184-113.729 39.184h-83.866c-8.188 0-14.609-2.259-19.271-6.775"/><path d="m1455.78 1234.91c4.796 4.942 7.204 11.508 7.204 19.7v248.625c0 8.196-2.479 14.825-7.416 19.913-4.942 5.079-11.367 7.62-19.271 7.62-8.196 0-14.684-2.541-19.488-7.62-4.804-5.088-7.196-11.717-7.196-19.913v-104.617h-152.908v104.617c0 8.196-2.475 14.825-7.412 19.913-4.942 5.079-11.509 7.62-19.696 7.62-7.913 0-14.338-2.541-19.271-7.62-4.946-5.088-7.413-11.717-7.413-19.913v-248.625c0-8.192 2.396-14.758 7.2-19.7 4.796-4.942 11.288-7.412 19.484-7.412 8.187 0 14.754 2.47 19.696 7.412 4.937 4.942 7.412 11.508 7.412 19.7v99.958h152.908v-99.958c0-8.192 2.392-14.758 7.196-19.7s11.292-7.412 19.488-7.412c8.187 0 14.679 2.47 19.483 7.412"/><path d="m1737.03 1378.71c0-69.742-34.308-104.617-102.929-104.617h-52.096v209.663h52.096c68.621 0 102.929-35.009 102.929-105.046m-202.679 142.746c-4.659-4.517-6.988-10.875-6.988-19.063v-246.941c0-8.188 2.329-14.538 6.988-19.059 4.662-4.512 11.083-6.779 19.271-6.779h83.866c48.85 0 86.763 13.067 113.729 39.179 26.963 26.125 40.45 62.767 40.45 109.917 0 47.442-13.487 84.221-40.45 110.337-26.966 26.125-64.879 39.184-113.729 39.184h-83.866c-8.188 0-14.609-2.259-19.271-6.775"/></g><path d="m922.438 182.275v123.862c0 14.692-11.913 26.605-26.609 26.605-14.7 0-26.608-11.913-26.608-26.605v-123.862c0-54.508-44.942-102.338-96.196-102.338-26.954 0-53.562 14.117-72.721 38.213 23.229 5.421 44.371 17.171 61.571 34.342 5.013 5.012 7.796 11.683 7.796 18.808 0 7.104-2.767 13.775-7.779 18.808-10.379 10.375-27.263 10.375-37.642.021-14.325-14.304-33.337-22.183-53.558-22.183-20.492 0-39.688 8.062-54.075 22.696-12.729 12.954-20.225 29.675-21.471 47.625 4.75-.492 9.496-.734 14.142-.734 30.416 0 59.058 10.042 82.97 27.05 9.871 7.021 13.705 19.875 9.413 31.2-6.213 16.388-26.233 22.442-40.496 12.263-15.204-10.854-33.137-17.304-51.887-17.304-51.246 0-96.192 47.833-96.192 102.337 0 16.108 4.337 31.908 12.871 46.992 7.021 12.404 3.096 28.104-8.925 35.716-28.096 17.83-44.884 48.117-44.884 81.03 0 40.904 25.309 78.041 59.596 94.033 9.375 4.375 15.396 13.746 15.396 24.1 0 19.25-19.937 32.346-37.417 24.279-9.375-4.325-18.391-9.671-26.866-15.967-7.021 13.509-10.709 28.409-10.709 43.434 0 28.179 12.775 54.991 35.063 73.558 7.821 6.504 11.237 16.842 8.858 26.75-7.875 32.85 1.129 66.642 24.729 92.713 20.709 22.879 49.263 34.958 74.584 31.479 1.491-.184 2.966-.392 4.458-.55 11.4-1.292 22.308 4.829 27.138 15.225 19.137 41.2 60.562 67.829 105.57 67.829 46.255 0 89.609-30.929 107.842-76.938 5.875-14.816 19.771-24.395 35.429-24.395 15.659 0 29.55 9.579 35.429 24.395 18.234 46.009 61.584 76.938 107.842 76.938 44.9 0 86.246-26.488 105.425-67.525 4.888-10.458 15.796-16.842 27.279-15.554 1.496.183 2.967.391 4.467.575 21.75 2.987 45.617-5.221 65.429-22.513 23.438-20.446 36.858-49.304 36.858-79.187 0-6.838-.937-13.979-2.983-22.475-2.35-9.821 1.125-20.342 8.879-26.809 22.271-18.541 35.042-45.358 35.042-73.516 0-15.025-3.683-29.925-10.704-43.434-8.479 6.296-17.496 11.642-26.863 15.967-17.487 8.067-37.429-5.029-37.429-24.279 0-10.35 6.025-19.725 15.404-24.1 34.284-15.992 59.592-53.129 59.592-94.033 0-32.955-16.825-63.288-45.008-81.113-12.055-7.612-15.884-23.15-8.838-35.55 8.575-15.104 12.908-30.946 12.908-47.075 0-54.504-44.941-102.337-96.195-102.337-21.084 0-41.105 8.1-57.367 21.429-13.492 11.062-33.838 5.696-40.021-10.621l-.879-2.321c-3.863-10.192-.892-21.8 7.567-28.662 25.375-20.605 56.979-33.034 90.7-33.034 4.65 0 9.4.242 14.145.734-1.433-20.613-11.091-39.563-27.445-53.109-11.667-9.662-26.113-15.579-41.196-16.908-22.763-2.004-44.521 5.958-60.463 21.879-5.404 5.404-12.879 8.229-20.508 7.713-7.633-.467-14.692-4.255-19.421-10.334-8.208-10.637-6.837-26.054 3.192-35.896 17.004-16.683 37.846-28.125 60.683-33.462-19.137-24.075-45.767-38.213-72.717-38.213-51.254 0-96.195 47.83-96.195 102.338zm137.887 451.167c-41.204-.859-79.762-17.213-108.579-46.025-10.379-10.38-10.379-27.263 0-37.621 5.033-5.038 11.704-7.8 18.808-7.8 7.125 0 13.792 2.762 18.829 7.8 18.38 18.383 44.33 29.371 71.225 30.15 26.767.754 51.967-8.642 69.155-25.813 10.362-10.375 27.245-10.375 37.62 0 10.38 10.379 10.38 27.246 0 37.617-26.975 27-63.67 41.733-103.641 41.733-1.15 0-2.279 0-3.417-.041zm-329.275-53.496c26.892-.779 52.842-11.767 71.246-30.15 10.354-10.375 27.242-10.375 37.617-.021 10.375 10.396 10.375 27.262 0 37.642-28.817 28.812-67.38 45.166-108.575 46.025-1.15.041-2.296.041-3.421.041-39.975 0-76.65-14.733-103.646-41.733-5.013-5.008-7.796-11.704-7.796-18.804 0-7.104 2.783-13.796 7.796-18.813 2.521-2.516 5.446-4.458 8.642-5.787 3.166-1.309 6.604-2.009 10.166-2.009 7.121 0 13.796 2.763 18.829 7.796 16.517 16.517 40.434 25.859 66.071 25.859 1.021 0 2.046-.017 3.071-.046z" fill="url(#b)"/><path d="m895.833 55.796c-32.596-34.029-76.662-53.634-122.8-53.634-32.529 0-64.746 10.246-93.183 29.663-24.963 17.017-45.404 40.004-59.65 66.908-61.008 21.2-102.025 78.121-103.008 142.263-22.684 14.921-41.884 35.017-56.055 58.804-16.9 28.363-25.829 60.608-25.829 93.279 0 15.225 2.071 30.292 6.159 45.025-30.105 31.988-47.075 74.413-47.075 118.713 0 29.52 7.637 60.516 21.245 87.212-13.937 25.433-21.245 53.704-21.245 82.663 0 41.175 14.591 80.471 41.337 111.846-3.287 45.95 12.15 92.387 43.246 129.05 29.921 35.254 71.237 57.129 114.996 61.291 36.216 51.259 95.821 82.588 158.591 82.588 32.555 0 64.963-8.792 93.684-25.45 18.496-10.696 35.254-24.538 49.562-40.8 14.313 16.262 31.071 30.083 49.546 40.771 28.742 16.666 61.171 25.479 93.75 25.479 62.771 0 122.371-31.329 158.596-82.563 40.537-3.808 78.492-22.537 108.079-53.654 32.6-34.292 50.554-78.942 50.554-125.762 0-3.617-.116-7.259-.396-10.95 26.746-31.405 41.338-70.671 41.338-111.846 0-28.959-7.313-57.229-21.246-82.663 13.604-26.696 21.246-57.716 21.246-87.212 0-44.279-16.992-86.7-47.075-118.713 4.067-14.733 6.133-29.8 6.133-45.025 0-32.696-8.933-64.962-25.829-93.354-14.171-23.783-33.375-43.854-56.029-58.729-.958-64.142-41.971-121.038-102.983-142.263-14.221-26.883-34.667-49.845-59.625-66.883-28.463-19.417-60.709-29.687-93.234-29.687-46.158 0-90.204 19.604-122.8 53.633zm122.8-29.071c56.221 0 110.313 37 135.509 92.363 60.52 16.15 100.72 73.458 95.295 135.558 50.105 26.85 82.338 80.758 82.338 138.433 0 17.721-3.275 35.184-9.7 51.963 32.233 28.333 50.637 68.791 50.637 111.775 0 29.941-9.333 62.383-25.12 87.662 16.437 24.6 25.12 52.925 25.12 82.217 0 38.762-15.029 75.396-42.37 103.479.966 6.708 1.433 13.038 1.433 19.321 0 83.75-67.521 154.604-147.792 155.55-30.758 50.596-85.958 81.871-144.883 81.871-57.7 0-111.713-31.479-143.271-82.859-31.662 51.442-85.612 82.859-143.271 82.859-58.925 0-114.1-31.275-144.883-81.871-41.571-.492-81.563-19.871-109.971-53.354-29.346-34.596-42.512-78.704-36.392-121.517-27.341-28.083-42.366-64.717-42.366-103.479 0-29.292 8.679-57.617 25.116-82.217-15.783-25.279-25.116-57.721-25.116-87.662 0-42.984 18.4-83.467 50.633-111.775-6.425-16.779-9.7-34.242-9.7-51.963 0-57.616 32.192-111.483 82.342-138.433-5.384-62.163 34.791-119.408 95.308-135.558 25.258-55.426 79.317-92.363 135.496-92.363 48.429 0 94.642 25.908 122.804 68.233 28.183-42.346 74.396-68.233 122.804-68.233z" fill="url(#c)"/></g></svg>