<svg xmlns="http://www.w3.org/2000/svg" fill-rule="evenodd" stroke-miterlimit="10" clip-rule="evenodd" viewBox="0 0 8005 4505"><radialGradient id="b" cx="0" cy="0" r="1" gradientTransform="matrix(2966.84 0 0 2964.6 4000.89 4500.98)" gradientUnits="userSpaceOnUse"><stop offset="0" stop-color="#3b14a6"/><stop offset="1" stop-color="#0e0622"/></radialGradient><clipPath id="a"><path d="M.891 3.771h8000v4497.2H.891z" clip-rule="nonzero"/></clipPath><clipPath id="c"><path d="M9146.89 3994.72c0-83.946-26.441-165.663-75.225-234.567a.174.174 0 0 1 0-.237c50.125-75.342 75.225-169.284 75.225-250.709 0-122.783-54.52-236.85-148.054-314.237-.058-.058-.116-.117-.058-.233 20.65-49.43 31.117-100.905 31.117-153.488 0-162.912-95.05-314.65-236.317-385.546-.121-.054-.121-.116-.121-.233 21.35-177.763-94.525-340.792-266.208-382.383-.059 0-.117-.059-.117-.117-67.271-155.421-216.9-261.238-374.662-261.238-146.763 0-278.438 85.521-350.796 210.409-.059.116-.292.116-.35 0-72.359-124.888-204.034-210.409-350.792-210.409-157.767 0-307.396 105.817-374.662 261.238 0 .058-.063.117-.121.117-172.738 41.883-287.504 205.666-266.209 382.383 0 .117 0 .179-.12.233-141.263 70.896-236.317 222.634-236.317 385.546 0 52.583 10.467 104.058 31.117 153.488.058.116 0 .175-.055.233-93.537 77.387-148.054 191.454-148.054 314.237 0 81.834 25.329 175.659 75.225 250.709a.18.18 0 0 1 0 .237c-48.787 68.904-75.225 150.621-75.225 234.567 0 108.858 44.104 212.567 122.2 289.55 0 .054.054.112.054.175-40.129 242.696 153.434 488.254 404.2 488.254 1.817 0 3.567-.054 5.325-.117 83.18 143.492 237.55 234.1 404.146 234.1 173.554 0 328.625-104.125 409.288-254.104a.182.182 0 0 1 .35 0c80.662 149.979 235.737 254.104 409.291 254.104 166.596 0 320.963-90.608 404.146-234.1 1.75.063 3.504.117 5.321.117 221.929 0 409.463-195.546 409.463-427.012 0-19.713-1.75-39.955-5.263-61.242 0-.063.058-.121.058-.175 78.092-76.983 122.2-180.692 122.2-289.55z" clip-rule="nonzero"/></clipPath><clipPath id="d"><path d="M3475.16 4931.43c0-83.937-26.437-165.658-75.221-234.567-.062-.054-.062-.175 0-.233 50.125-75.342 75.221-169.283 75.221-250.708 0-122.784-54.516-236.846-148.05-314.238-.058-.058-.116-.116-.058-.233 20.646-49.429 31.121-100.904 31.121-153.492 0-162.912-95.054-314.646-236.321-385.541-.117-.059-.117-.117-.117-.234 21.35-177.766-94.529-340.791-266.212-382.383a.125.125 0 0 1-.117-.117c-67.271-155.421-216.9-261.241-374.662-261.241-146.767 0-278.438 85.52-350.796 210.408-.059.117-.292.117-.35 0-72.359-124.888-204.034-210.408-350.796-210.408-157.763 0-307.392 105.82-374.663 261.241 0 .059-.058.117-.112.117-172.742 41.879-287.504 205.671-266.217 382.383 0 .117 0 .175-.112.234-141.267 70.895-236.321 222.629-236.321 385.541 0 52.588 10.467 104.063 31.121 153.492.054.117 0 .175-.063.233-93.533 77.392-148.05 191.454-148.05 314.238 0 81.833 25.329 175.658 75.225 250.708.059.058.059.179 0 .233-48.787 68.909-75.225 150.63-75.225 234.567 0 108.858 44.104 212.571 122.196 289.55 0 .058.058.121.058.175-40.125 242.696 153.434 488.258 404.2 488.258 1.817 0 3.571-.058 5.325-.112 83.18 143.483 237.55 234.096 404.142 234.096 173.558 0 328.625-104.121 409.292-254.104a.182.182 0 0 1 .35 0c80.666 149.983 235.737 254.104 409.291 254.104 166.596 0 320.963-90.613 404.142-234.096 1.754.054 3.513.112 5.325.112 221.929 0 409.467-195.55 409.467-427.012 0-19.713-1.759-39.95-5.267-61.246 0-.054.058-.117.058-.175 78.092-76.979 122.196-180.692 122.196-289.55z" clip-rule="nonzero"/></clipPath><clipPath id="e"><path d="M7188.39 307.404c0-83.937-26.437-165.654-75.22-234.562a.168.168 0 0 1 0-.234c50.129-75.341 75.22-169.287 75.22-250.712 0-122.784-54.512-236.846-148.05-314.238-.058-.058-.116-.112-.058-.233 20.65-49.429 31.117-100.9 31.117-153.488 0-162.912-95.05-314.645-236.317-385.545-.117-.055-.117-.113-.117-.23 21.35-177.766-94.529-340.791-266.208-382.387-.062 0-.121-.058-.121-.113-67.266-155.425-216.9-261.241-374.662-261.241-146.763 0-278.438 85.521-350.792 210.408-.062.117-.292.117-.354 0-72.358-124.887-204.029-210.408-350.792-210.408-157.762 0-307.391 105.816-374.662 261.241 0 .055-.063.113-.117.113-172.737 41.883-287.504 205.671-266.212 382.387 0 .117 0 .175-.117.23-141.267 70.9-236.321 222.633-236.321 385.545 0 52.588 10.471 104.059 31.121 153.488.054.121 0 .175-.058.233-93.538 77.392-148.055 191.454-148.055 314.238 0 81.837 25.33 175.658 75.225 250.712a.177.177 0 0 1 0 .234c-48.783 68.908-75.225 150.625-75.225 234.562 0 108.858 44.105 212.571 122.2 289.554 0 .054.059.117.059.175-40.129 242.696 153.429 488.259 404.2 488.259 1.812 0 3.566-.059 5.321-.117 83.183 143.487 237.55 234.1 404.141 234.1 173.559 0 328.629-104.125 409.292-254.108a.185.185 0 0 1 .354 0c80.663 149.983 235.733 254.108 409.288 254.108 166.595 0 320.966-90.613 404.145-234.1 1.75.058 3.505.117 5.321.117 221.934 0 409.463-195.55 409.463-427.017 0-19.713-1.754-39.95-5.259-61.242 0-.058.055-.121.055-.175 78.095-76.983 122.195-180.696 122.195-289.554z" clip-rule="nonzero"/></clipPath><path fill="none" d="M.891 3.767h8000v4500H.891z"/><g clip-path="url(#a)"><path fill="url(#b)" d="M.891 3.771h8000v4497.2H.891z"/><path fill-rule="nonzero" d="M.891 582.325v55.379h1761.81a394.497 394.497 0 0 0-16.2-55.379H.891zm0-110.763v55.38h1719.86a396.04 396.04 0 0 0-37.688-55.38H.893zm0-110.77v55.383h1627.44l-1.004-.829c-.054-.059-.113-.113-.054-.229 7.458-17.85 13.55-35.975 18.27-54.325H.893zm0-110.759v55.379h1654.62a381.545 381.545 0 0 0 2.075-39.829c0-5.196-.096-10.379-.296-15.55H.89zm0-110.762v55.383h1650.53a421.856 421.856 0 0 0-13.612-55.383H.899zm0-110.767v55.383h1614.9a432.775 432.775 0 0 0-31.845-55.383H.886zm0 664.579v55.379h1769.76c.608-9.12.912-18.133.912-26.995 0-9.517-.337-18.984-1-28.384H.893zm0 110.767v55.383h1748.22a472.593 472.593 0 0 0 14.283-55.383H.894zm0 110.762v55.384h1700.22a428.226 428.226 0 0 0-2.837-4.059c-.059-.058-.059-.17 0-.233 10.816-16.25 20.433-33.392 28.854-51.092H.888zm0 110.758v55.383h1753.74a396.687 396.687 0 0 0-21.479-55.383H.892zm0 110.77v55.384h1770.66a390.201 390.201 0 0 0-4.379-55.384H.892zm0 110.76v55.379h1755.52a391.598 391.598 0 0 0 11.621-55.379H.892zm0 110.77v55.375h1704.13a398.14 398.14 0 0 0 30.908-55.375H.889zm0 110.75v55.383h1656.46c-.584-15.237-2.213-30.858-4.892-47.108 0-.063.063-.117.063-.175a409.103 409.103 0 0 0 7.987-8.1H.889zm0 110.77v55.383h1644.96a417.418 417.418 0 0 0 9.533-55.383H.894zm0 110.76v55.379h1600.81a426.67 426.67 0 0 0 26.604-55.379H.895zm0 110.76v55.388h1509.7c19.354-16.725 37.241-35.288 53.375-55.388H.886zm0 110.77v55.379h439.655a486.687 486.687 0 0 0 20.179-34.112.179.179 0 0 1 .341 0 486.64 486.64 0 0 0 20.175 34.112h763.417a449.413 449.413 0 0 0 8.846-14.616c1.708.054 3.421.112 5.187.112 60.146 0 117.684-14.737 169.434-40.875H.895zm522.117 110.77a481.23 481.23 0 0 0 56.988 55.375h566.491a459.452 459.452 0 0 0 57.079-55.375zm-522.117 0v55.375h340.9a481.23 481.23 0 0 0 56.988-55.375zM664.566 2133c59.538 30.221 125.867 47.292 195.225 47.292 70.759 0 139.255-16.779 200.725-47.292zM.891 2133v43.1a447.371 447.371 0 0 0 61.105 4.192c69.358 0 135.687-17.071 195.225-47.292z"/><g opacity=".02"><path fill-rule="nonzero" d="M6481.84 3366.38a405.039 405.039 0 0 0-16.629 56.854h2672.59a405.042 405.042 0 0 0-16.63-56.854h-2639.33zm65.12-113.7a406.723 406.723 0 0 0-38.683 56.846h2586.45a407.155 407.155 0 0 0-38.683-56.846h-2509.09zm38.51-113.7c4.841 18.838 11.095 37.438 18.75 55.759.058.116 0 .179-.055.233-.345.283-.691.571-1.033.854h2396.74l-1.03-.854c-.066-.054-.12-.117-.066-.233 7.654-18.321 13.912-36.921 18.754-55.759zm-12.07-113.7a415.871 415.871 0 0 0-.304 15.967c0 13.708.712 27.342 2.129 40.883h2452.54a391.544 391.544 0 0 0 2.13-40.883c0-5.338-.1-10.654-.305-15.967zm20.01-113.69a433.047 433.047 0 0 0-13.971 56.846h2444.12a432.254 432.254 0 0 0-13.971-56.846h-2416.18zm55.29-113.7a443.458 443.458 0 0 0-32.692 56.845h2370.99a444.025 444.025 0 0 0-32.688-56.845zm112.54-113.69c-24.129 16.579-46.466 35.683-66.679 56.846h2213.88c-20.212-21.163-42.546-40.267-66.679-56.846h-2080.52zm48.4-113.7a348.513 348.513 0 0 0-2.358 56.846h1988.43a349.273 349.273 0 0 0-2.358-56.846h-1983.71zm34.56-113.7a349.14 349.14 0 0 0-22.609 56.846h1959.83a348.685 348.685 0 0 0-22.616-56.846h-1914.6zm90.96-113.7a351.962 351.962 0 0 0-55.162 56.846h1842.98a352.131 352.131 0 0 0-55.184-56.846h-1732.63zm162.43-113.7a450.92 450.92 0 0 0-21.716 43.571c0 .058-.063.117-.121.117a354.914 354.914 0 0 0-42.488 13.158h1536.47a353.617 353.617 0 0 0-42.483-13.158c-.055 0-.113-.059-.113-.117a450.01 450.01 0 0 0-21.717-43.571h-1407.83zm790.49-113.69a435.559 435.559 0 0 0-52.975 56.846h632.083c-16.271-20.625-34.212-39.658-53.496-56.846zm-698.771 0a447.032 447.032 0 0 0-53.492 56.846h632.08a435.08 435.08 0 0 0-52.975-56.846zm779.381-56.85h364.305c-55.717-30.216-117.475-47.125-180.521-47.125-65.592 0-128.167 17.084-183.784 47.125zm-698.687 0h364.304c-55.612-30.041-118.187-47.125-183.775-47.125-63.054 0-124.812 16.909-180.529 47.125zM6457.14 3480.08a415.092 415.092 0 0 0-1.025 29.137c0 9.109.313 18.355.938 27.713h2688.9c.625-9.363.941-18.617.941-27.713 0-9.77-.345-19.487-1.029-29.137h-2688.72zm7.36 113.7a483.99 483.99 0 0 0 14.671 56.846h2644.67a484.832 484.832 0 0 0 14.663-56.846h-2674zm37.23 113.69c8.65 18.183 18.521 35.779 29.604 52.45.059.058.059.175 0 .237a356.855 356.855 0 0 0-2.908 4.163h2546.15a413.184 413.184 0 0 0-2.909-4.163c-.062-.062-.062-.179 0-.237 11.1-16.684 20.971-34.284 29.617-52.45h-2599.55zm-6.2 113.7a407.704 407.704 0 0 0-22.046 56.85h2656.03a407.226 407.226 0 0 0-22.05-56.85h-2611.93zm-34.91 113.7a400.042 400.042 0 0 0-4.496 56.85h2690.75a400.042 400.042 0 0 0-4.496-56.85h-2681.76zm-.88 113.69a401.241 401.241 0 0 0 11.925 56.85h2659.68a401.953 401.953 0 0 0 11.93-56.85h-2683.53zm32.95 113.7a408.537 408.537 0 0 0 31.729 56.85h2554.17a408.357 408.357 0 0 0 31.733-56.85h-2617.63zm77.41 113.7a420.135 420.135 0 0 0 8.204 8.317c0 .058.063.112.063.171a394.01 394.01 0 0 0-4.959 48.362h2456.24c-.596-15.641-2.267-31.683-5.017-48.362 0-.059.058-.113.058-.171a428.86 428.86 0 0 0 8.209-8.317h-2462.8zm5.04 113.69a415.98 415.98 0 0 0 9.779 56.85h2432.93a428.695 428.695 0 0 0 9.783-56.85h-2452.5zm27.93 113.7a441.368 441.368 0 0 0 27.47 56.854h2341.98a437.833 437.833 0 0 0 27.312-56.854h-2396.77z"/><g fill="#fff" clip-path="url(#c)"><path d="M6208.01 3366.38h3067.56v56.854H6208.01zm0-113.7h3067.56v56.85H6208.01zm0-113.7h3067.56v56.85H6208.01zm0-113.7h3067.56v56.854H6208.01zm0-113.69h3067.56v56.85H6208.01zm0-113.7h3067.56v56.85H6208.01zm0-113.69h3067.56v56.85H6208.01zm0-113.7h3067.56v56.85H6208.01zm0-113.7h3067.56v56.85H6208.01zm0-113.7h3067.56v56.85H6208.01zm0-113.7h3067.56v56.85H6208.01zm0-113.7h3067.56v56.85H6208.01zm0-113.69h3067.56v56.85H6208.01zm0 1478.07h3067.56v56.85H6208.01zm0 113.7h3067.56v56.85H6208.01zm0 113.69h3067.56v56.85H6208.01zm0 113.7h3067.56v56.85H6208.01zm0 113.7h3067.56v56.85H6208.01zm0 113.69h3067.56v56.85H6208.01zm0 113.7h3067.56v56.85H6208.01zm0 113.7h3067.56v56.85H6208.01zm0 113.69h3067.56v56.85H6208.01z"/></g></g><g opacity=".02"><path fill-rule="nonzero" d="M810.108 4303.09a404.776 404.776 0 0 0-16.629 56.846h2672.59a404.642 404.642 0 0 0-16.629-56.846H810.11zm65.125-113.71a406.593 406.593 0 0 0-38.687 56.854h2586.45a407.004 407.004 0 0 0-38.684-56.854H875.232zm38.513-113.69c4.841 18.838 11.095 37.442 18.75 55.763.062.117 0 .175-.055.229-.345.283-.695.575-1.037.858h2396.74l-1.034-.858c-.058-.054-.116-.112-.058-.229 7.654-18.321 13.908-36.925 18.75-55.763H913.742zm-12.063-113.7a415.873 415.873 0 0 0-.304 15.97c0 13.705.712 27.342 2.129 40.88h2452.53a391.487 391.487 0 0 0 2.13-40.88c0-5.341-.1-10.658-.305-15.97H901.683zm20.004-113.7a432.45 432.45 0 0 0-13.971 56.854h2444.12a432.304 432.304 0 0 0-13.975-56.854H921.681zm55.284-113.69a443.018 443.018 0 0 0-32.688 56.85h2370.98a443.011 443.011 0 0 0-32.687-56.85H976.966zm112.549-113.7c-24.129 16.583-46.466 35.687-66.679 56.85h2213.88c-20.212-21.163-42.55-40.267-66.683-56.85h-2080.51zm48.4-113.7a348.615 348.615 0 0 0-2.358 56.854h1988.43a349.357 349.357 0 0 0-2.358-56.854h-1983.71zm34.56-113.7a349.342 349.342 0 0 0-22.613 56.85h1959.83a348.334 348.334 0 0 0-22.621-56.85h-1914.59zm90.96-113.69a351.886 351.886 0 0 0-55.166 56.85h1842.98a352.013 352.013 0 0 0-55.188-56.85h-1732.62zm162.42-113.7a452.263 452.263 0 0 0-21.717 43.575c0 .055-.058.113-.116.113a355.235 355.235 0 0 0-42.496 13.162h1536.49a354.385 354.385 0 0 0-42.491-13.162c-.059 0-.117-.058-.117-.113a451.139 451.139 0 0 0-21.721-43.575h-1407.83zm790.5-113.7a435.686 435.686 0 0 0-52.979 56.85h632.079a447.025 447.025 0 0 0-53.496-56.85zm-698.771 0a447.096 447.096 0 0 0-53.496 56.85h632.08a435.693 435.693 0 0 0-52.98-56.85zm779.381-56.84h364.305c-55.713-30.217-117.475-47.125-180.525-47.125-65.588 0-128.167 17.083-183.78 47.125zm-698.687 0h364.304c-55.612-30.042-118.192-47.125-183.779-47.125-63.05 0-124.808 16.908-180.525 47.125zM785.416 4416.78a412.51 412.51 0 0 0-1.029 29.138c0 9.104.313 18.35.938 27.712h2688.9c.629-9.366.941-18.621.941-27.712 0-9.775-.346-19.492-1.029-29.138H785.417z"/><g fill="#fff" clip-path="url(#d)"><path d="M536.291 4303.09h3067.56v56.85H536.291zm0-113.7h3067.56v56.85H536.291zm0-113.7h3067.56v56.85H536.291zm0-113.69h3067.56v56.85H536.291zm0-113.71h3067.56v56.854H536.291zm0-113.69h3067.56v56.85H536.291zm0-113.7h3067.56v56.85H536.291zm0-113.7h3067.56v56.854H536.291zm0-113.7h3067.56v56.85H536.291zm0-113.69h3067.56v56.85H536.291zm0-113.7h3067.56v56.85H536.291zm0-113.7h3067.56v56.85H536.291zm0-113.69h3067.56v56.85H536.291zm0 1478.06h3067.56v56.85H536.291z"/></g></g><g opacity=".02"><path fill-rule="nonzero" d="M4543.24 20.158c8.65 18.184 18.521 35.779 29.604 52.45a.177.177 0 0 1 0 .234 470.32 470.32 0 0 0-2.908 4.162h2546.14a384.245 384.245 0 0 0-2.909-4.162.18.18 0 0 1 0-.234c11.105-16.683 20.975-34.279 29.621-52.45h-2599.55zm-6.2 113.696a407.441 407.441 0 0 0-22.045 56.846h2656.02a407.466 407.466 0 0 0-22.05-56.846h-2611.93zm-34.92 113.696a400.091 400.091 0 0 0-4.496 56.846h2690.75a400.091 400.091 0 0 0-4.496-56.846h-2681.76zm-.88 113.7a402.447 402.447 0 0 0 11.925 56.846h2659.68a401.326 401.326 0 0 0 11.925-56.846zm32.95 113.696a408.636 408.636 0 0 0 31.73 56.846h2554.17a408.251 408.251 0 0 0 31.734-56.846h-2617.63zm77.42 113.696a417.38 417.38 0 0 0 8.204 8.316c0 .054.055.117.055.175a394.77 394.77 0 0 0-4.955 48.354h2456.24c-.596-15.637-2.267-31.675-5.017-48.354 0-.058.059-.121.059-.175a417.167 417.167 0 0 0 8.2-8.316h-2462.78zm5.03 113.7a416.42 416.42 0 0 0 9.78 56.845h2432.93a427.81 427.81 0 0 0 9.783-56.845h-2452.49zm27.94 113.695a441.27 441.27 0 0 0 27.462 56.85h2341.99a438.217 438.217 0 0 0 27.308-56.85zm66.25 113.696c16.492 20.55 34.808 39.625 54.679 56.85h2155.01a435.406 435.406 0 0 0 54.779-56.85h-2264.47zm139.05 113.697c52.683 26.692 111.658 41.963 174.196 41.963 1.816 0 3.57-.067 5.325-.121a469.297 469.297 0 0 0 9.083 15.008h783.633a498.72 498.72 0 0 0 20.717-35.016.185.185 0 0 1 .354 0 498.673 498.673 0 0 0 20.713 35.016h783.633a455.053 455.053 0 0 0 9.083-15.008c1.754.054 3.509.121 5.325.121 61.742 0 120.813-15.134 173.929-41.963h-1985.99zm1056.88 113.7c17.954 20.575 37.529 39.604 58.509 56.85h581.483a471.523 471.523 0 0 0 58.596-56.85zm-826.104 0a471.8 471.8 0 0 0 58.596 56.85h581.487a494.272 494.272 0 0 0 58.505-56.85zm971.414 113.7c61.112 31.021 129.2 48.542 200.396 48.542 72.633 0 142.945-17.225 206.041-48.542zm-824.579 0c63.1 31.317 133.412 48.542 206.041 48.542 71.196 0 139.284-17.521 200.4-48.542z"/><g fill="#fff" clip-path="url(#e)"><path d="M4249.52 20.158h3067.56v56.85H4249.52zm0 113.696h3067.56v56.85H4249.52zm0 113.696h3067.56v56.85H4249.52zm0 113.7h3067.56v56.85H4249.52zm0 113.696h3067.56v56.85H4249.52zm0 113.696h3067.56v56.85H4249.52zm0 113.7h3067.56v56.85H4249.52zm0 113.695h3067.56v56.85H4249.52zm0 113.696h3067.56v56.85H4249.52zm0 113.697h3067.56v56.854H4249.52zm0 113.7h3067.56v56.85H4249.52zm0 113.7h3067.56v56.85H4249.52z"/></g></g><path fill="none" stroke="#fff" stroke-width="20.83" d="M2969.65 4685.26c0-79.537-25.059-156.954-71.309-222.283a.168.168 0 0 1-.004-.2c47.533-71.392 71.313-160.438 71.313-237.604 0-116.338-51.663-224.429-140.317-297.754a.181.181 0 0 1-.05-.213c19.6-46.879 29.504-95.633 29.504-145.492 0-154.358-90.062-298.154-223.971-365.345a.187.187 0 0 1-.1-.184c20.254-168.512-89.546-322.954-252.254-362.396a.193.193 0 0 1-.125-.104c-63.733-147.254-205.533-247.571-355.033-247.571-139.084 0-263.838 81.063-332.438 199.375-.066.125-.237.125-.308 0-68.604-118.312-193.358-199.375-332.438-199.375-149.512 0-291.308 100.317-355.037 247.58a.177.177 0 0 1-.117.1c-163.687 39.691-272.458 194.904-252.258 362.391a.19.19 0 0 1-.096.184c-133.908 67.183-223.975 210.987-223.975 365.345 0 49.859 9.908 98.613 29.508 145.492a.192.192 0 0 1-.05.213c-88.658 73.329-140.32 181.416-140.32 297.754 0 77.566 23.979 166.5 71.312 237.6a.175.175 0 0 1-.004.2c-46.25 65.333-71.308 142.75-71.308 222.287 0 103.163 41.816 201.438 115.783 274.421a.188.188 0 0 1 .05.158c-37.988 229.971 145.421 462.667 383.054 462.667 1.721 0 3.413-.025 5.067-.075 78.8 135.929 225.062 221.804 382.958 221.804 164.454 0 311.417-98.641 387.867-240.804.071-.125.25-.125.316 0 76.45 142.163 223.413 240.804 387.867 240.804 157.9 0 304.163-85.875 382.958-221.804 1.663.05 3.346.075 5.067.075 210.329 0 388.025-185.308 388.025-404.654 0-18.646-1.637-37.821-4.971-58.013a.194.194 0 0 1 .054-.158c73.963-72.983 115.78-171.25 115.78-274.421zM7659.24 463.851c0-79.537-25.058-156.954-71.308-222.283a.17.17 0 0 1-.005-.2c47.534-71.388 71.313-160.438 71.313-237.6 0-116.342-51.663-224.433-140.321-297.758a.18.18 0 0 1-.046-.209c19.6-46.879 29.504-95.633 29.504-145.491 0-154.359-90.062-298.159-223.97-365.35a.174.174 0 0 1-.1-.184c20.254-168.508-89.546-322.954-252.259-362.396a.19.19 0 0 1-.121-.1c-63.733-147.258-205.533-247.575-355.033-247.575-139.083 0-263.837 81.063-332.437 199.38a.178.178 0 0 1-.309 0c-68.604-118.317-193.362-199.38-332.441-199.38-149.509 0-291.309 100.317-355.034 247.58a.164.164 0 0 1-.121.1c-163.683 39.695-272.454 194.904-252.254 362.391a.182.182 0 0 1-.096.184c-133.908 67.187-223.975 210.991-223.975 365.35 0 49.858 9.905 98.612 29.505 145.491a.175.175 0 0 1-.05.209c-88.655 73.329-140.317 181.416-140.317 297.758 0 77.567 23.979 166.5 71.312 237.596a.175.175 0 0 1-.004.2c-46.254 65.333-71.308 142.75-71.308 222.287 0 103.163 41.812 201.442 115.779 274.425a.17.17 0 0 1 .054.154c-37.987 229.971 145.421 462.667 383.054 462.667 1.721 0 3.409-.025 5.067-.075 78.8 135.929 225.058 221.804 382.958 221.804 164.455 0 311.417-98.646 387.867-240.804a.18.18 0 0 1 .317 0c76.45 142.158 223.412 240.804 387.866 240.804 157.896 0 304.163-85.875 382.959-221.804 1.658.05 3.346.075 5.066.075 210.33 0 388.025-185.308 388.025-404.654 0-18.642-1.637-37.821-4.97-58.008a.165.165 0 0 1 .054-.159c73.962-72.987 115.779-171.254 115.779-274.425zm887.41 3669.909c0-79.537-25.058-156.954-71.308-222.283a.174.174 0 0 1 0-.2c47.529-71.392 71.308-160.438 71.308-237.604 0-116.342-51.658-224.43-140.316-297.759a.182.182 0 0 1-.05-.208c19.6-46.879 29.504-95.633 29.504-145.492 0-154.358-90.063-298.154-223.971-365.346a.192.192 0 0 1-.1-.183c20.258-168.512-89.542-322.954-252.254-362.4a.179.179 0 0 1-.121-.1c-63.738-147.254-205.533-247.571-355.033-247.571-139.088 0-263.842 81.063-332.438 199.375-.071.125-.242.125-.308 0-68.604-118.312-193.363-199.375-332.442-199.375-149.508 0-291.308 100.317-355.033 247.579a.192.192 0 0 1-.121.1c-163.688 39.692-272.458 194.905-252.258 362.392.012.071-.03.146-.096.183-133.904 67.184-223.971 210.988-223.971 365.346 0 49.859 9.904 98.613 29.504 145.492a.172.172 0 0 1-.05.208c-88.654 73.334-140.321 181.417-140.321 297.759 0 77.566 23.979 166.5 71.317 237.6a.186.186 0 0 1-.004.2c-46.254 65.333-71.313 142.75-71.313 222.287 0 103.163 41.817 201.438 115.784 274.421a.18.18 0 0 1 .05.158c-37.984 229.971 145.42 462.667 383.058 462.667 1.717 0 3.408-.025 5.062-.075 78.8 135.929 225.063 221.8 382.963 221.8 164.45 0 311.412-98.642 387.867-240.8a.174.174 0 0 1 .312 0c76.45 142.158 223.417 240.8 387.871 240.8 157.896 0 304.158-85.871 382.954-221.8 1.663.05 3.346.075 5.071.075 210.329 0 388.021-185.308 388.021-404.654 0-18.646-1.638-37.825-4.967-58.013a.176.176 0 0 1 .05-.158c73.967-72.983 115.779-171.254 115.779-274.421zM2181.93 1121.03c0-79.537-25.058-156.954-71.308-222.283a.168.168 0 0 1-.004-.2c47.529-71.388 71.312-160.438 71.312-237.6 0-116.342-51.662-224.434-140.317-297.759a.182.182 0 0 1-.054-.208c19.6-46.879 29.509-95.633 29.509-145.492 0-154.358-90.063-298.158-223.975-365.35a.18.18 0 0 1-.096-.183c20.254-168.508-89.546-322.954-252.254-362.396a.186.186 0 0 1-.125-.1c-63.734-147.258-205.534-247.575-355.034-247.575-139.083 0-263.841 81.067-332.437 199.379a.177.177 0 0 1-.309 0C838.234-677.049 713.48-758.116 574.401-758.116c-149.513 0-291.313 100.317-355.038 247.579a.159.159 0 0 1-.12.1C55.559-470.741-53.212-315.532-33.012-148.045a.181.181 0 0 1-.095.183C-167.016-80.674-257.082 63.13-257.082 217.488c0 49.859 9.908 98.613 29.504 145.492a.175.175 0 0 1-.05.208c-88.654 73.334-140.317 181.417-140.317 297.759 0 77.566 23.979 166.5 71.313 237.596a.176.176 0 0 1-.005.2c-46.254 65.333-71.308 142.75-71.308 222.287 0 103.167 41.813 201.442 115.779 274.425a.17.17 0 0 1 .054.154c-37.987 229.971 145.421 462.667 383.055 462.667 1.72 0 3.408-.025 5.066-.075 78.796 135.929 225.059 221.804 382.959 221.804 164.454 0 311.412-98.646 387.866-240.8a.178.178 0 0 1 .317 0c76.45 142.154 223.412 240.8 387.867 240.8 157.895 0 304.162-85.875 382.958-221.804 1.662.05 3.346.075 5.067.075 210.329 0 388.025-185.304 388.025-404.654 0-18.642-1.638-37.821-4.971-58.009a.194.194 0 0 1 .05-.158c73.966-72.987 115.783-171.254 115.783-274.425z" opacity=".04"/></g></svg>