<svg viewBox="0 0 226 227" xmlns="http://www.w3.org/2000/svg" fill-rule="evenodd" clip-rule="evenodd" stroke-linejoin="round" stroke-miterlimit="2"><g fill-rule="nonzero"><path d="M34.6.03A34.6 34.6 0 0 0 0 34.63v156.55a34.6 34.6 0 0 0 34.6 34.6h156.55a34.6 34.6 0 0 0 34.6-34.6V34.63a34.6 34.6 0 0 0-34.6-34.6H34.6z" fill="url(#a)"/><path d="M116.28 64.94V80.8a3.4 3.4 0 1 1-6.81 0V64.94c0-6.98-5.76-13.11-12.32-13.11-3.45 0-6.86 1.8-9.32 4.9 2.98.69 5.69 2.2 7.89 4.4a3.38 3.38 0 0 1 0 4.81 3.41 3.41 0 0 1-4.82 0 9.64 9.64 0 0 0-6.86-2.84 9.64 9.64 0 0 0-6.92 2.9 9.62 9.62 0 0 0-2.75 6.1 18.31 18.31 0 0 1 12.44 3.37 3.41 3.41 0 1 1-3.99 5.57 11.46 11.46 0 0 0-6.64-2.21c-6.57 0-12.32 6.12-12.32 13.1 0 2.07.55 4.1 1.65 6.02.9 1.6.4 3.6-1.15 4.58a12.25 12.25 0 0 0-5.74 10.37c0 5.24 3.24 10 7.63 12.05a3.4 3.4 0 0 1-2.82 6.2 19.4 19.4 0 0 1-3.44-2.05 12.08 12.08 0 0 0 3.11 14.98c1 .83 1.44 2.16 1.14 3.43a13 13 0 0 0 3.17 11.87c2.65 2.93 6.3 4.48 9.55 4.03l.57-.07a3.4 3.4 0 0 1 3.48 1.95 14.99 14.99 0 0 0 13.52 8.69c5.92 0 11.47-3.96 13.8-9.86a4.87 4.87 0 0 1 9.08 0c2.34 5.9 7.89 9.86 13.81 9.86 5.75 0 11.05-3.4 13.5-8.65a3.45 3.45 0 0 1 3.5-2l.57.08c2.78.39 5.84-.66 8.38-2.88 3-2.62 4.72-6.31 4.72-10.14 0-.88-.12-1.8-.38-2.88-.3-1.26.14-2.6 1.14-3.43a12.07 12.07 0 0 0 3.12-14.98c-1.1.8-2.25 1.49-3.45 2.04a3.4 3.4 0 0 1-2.82-6.2 13.52 13.52 0 0 0 7.63-12.04c0-4.22-2.15-8.1-5.76-10.38a3.38 3.38 0 0 1-1.13-4.56 12.11 12.11 0 0 0 1.65-6.02c0-6.99-5.75-13.11-12.32-13.11-2.7 0-5.26 1.04-7.35 2.74a3.26 3.26 0 0 1-5.12-1.36l-.11-.3c-.5-1.3-.12-2.79.96-3.67a18.44 18.44 0 0 1 13.43-4.13 9.64 9.64 0 0 0-8.79-8.97 9.66 9.66 0 0 0-7.74 2.8 3.43 3.43 0 0 1-5.11-.34 3.48 3.48 0 0 1 .4-4.59 16.4 16.4 0 0 1 7.78-4.29c-2.46-3.08-5.87-4.89-9.32-4.89-6.56 0-12.32 6.13-12.32 13.1zm17.66 57.78a20.15 20.15 0 0 1-13.9-5.9 3.4 3.4 0 0 1 4.82-4.81 13.54 13.54 0 0 0 9.12 3.86c3.43.1 6.65-1.1 8.85-3.3a3.4 3.4 0 0 1 4.82 4.8 18.53 18.53 0 0 1-13.27 5.35h-.44zm-42.17-6.85c3.45-.1 6.77-1.51 9.13-3.86a3.41 3.41 0 0 1 4.81 4.81 20.15 20.15 0 0 1-13.9 5.9h-.44c-5.12 0-9.82-1.88-13.27-5.34a3.38 3.38 0 0 1 0-4.82 3.47 3.47 0 0 1 2.4-1c.92 0 1.77.36 2.42 1a11.93 11.93 0 0 0 8.85 3.3z" fill="url(#b)"/><path d="M112.87 48.74a21.81 21.81 0 0 0-15.72-6.87c-4.17 0-8.3 1.31-11.94 3.8a23.9 23.9 0 0 0-7.64 8.57 19.62 19.62 0 0 0-13.19 18.22A23.34 23.34 0 0 0 53.9 91.94c0 1.94.27 3.87.8 5.76a22.18 22.18 0 0 0-6.03 15.2c0 3.79.97 7.75 2.72 11.17a21.98 21.98 0 0 0 2.57 24.91 23.1 23.1 0 0 0 5.54 16.53 22.17 22.17 0 0 0 14.73 7.85 25.03 25.03 0 0 0 20.3 10.58c4.18 0 8.33-1.13 12-3.26a25.46 25.46 0 0 0 6.35-5.23 25.5 25.5 0 0 0 6.35 5.23 24 24 0 0 0 12 3.26c8.04 0 15.67-4.01 20.31-10.57a21.9 21.9 0 0 0 13.85-6.88 23.3 23.3 0 0 0 6.42-17.5 22.02 22.02 0 0 0 2.57-24.92 25.11 25.11 0 0 0 2.72-11.17 22.2 22.2 0 0 0-6.02-15.2c.52-1.89.78-3.81.78-5.77a23.38 23.38 0 0 0-10.48-19.47 19.61 19.61 0 0 0-13.2-18.22 23.87 23.87 0 0 0-7.63-8.57 21.19 21.19 0 0 0-11.94-3.8c-5.91 0-11.55 2.51-15.73 6.87zm15.73-3.73c7.2 0 14.13 4.75 17.36 11.84a16.51 16.51 0 0 1 12.2 17.36 20.24 20.24 0 0 1 10.55 17.73c0 2.26-.42 4.5-1.25 6.65a19 19 0 0 1 6.49 14.31c0 3.84-1.2 8-3.22 11.23a18.86 18.86 0 0 1-2.2 23.78c.12.86.17 1.67.17 2.48 0 10.72-8.64 19.8-18.92 19.92a21.8 21.8 0 0 1-18.56 10.48c-7.39 0-14.3-4.03-18.35-10.6-4.05 6.58-10.96 10.6-18.34 10.6-7.55 0-14.62-4-18.56-10.48a18.85 18.85 0 0 1-14.08-6.83 19.77 19.77 0 0 1-4.66-15.57 18.88 18.88 0 0 1-2.21-23.78 21.96 21.96 0 0 1-3.22-11.23 19 19 0 0 1 6.48-14.3 18.55 18.55 0 0 1-1.24-6.66c0-7.38 4.13-14.28 10.55-17.74a16.51 16.51 0 0 1 12.2-17.35C83.03 49.75 89.95 45 97.15 45c6.2 0 12.12 3.32 15.72 8.74 3.61-5.42 9.53-8.74 15.73-8.74z" fill="url(#c)"/></g><defs><linearGradient id="a" x1="0" y1="0" x2="1" y2="0" gradientUnits="userSpaceOnUse" gradientTransform="scale(126.98 225.742) rotate(-90 .94 .06)"><stop offset="0" stop-color="#7f3bf6"/><stop offset=".22" stop-color="#381170"/><stop offset="1" stop-color="#1a0038"/></linearGradient><linearGradient id="b" x1="0" y1="0" x2="1" y2="0" gradientUnits="userSpaceOnUse" gradientTransform="rotate(-90 143.43 30.55) scale(122.147)"><stop offset="0" stop-color="#f76ff7"/><stop offset=".81" stop-color="#9534fb"/><stop offset="1" stop-color="#4102fe"/></linearGradient><linearGradient id="c" x1="0" y1="0" x2="1" y2="0" gradientUnits="userSpaceOnUse" gradientTransform="rotate(-90 148.4 35.53) scale(142.067)"><stop offset="0" stop-color="#f76ff7"/><stop offset=".81" stop-color="#9534fb"/><stop offset="1" stop-color="#4102fe"/></linearGradient></defs></svg>