<svg clip-rule="evenodd" fill-rule="evenodd" stroke-linejoin="round" stroke-miterlimit="2" viewBox="0 0 430 386" xmlns="http://www.w3.org/2000/svg" xmlns:xlink="http://www.w3.org/1999/xlink"><linearGradient id="a"><stop offset="0" stop-color="#f76ff7"/><stop offset=".81" stop-color="#9534fb"/><stop offset="1" stop-color="#4102fe"/></linearGradient><linearGradient id="b" gradientTransform="matrix(0 -228.903 228.903 0 214.999 248.088)" gradientUnits="userSpaceOnUse" x1="0" x2="1" xlink:href="#a" y1="0" y2="0"/><linearGradient id="c" gradientTransform="matrix(0 -266.233 266.233 0 215 266.752)" gradientUnits="userSpaceOnUse" x1="0" x2="1" xlink:href="#a" y1="0" y2="0"/><g fill-rule="nonzero"><g fill="#fff"><path d="m66.636 295.769c.711.779 1.067 1.813 1.067 3.1v64.348c0 1.22-.339 2.202-1.016 2.948-.679.745-1.627 1.118-2.847 1.118s-2.135-.373-2.744-1.118c-.61-.746-.915-1.728-.915-2.948v-51.946l-22.06 42.288c-.95 1.967-2.338 2.949-4.168 2.949-1.762 0-3.151-.982-4.168-2.949l-22.161-41.779v51.437c0 1.22-.322 2.202-.966 2.948-.644.745-1.575 1.118-2.794 1.118-1.22 0-2.17-.373-2.847-1.118-.679-.746-1.017-1.728-1.017-2.948v-64.348c0-1.287.372-2.321 1.118-3.1.746-.778 1.762-1.17 3.05-1.17 1.694 0 3.05.983 4.067 2.948l25.82 49.506 25.516-49.506c.542-1.084 1.133-1.846 1.779-2.287.643-.44 1.405-.661 2.287-.661 1.286 0 2.287.392 2.999 1.17"/><path d="m123.511 316.355c1.017 0 1.932.34 2.745 1.017s1.22 1.524 1.22 2.541c0 .609-.137 1.152-.407 1.626l-28.565 61.603c-.341.745-.831 1.322-1.474 1.729-.645.406-1.306.61-1.983.61-1.016 0-1.915-.323-2.693-.966-.78-.645-1.169-1.474-1.169-2.491 0-.543.135-1.085.406-1.626l7.116-15.351-20.128-43.508c-.271-.474-.407-.983-.407-1.525 0-1.017.458-1.897 1.373-2.642.915-.747 1.914-1.12 2.999-1.12.676 0 1.337.204 1.982.611.643.406 1.134.983 1.474 1.726l16.977 38.121 16.976-37.916c.745-1.627 1.931-2.44 3.558-2.44"/><path d="m153.295 339.837h26.837l-13.418-30.192zm48.896 21.754c0 1.559-.626 2.881-1.88 3.965-1.255 1.085-2.694 1.627-4.321 1.627-1.085 0-2.1-.29-3.049-.866-.95-.574-1.695-1.473-2.237-2.693l-6.098-13.622h-35.784l-6.099 13.622c-.543 1.22-1.288 2.119-2.237 2.693-.95.576-2 .866-3.151.866-1.56 0-2.982-.542-4.269-1.627-1.289-1.084-1.932-2.406-1.932-3.965 0-.88.203-1.762.61-2.644l28.057-60.281c.61-1.355 1.541-2.389 2.796-3.1 1.253-.712 2.592-1.068 4.015-1.068s2.761.356 4.016 1.068c1.253.711 2.185 1.745 2.795 3.1l28.159 60.281c.406.882.609 1.764.609 2.644"/><path d="m262.371 330.891c0-16.738-8.234-25.108-24.703-25.108h-12.503v50.319h12.503c16.469 0 24.703-8.402 24.703-25.211m-48.643 34.259c-1.118-1.084-1.677-2.61-1.677-4.575v-59.266c0-1.965.559-3.489 1.677-4.574 1.119-1.083 2.66-1.627 4.625-1.627h20.128c11.724 0 20.823 3.136 27.295 9.403 6.471 6.27 9.708 15.064 9.708 26.38 0 11.386-3.237 20.213-9.708 26.481-6.472 6.27-15.571 9.404-27.295 9.404h-20.128c-1.965 0-3.506-.542-4.625-1.626"/><path d="m349.388 296.379c1.151 1.186 1.729 2.762 1.729 4.728v59.67c0 1.967-.595 3.558-1.78 4.779-1.186 1.219-2.728 1.829-4.625 1.829-1.967 0-3.524-.61-4.677-1.829-1.153-1.221-1.727-2.812-1.727-4.779v-25.108h-36.698v25.108c0 1.967-.594 3.558-1.779 4.779-1.186 1.219-2.762 1.829-4.727 1.829-1.899 0-3.441-.61-4.625-1.829-1.187-1.221-1.779-2.812-1.779-4.779v-59.67c0-1.966.575-3.542 1.728-4.728 1.151-1.186 2.709-1.779 4.676-1.779 1.965 0 3.541.593 4.727 1.779 1.185 1.186 1.779 2.762 1.779 4.728v23.99h36.698v-23.99c0-1.966.574-3.542 1.727-4.728s2.71-1.779 4.677-1.779c1.965 0 3.523.593 4.676 1.779"/><path d="m416.887 330.891c0-16.738-8.234-25.108-24.703-25.108h-12.503v50.319h12.503c16.469 0 24.703-8.402 24.703-25.211m-48.643 34.259c-1.118-1.084-1.677-2.61-1.677-4.575v-59.266c0-1.965.559-3.489 1.677-4.574 1.119-1.083 2.66-1.627 4.625-1.627h20.128c11.724 0 20.823 3.136 27.295 9.403 6.471 6.27 9.708 15.064 9.708 26.38 0 11.386-3.237 20.213-9.708 26.481-6.472 6.27-15.571 9.404-27.295 9.404h-20.128c-1.965 0-3.506-.542-4.625-1.626"/></g><path d="m221.385 43.746v29.727c0 3.526-2.859 6.385-6.386 6.385-3.528 0-6.386-2.859-6.386-6.385v-29.727c0-13.082-10.786-24.561-23.087-24.561-6.469 0-12.855 3.388-17.453 9.171 5.575 1.301 10.649 4.121 14.777 8.242 1.203 1.203 1.871 2.804 1.871 4.514 0 1.705-.664 3.306-1.867 4.514-2.491 2.49-6.543 2.49-9.034.005-3.438-3.433-8.001-5.324-12.854-5.324-4.918 0-9.525 1.935-12.978 5.447-3.055 3.109-4.854 7.122-5.153 11.43 1.14-.118 2.279-.176 3.394-.176 7.3 0 14.174 2.41 19.913 6.492 2.369 1.685 3.289 4.77 2.259 7.488-1.491 3.933-6.296 5.386-9.719 2.943-3.649-2.605-7.953-4.153-12.453-4.153-12.299 0-23.086 11.48-23.086 24.561 0 3.866 1.041 7.658 3.089 11.278 1.685 2.977.743 6.745-2.142 8.572-6.743 4.279-10.772 11.548-10.772 19.447 0 9.817 6.074 18.73 14.303 22.568 2.25 1.05 3.695 3.299 3.695 5.784 0 4.62-4.785 7.763-8.98 5.827-2.25-1.038-4.414-2.321-6.448-3.832-1.685 3.242-2.57 6.818-2.57 10.424 0 6.763 3.066 13.198 8.415 17.654 1.877 1.561 2.697 4.042 2.126 6.42-1.89 7.884.271 15.994 5.935 22.251 4.97 5.491 11.823 8.39 17.9 7.555.358-.044.712-.094 1.07-.132 2.736-.31 5.354 1.159 6.513 3.654 4.593 9.888 14.535 16.279 25.337 16.279 11.101 0 21.506-7.423 25.882-18.465 1.41-3.556 4.745-5.855 8.503-5.855s7.092 2.299 8.503 5.855c4.376 11.042 14.78 18.465 25.882 18.465 10.776 0 20.699-6.357 25.302-16.206 1.173-2.51 3.791-4.042 6.547-3.733.359.044.712.094 1.072.138 5.22.717 10.948-1.253 15.703-5.403 5.625-4.907 8.846-11.833 8.846-19.005 0-1.641-.225-3.355-.716-5.394-.564-2.357.27-4.882 2.131-6.434 5.345-4.45 8.41-10.886 8.41-17.644 0-3.606-.884-7.182-2.569-10.424-2.035 1.511-4.199 2.794-6.447 3.832-4.197 1.936-8.983-1.207-8.983-5.827 0-2.484 1.446-4.734 3.697-5.784 8.228-3.838 14.302-12.751 14.302-22.568 0-7.909-4.038-15.189-10.802-19.467-2.893-1.827-3.812-5.556-2.121-8.532 2.058-3.625 3.098-7.427 3.098-11.298 0-13.081-10.786-24.561-23.087-24.561-5.06 0-9.865 1.944-13.768 5.143-3.238 2.655-8.121 1.367-9.605-2.549l-.211-.557c-.927-2.446-.214-5.232 1.816-6.879 6.09-4.945 13.675-7.928 21.768-7.928 1.116 0 2.256.058 3.395.176-.344-4.947-2.662-9.495-6.587-12.746-2.8-2.319-6.267-3.739-9.887-4.058-5.463-.481-10.685 1.43-14.511 5.251-1.297 1.297-3.091 1.975-4.922 1.851-1.832-.112-3.526-1.021-4.661-2.48-1.97-2.553-1.641-6.253.766-8.615 4.081-4.004 9.083-6.75 14.564-8.031-4.593-5.778-10.984-9.171-17.452-9.171-12.301 0-23.087 11.479-23.087 24.561zm33.093 108.28c-9.889-.206-19.143-4.131-26.059-11.046-2.491-2.491-2.491-6.543 0-9.029 1.208-1.209 2.809-1.872 4.514-1.872 1.71 0 3.31.663 4.519 1.872 4.411 4.412 10.639 7.049 17.094 7.236 6.424.181 12.472-2.074 16.597-6.195 2.487-2.49 6.539-2.49 9.029 0 2.491 2.491 2.491 6.539 0 9.028-6.474 6.48-15.281 10.016-24.874 10.016-.276 0-.547 0-.82-.01zm-79.026-12.839c6.454-.187 12.682-2.824 17.099-7.236 2.485-2.49 6.538-2.49 9.028-.005 2.49 2.495 2.49 6.543 0 9.034-6.916 6.915-16.171 10.84-26.058 11.046-.276.01-.551.01-.821.01-9.594 0-18.396-3.536-24.875-10.016-1.203-1.202-1.871-2.809-1.871-4.513 0-1.705.668-3.311 1.871-4.515.605-.604 1.307-1.07 2.074-1.389.76-.314 1.585-.482 2.44-.482 1.709 0 3.311.663 4.519 1.871 3.964 3.964 9.704 6.206 15.857 6.206.245 0 .491-.004.737-.011z" fill="url(#b)"/><path d="m215 13.391c-7.823-8.167-18.399-12.872-29.472-12.872-7.807 0-15.539 2.459-22.364 7.119-5.991 4.084-10.897 9.601-14.316 16.058-14.642 5.088-24.486 18.749-24.722 34.143-5.444 3.581-10.052 8.404-13.453 14.113-4.056 6.807-6.199 14.546-6.199 22.387 0 3.654.497 7.27 1.478 10.806-7.225 7.677-11.298 17.859-11.298 28.491 0 7.085 1.833 14.524 5.099 20.931-3.345 6.104-5.099 12.889-5.099 19.839 0 9.882 3.502 19.313 9.921 26.843-.789 11.028 2.916 22.173 10.379 30.972 7.181 8.461 17.097 13.711 27.599 14.71 8.692 12.302 22.997 19.821 38.062 19.821 7.813 0 15.591-2.11 22.484-6.108 4.439-2.567 8.461-5.889 11.895-9.792 3.435 3.903 7.457 7.22 11.891 9.785 6.898 4 14.681 6.115 22.5 6.115 15.065 0 29.369-7.519 38.063-19.815 9.729-.914 18.838-5.409 25.939-12.877 7.824-8.23 12.133-18.946 12.133-30.183 0-.868-.028-1.742-.095-2.628 6.419-7.537 9.921-16.961 9.921-26.843 0-6.95-1.755-13.735-5.099-19.839 3.265-6.407 5.099-13.852 5.099-20.931 0-10.627-4.078-20.808-11.298-28.491.976-3.536 1.472-7.152 1.472-10.806 0-7.847-2.144-15.591-6.199-22.405-3.401-5.708-8.01-10.525-13.447-14.095-.23-15.394-10.073-29.049-24.716-34.143-3.413-6.452-8.32-11.963-14.31-16.052-6.831-4.66-14.57-7.125-22.376-7.125-11.078 0-21.649 4.705-29.472 12.872zm29.472-6.977c13.493 0 26.475 8.88 32.522 22.167 14.525 3.876 24.173 17.63 22.871 32.534 12.025 6.444 19.761 19.382 19.761 33.224 0 4.253-.786 8.444-2.328 12.471 7.736 6.8 12.153 16.51 12.153 26.826 0 7.186-2.24 14.972-6.029 21.039 3.945 5.904 6.029 12.702 6.029 19.732 0 9.303-3.607 18.095-10.169 24.835.232 1.61.344 3.129.344 4.637 0 20.1-16.205 37.105-35.47 37.332-7.382 12.143-20.63 19.649-34.772 19.649-13.848 0-26.811-7.555-34.385-19.886-7.599 12.346-20.547 19.886-34.385 19.886-14.142 0-27.384-7.506-34.772-19.649-9.977-.118-19.575-4.769-26.393-12.805-7.043-8.303-10.203-18.889-8.734-29.164-6.562-6.74-10.168-15.532-10.168-24.835 0-7.03 2.083-13.828 6.028-19.732-3.788-6.067-6.028-13.853-6.028-21.039 0-10.316 4.416-20.032 12.152-26.826-1.542-4.027-2.328-8.218-2.328-12.471 0-13.828 7.726-26.756 19.762-33.224-1.292-14.919 8.35-28.658 22.874-32.534 6.062-13.302 19.036-22.167 32.519-22.167 11.623 0 22.714 6.218 29.473 16.376 6.764-10.163 17.855-16.376 29.473-16.376z" fill="url(#c)"/></g></svg>