<svg viewBox="0 0 550 136" xmlns="http://www.w3.org/2000/svg" fill-rule="evenodd" clip-rule="evenodd" stroke-linejoin="round" stroke-miterlimit="2"><defs/><g fill-rule="nonzero"><path d="M64.26 22.42v15.07a3.24 3.24 0 11-6.47 0V22.42c0-6.64-5.47-12.46-11.71-12.46-3.28 0-6.52 1.72-8.85 4.65 2.83.66 5.4 2.1 7.5 4.18a3.22 3.22 0 010 4.58 3.25 3.25 0 01-4.59 0 9.16 9.16 0 00-6.51-2.7 9.17 9.17 0 00-9.2 8.56 17 17 0 0111.82 3.2 3.25 3.25 0 01-3.78 5.3 10.88 10.88 0 00-6.32-2.11c-6.23 0-11.7 5.82-11.7 12.45 0 1.96.52 3.89 1.56 5.72a3.25 3.25 0 01-1.08 4.35A11.64 11.64 0 009.47 68c0 4.98 3.07 9.5 7.25 11.44a3.24 3.24 0 01-2.68 5.9 18.45 18.45 0 01-3.27-1.95 11.46 11.46 0 002.96 14.24c.95.79 1.37 2.05 1.08 3.25-.96 4 .14 8.11 3 11.29 2.53 2.78 6 4.25 9.09 3.83l.54-.07a3.24 3.24 0 013.3 1.85 14.24 14.24 0 0012.85 8.26c5.63 0 10.9-3.77 13.12-9.37a4.63 4.63 0 018.63 0c2.22 5.6 7.5 9.37 13.12 9.37 5.47 0 10.5-3.23 12.83-8.22a3.28 3.28 0 013.32-1.9l.54.08c2.65.36 5.56-.64 7.97-2.74 2.85-2.5 4.48-6 4.48-9.64 0-.83-.11-1.7-.36-2.74a3.29 3.29 0 011.08-3.26 11.47 11.47 0 002.96-14.23 18.43 18.43 0 01-3.27 1.94 3.23 3.23 0 01-2.68-5.89A12.85 12.85 0 00112.6 68c0-4.01-2.05-7.7-5.48-9.87a3.22 3.22 0 01-1.08-4.33 11.51 11.51 0 001.57-5.73c0-6.63-5.47-12.45-11.7-12.45-2.57 0-5 .98-6.99 2.6a3.1 3.1 0 01-4.87-1.29l-.1-.28a3.09 3.09 0 01.92-3.49 17.52 17.52 0 0112.76-3.93 9.16 9.16 0 00-8.36-8.52 9.18 9.18 0 00-7.35 2.66 3.23 3.23 0 01-4.86-.31 3.3 3.3 0 01.39-4.37 15.57 15.57 0 017.38-4.08c-2.33-2.92-5.57-4.65-8.85-4.65-6.24 0-11.7 5.82-11.7 12.46zm16.78 54.9c-5.01-.1-9.7-2.09-13.21-5.6a3.24 3.24 0 014.58-4.57 12.87 12.87 0 008.67 3.66c3.26.1 6.32-1.05 8.42-3.14a3.24 3.24 0 014.57 4.58 17.62 17.62 0 01-12.6 5.08h-.43zm-40.07-6.5c3.28-.1 6.43-1.44 8.67-3.67a3.24 3.24 0 014.58 4.57c-3.5 3.51-8.2 5.5-13.21 5.6l-.42.01c-4.86 0-9.33-1.8-12.61-5.08a3.22 3.22 0 010-4.58 3.25 3.25 0 014.58 0 11.34 11.34 0 008.41 3.15z" fill="url(#_Linear1)"/><path d="M61.03 7.03A20.73 20.73 0 0046.08.5c-3.96 0-7.88 1.25-11.34 3.6a22.68 22.68 0 00-7.26 8.15 18.64 18.64 0 00-12.54 17.31 22.2 22.2 0 00-9.96 18.5c0 1.87.25 3.7.75 5.5A21.08 21.08 0 000 68c0 3.6.93 7.37 2.59 10.61a20.89 20.89 0 002.44 23.68 21.95 21.95 0 005.26 15.7 21.07 21.07 0 0014 7.46 23.78 23.78 0 0019.3 10.05c3.96 0 7.9-1.07 11.4-3.1a24.2 24.2 0 006.03-4.96 24.18 24.18 0 006.03 4.96 22.8 22.8 0 0011.41 3.1 23.8 23.8 0 0019.3-10.05 20.8 20.8 0 0013.16-6.53 22.14 22.14 0 006.1-16.63 20.9 20.9 0 002.45-23.68A23.86 23.86 0 00122.05 68a21.1 21.1 0 00-5.73-14.45c.5-1.79.75-3.62.75-5.48a22.22 22.22 0 00-9.96-18.5 18.64 18.64 0 00-12.54-17.32 22.7 22.7 0 00-7.25-8.14A20.12 20.12 0 0075.97.5a20.73 20.73 0 00-14.94 6.53zm14.94-3.54c6.84 0 13.43 4.5 16.5 11.24a15.7 15.7 0 0111.59 16.5 19.24 19.24 0 0110.02 16.84c0 2.16-.4 4.28-1.18 6.33a18.06 18.06 0 016.16 13.6c0 3.65-1.13 7.6-3.05 10.67a17.94 17.94 0 01-2.1 22.6c.11.82.17 1.59.17 2.35 0 10.2-8.22 18.82-17.99 18.93a20.72 20.72 0 01-17.63 9.96c-7.02 0-13.6-3.83-17.43-10.08-3.86 6.26-10.42 10.08-17.44 10.08-7.17 0-13.89-3.8-17.63-9.96a17.92 17.92 0 01-13.39-6.5 18.8 18.8 0 01-4.42-14.78 17.95 17.95 0 01-2.1-22.6A20.87 20.87 0 012.98 68c0-5.23 2.24-10.16 6.16-13.6a17.62 17.62 0 01-1.18-6.33c0-7 3.92-13.56 10.02-16.84a15.7 15.7 0 0111.6-16.5c3.07-6.75 9.65-11.24 16.49-11.24 5.9 0 11.52 3.15 14.95 8.3 3.43-5.15 9.05-8.3 14.94-8.3z" fill="url(#_Linear2)"/><path d="M212.84 36.24c.66.72.99 1.68.99 2.88v59.7c0 1.14-.32 2.05-.94 2.74-.63.7-1.51 1.04-2.64 1.04-1.14 0-1.98-.35-2.55-1.04-.57-.69-.85-1.6-.85-2.73v-48.2l-20.47 39.23c-.88 1.83-2.17 2.74-3.86 2.74-1.64 0-2.93-.91-3.87-2.73L158.09 51.1v47.73c0 1.13-.3 2.04-.9 2.73-.6.7-1.46 1.04-2.6 1.04a3.39 3.39 0 01-2.64-1.04c-.63-.69-.94-1.6-.94-2.73V39.12c0-1.2.35-2.16 1.04-2.88a3.73 3.73 0 012.83-1.08c1.57 0 2.83.9 3.77 2.73l23.96 45.94 23.67-45.94c.5-1 1.06-1.71 1.66-2.12.6-.4 1.3-.61 2.12-.61 1.2 0 2.12.36 2.78 1.08M265.61 55.34c.95 0 1.8.32 2.55.95a2.95 2.95 0 011.13 2.36 3 3 0 01-.38 1.5l-26.5 57.16a3.61 3.61 0 01-5.7 1.28 2.86 2.86 0 01-1.1-2.31c0-.5.13-1.01.39-1.51l6.6-14.25-18.68-40.37a2.8 2.8 0 01-.38-1.41c0-.95.43-1.76 1.28-2.45a4.31 4.31 0 012.78-1.04 3.62 3.62 0 013.2 2.17l15.76 35.37 15.75-35.18c.7-1.51 1.8-2.27 3.3-2.27M293.25 77.13h24.9L305.7 49.12l-12.45 28.01zm45.37 20.19c0 1.45-.58 2.67-1.75 3.68-1.16 1-2.5 1.5-4 1.5-1.01 0-1.95-.26-2.83-.8a5.34 5.34 0 01-2.08-2.5l-5.66-12.63h-33.2l-5.66 12.63a5.35 5.35 0 01-2.08 2.5c-.88.54-1.85.8-2.92.8a6 6 0 01-3.96-1.5c-1.2-1.01-1.8-2.23-1.8-3.68 0-.82.2-1.64.57-2.46l26.04-55.93a6.08 6.08 0 012.59-2.88 7.42 7.42 0 017.45 0 6.1 6.1 0 012.6 2.88l26.12 55.93c.38.82.57 1.64.57 2.46M394.46 68.83c0-15.53-7.64-23.3-22.92-23.3h-11.6v46.7h11.6c15.28 0 22.92-7.8 22.92-23.4m-45.13 31.79c-1.04-1-1.56-2.42-1.56-4.25V41.38c0-1.82.52-3.24 1.56-4.24 1.03-1 2.46-1.51 4.29-1.51h18.67c10.88 0 19.32 2.9 25.33 8.72 6 5.82 9 13.98 9 24.48 0 10.56-3 18.76-9 24.57-6 5.82-14.45 8.73-25.33 8.73h-18.67c-1.83 0-3.26-.5-4.3-1.51M475.2 36.8a6.03 6.03 0 011.6 4.4v55.36a6.1 6.1 0 01-1.65 4.44 5.72 5.72 0 01-4.29 1.7 5.68 5.68 0 01-4.34-1.7 6.19 6.19 0 01-1.6-4.44v-23.3h-34.05v23.3a6.1 6.1 0 01-1.65 4.44 5.84 5.84 0 01-4.39 1.7c-1.76 0-3.2-.57-4.29-1.7a6.09 6.09 0 01-1.65-4.44V41.2c0-1.83.53-3.3 1.6-4.4a5.77 5.77 0 014.34-1.64c1.83 0 3.29.55 4.39 1.65a5.94 5.94 0 011.65 4.39v22.25h34.05V41.2c0-1.83.53-3.3 1.6-4.4a5.77 5.77 0 014.34-1.64c1.83 0 3.27.55 4.34 1.65M537.83 68.83c0-15.53-7.64-23.3-22.92-23.3h-11.6v46.7h11.6c15.28 0 22.92-7.8 22.92-23.4m-45.13 31.79c-1.04-1-1.56-2.42-1.56-4.25V41.38c0-1.82.52-3.24 1.56-4.24s2.47-1.51 4.29-1.51h18.68c10.87 0 19.32 2.9 25.32 8.72S550 58.33 550 68.83c0 10.56-3 18.76-9 24.57-6.01 5.82-14.46 8.73-25.33 8.73h-18.68c-1.83 0-3.26-.5-4.3-1.51" fill="#fff"/></g><defs><linearGradient id="_Linear1" x1="0" y1="0" x2="1" y2="0" gradientUnits="userSpaceOnUse" gradientTransform="rotate(-90 93.53 32.5) scale(116.074)"><stop offset="0" stop-color="#f76ff7"/><stop offset=".81" stop-color="#9534fb"/><stop offset="1" stop-color="#4102fe"/></linearGradient><linearGradient id="_Linear2" x1="0" y1="0" x2="1" y2="0" gradientUnits="userSpaceOnUse" gradientTransform="rotate(-90 98.26 37.24) scale(135.003)"><stop offset="0" stop-color="#f76ff7"/><stop offset=".81" stop-color="#9534fb"/><stop offset="1" stop-color="#4102fe"/></linearGradient></defs></svg>