<svg viewBox="0 0 428 472" xmlns="http://www.w3.org/2000/svg" fill-rule="evenodd" clip-rule="evenodd" stroke-linejoin="round" stroke-miterlimit="2"><defs/><g fill-rule="nonzero"><path d="M225.32 76.63v52.7a11.32 11.32 0 11-22.64 0v-52.7c0-23.19-19.13-43.54-40.93-43.54-11.47 0-22.8 6-30.95 16.26A54.44 54.44 0 01157 63.96a11.24 11.24 0 013.32 8A11.35 11.35 0 01141 79.98a32.04 32.04 0 00-22.8-9.43 32.04 32.04 0 00-23 9.65 31.92 31.92 0 00-9.14 20.27c2.02-.2 4.04-.31 6.02-.31a60.83 60.83 0 0135.3 11.5 11.36 11.36 0 01-13.23 18.49c-6.46-4.6-14.1-7.35-22.07-7.35-21.8 0-40.93 20.35-40.93 43.54 0 6.86 1.84 13.58 5.47 20a11.36 11.36 0 01-3.8 15.2A40.7 40.7 0 0033.74 236c0 17.4 10.77 33.2 25.36 40.01 3.99 1.86 6.55 5.85 6.55 10.25 0 8.2-8.48 13.77-15.92 10.34a64.5 64.5 0 01-11.44-6.8 40.11 40.11 0 00-4.55 18.48c0 12 5.43 23.4 14.92 31.3a11.34 11.34 0 013.77 11.38c-3.35 13.98.48 28.36 10.52 39.45 8.81 9.74 20.96 14.88 31.73 13.4l1.9-.24c4.85-.55 9.5 2.06 11.55 6.48a49.79 49.79 0 0044.92 28.86c19.68 0 38.12-13.16 45.88-32.74A16.2 16.2 0 01214 395.8a16.2 16.2 0 0115.07 10.38c7.76 19.58 26.2 32.74 45.89 32.74 19.1 0 36.7-11.27 44.86-28.73a11.46 11.46 0 0111.6-6.62l1.9.25c9.26 1.27 19.41-2.22 27.84-9.58 9.97-8.7 15.69-20.98 15.69-33.7 0-2.9-.4-5.94-1.27-9.56-1-4.18.48-8.65 3.78-11.4a40.74 40.74 0 0014.9-31.29 40.1 40.1 0 00-4.55-18.48 64.46 64.46 0 01-11.43 6.8c-7.44 3.43-15.92-2.14-15.92-10.34 0-4.4 2.56-8.39 6.55-10.25 14.59-6.8 25.35-22.6 25.35-40.01a40.71 40.71 0 00-19.14-34.51 11.24 11.24 0 01-3.77-15.13 40.23 40.23 0 005.5-20.03c0-23.19-19.13-43.54-40.93-43.54-8.98 0-17.5 3.44-24.41 9.12a10.84 10.84 0 01-17.03-4.52l-.38-1a10.79 10.79 0 013.22-12.19c10.8-8.77 24.25-14.05 38.6-14.05 1.97 0 4 .1 6.01.31a32.04 32.04 0 00-11.67-22.6 31.95 31.95 0 00-17.53-7.2A32.1 32.1 0 00287 79.99c-2.3 2.3-5.48 3.5-8.72 3.28a11.38 11.38 0 01-8.27-4.4c-3.5-4.53-2.9-11.08 1.36-15.27a54.45 54.45 0 0125.82-14.24c-8.14-10.24-19.47-16.26-30.94-16.26-21.8 0-40.93 20.35-40.93 43.54zm58.67 191.98a66.95 66.95 0 01-46.2-19.6 11.33 11.33 0 0116.01-16c7.82 7.82 18.87 12.5 30.31 12.83 11.4.32 22.11-3.67 29.43-10.98a11.33 11.33 0 0116 16c-11.48 11.5-27.09 17.76-44.1 17.76-.49 0-.96 0-1.45-.02zm-140.1-22.77c11.44-.33 22.48-5 30.31-12.83a11.33 11.33 0 0116 0 11.34 11.34 0 010 16 66.95 66.95 0 01-46.2 19.6l-1.45.01c-17 0-32.61-6.27-44.1-17.75a11.26 11.26 0 01-3.32-8 11.26 11.26 0 017-10.48 11.31 11.31 0 0112.34 2.47c7.02 7.03 17.2 11 28.11 11 .43 0 .87 0 1.3-.02z" fill="url(#_Linear1)"/><path d="M214 22.82C200.13 8.34 181.38 0 161.75 0c-13.84 0-27.55 4.36-39.65 12.62a79.33 79.33 0 00-25.38 28.47 65.17 65.17 0 00-43.83 60.53 77.24 77.24 0 00-23.85 25.02 77.6 77.6 0 00-10.99 39.69c0 6.48.88 12.89 2.62 19.16A73.71 73.71 0 00.64 236a83.4 83.4 0 009.04 37.11 73.07 73.07 0 008.55 82.76c-1.4 19.55 5.17 39.31 18.4 54.91 12.73 15 30.31 24.31 48.93 26.08 15.4 21.81 40.77 35.14 67.48 35.14a79.6 79.6 0 0039.86-10.83 84.55 84.55 0 0021.09-17.36 84.66 84.66 0 0021.08 17.35A79.71 79.71 0 00274.96 472c26.71 0 52.07-13.33 67.48-35.13 17.25-1.62 33.4-9.59 45.99-22.83a77.4 77.4 0 0021.51-53.51c0-1.54-.05-3.09-.17-4.66a73.09 73.09 0 008.55-82.76 83.43 83.43 0 009.04-37.11 73.79 73.79 0 00-20.03-50.51 71.86 71.86 0 002.61-19.16 77.7 77.7 0 00-11-39.72 77 77 0 00-23.83-24.99 65.16 65.16 0 00-43.82-60.53 79.33 79.33 0 00-25.37-28.46C293.81 4.37 280.09 0 266.25 0 246.61 0 227.87 8.34 214 22.82zm52.25-12.37c23.92 0 46.94 15.74 57.66 39.3a54.86 54.86 0 0140.55 57.68c21.31 11.42 35.03 34.36 35.03 58.9 0 7.54-1.4 14.97-4.13 22.11A63.13 63.13 0 01416.91 236a72.98 72.98 0 01-10.69 37.3 62.71 62.71 0 01-7.34 79.01c.41 2.86.61 5.55.61 8.22 0 35.64-28.73 65.79-62.88 66.19a72.45 72.45 0 01-61.65 34.83c-24.55 0-47.53-13.4-60.96-35.25-13.48 21.89-36.43 35.25-60.96 35.25a72.46 72.46 0 01-61.65-34.83c-17.69-.21-34.7-8.46-46.8-22.7-12.48-14.72-18.08-33.49-15.48-51.7a62.75 62.75 0 01-7.34-79.02A72.97 72.97 0 0111.1 236a63.12 63.12 0 0121.54-47.56 61.58 61.58 0 01-4.13-22.1c0-24.52 13.7-47.44 35.04-58.91a54.87 54.87 0 0140.56-57.68c10.74-23.58 33.74-39.3 57.65-39.3 20.6 0 40.26 11.02 52.25 29.03 11.99-18.02 31.65-29.03 52.25-29.03z" fill="url(#_Linear2)"/><path d="M378.28 296.6a64.5 64.5 0 0011.43-6.8 40.1 40.1 0 014.56 18.48c0 11.98-5.44 23.4-14.91 31.28a11.47 11.47 0 00-3.78 11.41 40.29 40.29 0 011.27 9.56c0 12.72-5.72 25-15.69 33.7-8.43 7.36-18.58 10.85-27.84 9.58l-1.9-.25a11.46 11.46 0 00-11.6 6.62 49.76 49.76 0 01-44.86 28.73c-19.68 0-38.13-13.16-45.89-32.73A16.2 16.2 0 00214 395.79a16.2 16.2 0 00-15.08 10.38c-7.76 19.58-26.2 32.74-45.88 32.74a49.79 49.79 0 01-44.92-28.86 11.31 11.31 0 00-11.55-6.48l-1.9.24c-10.77 1.48-22.92-3.66-31.73-13.4-10.04-11.1-13.87-25.47-10.52-39.45a11.34 11.34 0 00-3.77-11.38c-9.49-7.9-14.92-19.3-14.92-31.3a40.1 40.1 0 014.55-18.48 64.47 64.47 0 0011.44 6.8c7.44 3.43 15.92-2.14 15.92-10.34 0-4.4-2.56-8.39-6.55-10.25-14.6-6.8-25.36-22.6-25.36-40.01 0-14 7.14-26.9 19.1-34.48a11.36 11.36 0 003.8-15.2 40.27 40.27 0 01-5.48-19.99c0-23.19 19.12-43.54 40.93-43.54 7.97 0 15.6 2.74 22.07 7.36a11.36 11.36 0 0013.23-18.5 60.83 60.83 0 00-35.3-11.5c-1.98 0-4 .1-6.02.31a31.92 31.92 0 019.14-20.27 32.03 32.03 0 0123-9.65c8.6 0 16.7 3.35 22.8 9.44a11.35 11.35 0 0019.32-8.01c0-3.04-1.19-5.87-3.32-8a54.44 54.44 0 00-26.2-14.62c8.16-10.25 19.48-16.26 30.95-16.26 21.8 0 40.93 20.35 40.93 43.54v52.7a11.32 11.32 0 1022.64 0v-52.7c0-23.19 19.12-43.54 40.93-43.54 11.47 0 22.8 6.02 30.94 16.26a54.46 54.46 0 00-25.82 14.24c-4.27 4.19-4.85 10.74-1.36 15.27a11.38 11.38 0 0017 1.12 32.1 32.1 0 0125.72-9.31 31.96 31.96 0 0117.53 7.2 32.04 32.04 0 0111.67 22.59c-2.02-.2-4.04-.31-6.01-.31-14.35 0-27.8 5.28-38.6 14.05a10.79 10.79 0 00-3.22 12.2l.38.99a10.84 10.84 0 0017.03 4.52c6.92-5.68 15.44-9.12 24.4-9.12 21.81 0 40.94 20.35 40.94 43.54 0 6.86-1.85 13.6-5.5 20.03a11.24 11.24 0 003.77 15.13A40.71 40.71 0 01394.27 236c0 17.4-10.77 33.2-25.36 40.01a11.32 11.32 0 00-6.55 10.25c0 8.2 8.48 13.77 15.92 10.34m27.94-23.3a72.98 72.98 0 0010.69-37.3c0-18.29-7.83-35.5-21.55-47.56a61.58 61.58 0 004.13-22.1c0-24.55-13.71-47.49-35.03-58.91a54.86 54.86 0 00-40.55-57.68c-10.72-23.56-33.74-39.3-57.66-39.3-20.6 0-40.26 11.01-52.25 29.03-11.98-18-31.65-29.03-52.25-29.03-23.9 0-46.9 15.72-57.65 39.3a54.87 54.87 0 00-40.56 57.68c-21.34 11.47-35.03 34.39-35.03 58.9a61.6 61.6 0 004.12 22.11A63.12 63.12 0 0011.1 236a72.98 72.98 0 0010.68 37.3 62.7 62.7 0 007.35 79.01c-2.6 18.22 3 36.99 15.48 51.7 12.09 14.25 29.1 22.5 46.79 22.7a72.46 72.46 0 0061.65 34.84c24.53 0 47.49-13.37 60.96-35.25 13.43 21.86 36.4 35.25 60.96 35.25a72.45 72.45 0 0061.65-34.83c34.15-.4 62.88-30.55 62.88-66.19 0-2.67-.2-5.36-.6-8.22a62.76 62.76 0 007.33-79.01" fill="#3c0a66"/><path d="M313.54 234.86c-7.32 7.3-18.04 11.3-29.43 10.98-11.44-.33-22.49-5-30.3-12.83a11.24 11.24 0 00-8.02-3.32 11.33 11.33 0 00-8 19.32 66.96 66.96 0 0047.65 19.61c17.01 0 32.62-6.27 44.1-17.75a11.33 11.33 0 00-16-16.01M174.2 233.01c-7.83 7.82-18.87 12.5-30.32 12.83-11.4.33-22.1-3.67-29.41-10.98a11.32 11.32 0 10-16.02 16c11.49 11.5 27.1 17.76 44.1 17.76l1.46-.01a66.96 66.96 0 0046.2-19.6 11.34 11.34 0 000-16 11.33 11.33 0 00-16.01 0" fill="#3c0a66"/></g><defs><linearGradient id="_Linear1" x1="0" y1="0" x2="1" y2="0" gradientUnits="userSpaceOnUse" gradientTransform="matrix(0 -405.82 405.82 0 214 438.91)"><stop offset="0" stop-color="#f76ff7"/><stop offset=".81" stop-color="#9534fb"/><stop offset="1" stop-color="#4102fe"/></linearGradient><linearGradient id="_Linear2" x1="0" y1="0" x2="1" y2="0" gradientUnits="userSpaceOnUse" gradientTransform="matrix(0 -472 472 0 214 472)"><stop offset="0" stop-color="#f76ff7"/><stop offset=".81" stop-color="#9534fb"/><stop offset="1" stop-color="#4102fe"/></linearGradient></defs></svg>