<?xml version="1.0" encoding="UTF-8" standalone="no"?><!DOCTYPE svg PUBLIC "-//W3C//DTD SVG 1.1//EN" "http://www.w3.org/Graphics/SVG/1.1/DTD/svg11.dtd"><svg width="100%" height="100%" viewBox="0 0 430 386" version="1.1" xmlns="http://www.w3.org/2000/svg" xmlns:xlink="http://www.w3.org/1999/xlink" xml:space="preserve" xmlns:serif="http://www.serif.com/" style="fill-rule:evenodd;clip-rule:evenodd;stroke-linejoin:round;stroke-miterlimit:2;"><g id="Camada-1" serif:id="Camada 1"><path d="M66.636,295.769c0.711,0.779 1.067,1.813 1.067,3.1l-0,64.348c-0,1.22 -0.339,2.202 -1.016,2.948c-0.679,0.745 -1.627,1.118 -2.847,1.118c-1.22,0 -2.135,-0.373 -2.744,-1.118c-0.61,-0.746 -0.915,-1.728 -0.915,-2.948l-0,-51.946l-22.06,42.288c-0.95,1.967 -2.338,2.949 -4.168,2.949c-1.762,0 -3.151,-0.982 -4.168,-2.949l-22.161,-41.779l-0,51.437c-0,1.22 -0.322,2.202 -0.966,2.948c-0.644,0.745 -1.575,1.118 -2.794,1.118c-1.22,0 -2.17,-0.373 -2.847,-1.118c-0.679,-0.746 -1.017,-1.728 -1.017,-2.948l-0,-64.348c-0,-1.287 0.372,-2.321 1.118,-3.1c0.746,-0.778 1.762,-1.17 3.05,-1.17c1.694,0 3.05,0.983 4.067,2.948l25.82,49.506l25.516,-49.506c0.542,-1.084 1.133,-1.846 1.779,-2.287c0.643,-0.44 1.405,-0.661 2.287,-0.661c1.286,0 2.287,0.392 2.999,1.17" style="fill:#fff;fill-rule:nonzero;"/><path d="M123.511,316.355c1.017,-0 1.932,0.34 2.745,1.017c0.813,0.677 1.22,1.524 1.22,2.541c-0,0.609 -0.137,1.152 -0.407,1.626l-28.565,61.603c-0.341,0.745 -0.831,1.322 -1.474,1.729c-0.645,0.406 -1.306,0.61 -1.983,0.61c-1.016,-0 -1.915,-0.323 -2.693,-0.966c-0.78,-0.645 -1.169,-1.474 -1.169,-2.491c-0,-0.543 0.135,-1.085 0.406,-1.626l7.116,-15.351l-20.128,-43.508c-0.271,-0.474 -0.407,-0.983 -0.407,-1.525c-0,-1.017 0.458,-1.897 1.373,-2.642c0.915,-0.747 1.914,-1.12 2.999,-1.12c0.676,-0 1.337,0.204 1.982,0.611c0.643,0.406 1.134,0.983 1.474,1.726l16.977,38.121l16.976,-37.916c0.745,-1.627 1.931,-2.44 3.558,-2.44" style="fill:#fff;fill-rule:nonzero;"/><path d="M153.295,339.837l26.837,-0l-13.418,-30.192l-13.419,30.192Zm48.896,21.754c-0,1.559 -0.626,2.881 -1.88,3.965c-1.255,1.085 -2.694,1.627 -4.321,1.627c-1.085,-0 -2.1,-0.29 -3.049,-0.866c-0.95,-0.574 -1.695,-1.473 -2.237,-2.693l-6.098,-13.622l-35.784,-0l-6.099,13.622c-0.543,1.22 -1.288,2.119 -2.237,2.693c-0.95,0.576 -2,0.866 -3.151,0.866c-1.56,-0 -2.982,-0.542 -4.269,-1.627c-1.289,-1.084 -1.932,-2.406 -1.932,-3.965c-0,-0.88 0.203,-1.762 0.61,-2.644l28.057,-60.281c0.61,-1.355 1.541,-2.389 2.796,-3.1c1.253,-0.712 2.592,-1.068 4.015,-1.068c1.423,-0 2.761,0.356 4.016,1.068c1.253,0.711 2.185,1.745 2.795,3.1l28.159,60.281c0.406,0.882 0.609,1.764 0.609,2.644" style="fill:#fff;fill-rule:nonzero;"/><path d="M262.371,330.891c0,-16.738 -8.234,-25.108 -24.703,-25.108l-12.503,-0l0,50.319l12.503,-0c16.469,-0 24.703,-8.402 24.703,-25.211m-48.643,34.259c-1.118,-1.084 -1.677,-2.61 -1.677,-4.575l0,-59.266c0,-1.965 0.559,-3.489 1.677,-4.574c1.119,-1.083 2.66,-1.627 4.625,-1.627l20.128,-0c11.724,-0 20.823,3.136 27.295,9.403c6.471,6.27 9.708,15.064 9.708,26.38c0,11.386 -3.237,20.213 -9.708,26.481c-6.472,6.27 -15.571,9.404 -27.295,9.404l-20.128,-0c-1.965,-0 -3.506,-0.542 -4.625,-1.626" style="fill:#fff;fill-rule:nonzero;"/><path d="M349.388,296.379c1.151,1.186 1.729,2.762 1.729,4.728l-0,59.67c-0,1.967 -0.595,3.558 -1.78,4.779c-1.186,1.219 -2.728,1.829 -4.625,1.829c-1.967,-0 -3.524,-0.61 -4.677,-1.829c-1.153,-1.221 -1.727,-2.812 -1.727,-4.779l-0,-25.108l-36.698,-0l-0,25.108c-0,1.967 -0.594,3.558 -1.779,4.779c-1.186,1.219 -2.762,1.829 -4.727,1.829c-1.899,-0 -3.441,-0.61 -4.625,-1.829c-1.187,-1.221 -1.779,-2.812 -1.779,-4.779l-0,-59.67c-0,-1.966 0.575,-3.542 1.728,-4.728c1.151,-1.186 2.709,-1.779 4.676,-1.779c1.965,-0 3.541,0.593 4.727,1.779c1.185,1.186 1.779,2.762 1.779,4.728l-0,23.99l36.698,-0l-0,-23.99c-0,-1.966 0.574,-3.542 1.727,-4.728c1.153,-1.186 2.71,-1.779 4.677,-1.779c1.965,-0 3.523,0.593 4.676,1.779" style="fill:#fff;fill-rule:nonzero;"/><path d="M416.887,330.891c-0,-16.738 -8.234,-25.108 -24.703,-25.108l-12.503,-0l-0,50.319l12.503,-0c16.469,-0 24.703,-8.402 24.703,-25.211m-48.643,34.259c-1.118,-1.084 -1.677,-2.61 -1.677,-4.575l-0,-59.266c-0,-1.965 0.559,-3.489 1.677,-4.574c1.119,-1.083 2.66,-1.627 4.625,-1.627l20.128,-0c11.724,-0 20.823,3.136 27.295,9.403c6.471,6.27 9.708,15.064 9.708,26.38c-0,11.386 -3.237,20.213 -9.708,26.481c-6.472,6.27 -15.571,9.404 -27.295,9.404l-20.128,-0c-1.965,-0 -3.506,-0.542 -4.625,-1.626" style="fill:#fff;fill-rule:nonzero;"/><path d="M221.385,43.746l0,29.727c0,3.526 -2.859,6.385 -6.386,6.385c-3.528,-0 -6.386,-2.859 -6.386,-6.385l0,-29.727c0,-13.082 -10.786,-24.561 -23.087,-24.561c-6.469,0 -12.855,3.388 -17.453,9.171c5.575,1.301 10.649,4.121 14.777,8.242c1.203,1.203 1.871,2.804 1.871,4.514c0,1.705 -0.664,3.306 -1.867,4.514c-2.491,2.49 -6.543,2.49 -9.034,0.005c-3.438,-3.433 -8.001,-5.324 -12.854,-5.324c-4.918,-0 -9.525,1.935 -12.978,5.447c-3.055,3.109 -4.854,7.122 -5.153,11.43c1.14,-0.118 2.279,-0.176 3.394,-0.176c7.3,0 14.174,2.41 19.913,6.492c2.369,1.685 3.289,4.77 2.259,7.488c-1.491,3.933 -6.296,5.386 -9.719,2.943c-3.649,-2.605 -7.953,-4.153 -12.453,-4.153c-12.299,0 -23.086,11.48 -23.086,24.561c0,3.866 1.041,7.658 3.089,11.278c1.685,2.977 0.743,6.745 -2.142,8.572c-6.743,4.279 -10.772,11.548 -10.772,19.447c0,9.817 6.074,18.73 14.303,22.568c2.25,1.05 3.695,3.299 3.695,5.784c0,4.62 -4.785,7.763 -8.98,5.827c-2.25,-1.038 -4.414,-2.321 -6.448,-3.832c-1.685,3.242 -2.57,6.818 -2.57,10.424c0,6.763 3.066,13.198 8.415,17.654c1.877,1.561 2.697,4.042 2.126,6.42c-1.89,7.884 0.271,15.994 5.935,22.251c4.97,5.491 11.823,8.39 17.9,7.555c0.358,-0.044 0.712,-0.094 1.07,-0.132c2.736,-0.31 5.354,1.159 6.513,3.654c4.593,9.888 14.535,16.279 25.337,16.279c11.101,0 21.506,-7.423 25.882,-18.465c1.41,-3.556 4.745,-5.855 8.503,-5.855c3.758,0 7.092,2.299 8.503,5.855c4.376,11.042 14.78,18.465 25.882,18.465c10.776,0 20.699,-6.357 25.302,-16.206c1.173,-2.51 3.791,-4.042 6.547,-3.733c0.359,0.044 0.712,0.094 1.072,0.138c5.22,0.717 10.948,-1.253 15.703,-5.403c5.625,-4.907 8.846,-11.833 8.846,-19.005c0,-1.641 -0.225,-3.355 -0.716,-5.394c-0.564,-2.357 0.27,-4.882 2.131,-6.434c5.345,-4.45 8.41,-10.886 8.41,-17.644c0,-3.606 -0.884,-7.182 -2.569,-10.424c-2.035,1.511 -4.199,2.794 -6.447,3.832c-4.197,1.936 -8.983,-1.207 -8.983,-5.827c0,-2.484 1.446,-4.734 3.697,-5.784c8.228,-3.838 14.302,-12.751 14.302,-22.568c0,-7.909 -4.038,-15.189 -10.802,-19.467c-2.893,-1.827 -3.812,-5.556 -2.121,-8.532c2.058,-3.625 3.098,-7.427 3.098,-11.298c0,-13.081 -10.786,-24.561 -23.087,-24.561c-5.06,0 -9.865,1.944 -13.768,5.143c-3.238,2.655 -8.121,1.367 -9.605,-2.549l-0.211,-0.557c-0.927,-2.446 -0.214,-5.232 1.816,-6.879c6.09,-4.945 13.675,-7.928 21.768,-7.928c1.116,0 2.256,0.058 3.395,0.176c-0.344,-4.947 -2.662,-9.495 -6.587,-12.746c-2.8,-2.319 -6.267,-3.739 -9.887,-4.058c-5.463,-0.481 -10.685,1.43 -14.511,5.251c-1.297,1.297 -3.091,1.975 -4.922,1.851c-1.832,-0.112 -3.526,-1.021 -4.661,-2.48c-1.97,-2.553 -1.641,-6.253 0.766,-8.615c4.081,-4.004 9.083,-6.75 14.564,-8.031c-4.593,-5.778 -10.984,-9.171 -17.452,-9.171c-12.301,0 -23.087,11.479 -23.087,24.561Zm33.093,108.28c-9.889,-0.206 -19.143,-4.131 -26.059,-11.046c-2.491,-2.491 -2.491,-6.543 0,-9.029c1.208,-1.209 2.809,-1.872 4.514,-1.872c1.71,0 3.31,0.663 4.519,1.872c4.411,4.412 10.639,7.049 17.094,7.236c6.424,0.181 12.472,-2.074 16.597,-6.195c2.487,-2.49 6.539,-2.49 9.029,0c2.491,2.491 2.491,6.539 0,9.028c-6.474,6.48 -15.281,10.016 -24.874,10.016c-0.276,0 -0.547,0 -0.82,-0.01Zm-79.026,-12.839c6.454,-0.187 12.682,-2.824 17.099,-7.236c2.485,-2.49 6.538,-2.49 9.028,-0.005c2.49,2.495 2.49,6.543 0,9.034c-6.916,6.915 -16.171,10.84 -26.058,11.046c-0.276,0.01 -0.551,0.01 -0.821,0.01c-9.594,0 -18.396,-3.536 -24.875,-10.016c-1.203,-1.202 -1.871,-2.809 -1.871,-4.513c0,-1.705 0.668,-3.311 1.871,-4.515c0.605,-0.604 1.307,-1.07 2.074,-1.389c0.76,-0.314 1.585,-0.482 2.44,-0.482c1.709,0 3.311,0.663 4.519,1.871c3.964,3.964 9.704,6.206 15.857,6.206c0.245,0 0.491,-0.004 0.737,-0.011Z" style="fill:url(#_Linear1);fill-rule:nonzero;"/><path d="M215,13.391c-7.823,-8.167 -18.399,-12.872 -29.472,-12.872c-7.807,0 -15.539,2.459 -22.364,7.119c-5.991,4.084 -10.897,9.601 -14.316,16.058c-14.642,5.088 -24.486,18.749 -24.722,34.143c-5.444,3.581 -10.052,8.404 -13.453,14.113c-4.056,6.807 -6.199,14.546 -6.199,22.387c-0,3.654 0.497,7.27 1.478,10.806c-7.225,7.677 -11.298,17.859 -11.298,28.491c-0,7.085 1.833,14.524 5.099,20.931c-3.345,6.104 -5.099,12.889 -5.099,19.839c-0,9.882 3.502,19.313 9.921,26.843c-0.789,11.028 2.916,22.173 10.379,30.972c7.181,8.461 17.097,13.711 27.599,14.71c8.692,12.302 22.997,19.821 38.062,19.821c7.813,0 15.591,-2.11 22.484,-6.108c4.439,-2.567 8.461,-5.889 11.895,-9.792c3.435,3.903 7.457,7.22 11.891,9.785c6.898,4 14.681,6.115 22.5,6.115c15.065,0 29.369,-7.519 38.063,-19.815c9.729,-0.914 18.838,-5.409 25.939,-12.877c7.824,-8.23 12.133,-18.946 12.133,-30.183c-0,-0.868 -0.028,-1.742 -0.095,-2.628c6.419,-7.537 9.921,-16.961 9.921,-26.843c0,-6.95 -1.755,-13.735 -5.099,-19.839c3.265,-6.407 5.099,-13.852 5.099,-20.931c0,-10.627 -4.078,-20.808 -11.298,-28.491c0.976,-3.536 1.472,-7.152 1.472,-10.806c0,-7.847 -2.144,-15.591 -6.199,-22.405c-3.401,-5.708 -8.01,-10.525 -13.447,-14.095c-0.23,-15.394 -10.073,-29.049 -24.716,-34.143c-3.413,-6.452 -8.32,-11.963 -14.31,-16.052c-6.831,-4.66 -14.57,-7.125 -22.376,-7.125c-11.078,0 -21.649,4.705 -29.472,12.872Zm29.472,-6.977c13.493,0 26.475,8.88 32.522,22.167c14.525,3.876 24.173,17.63 22.871,32.534c12.025,6.444 19.761,19.382 19.761,33.224c0,4.253 -0.786,8.444 -2.328,12.471c7.736,6.8 12.153,16.51 12.153,26.826c-0,7.186 -2.24,14.972 -6.029,21.039c3.945,5.904 6.029,12.702 6.029,19.732c-0,9.303 -3.607,18.095 -10.169,24.835c0.232,1.61 0.344,3.129 0.344,4.637c-0,20.1 -16.205,37.105 -35.47,37.332c-7.382,12.143 -20.63,19.649 -34.772,19.649c-13.848,0 -26.811,-7.555 -34.385,-19.886c-7.599,12.346 -20.547,19.886 -34.385,19.886c-14.142,0 -27.384,-7.506 -34.772,-19.649c-9.977,-0.118 -19.575,-4.769 -26.393,-12.805c-7.043,-8.303 -10.203,-18.889 -8.734,-29.164c-6.562,-6.74 -10.168,-15.532 -10.168,-24.835c0,-7.03 2.083,-13.828 6.028,-19.732c-3.788,-6.067 -6.028,-13.853 -6.028,-21.039c0,-10.316 4.416,-20.032 12.152,-26.826c-1.542,-4.027 -2.328,-8.218 -2.328,-12.471c-0,-13.828 7.726,-26.756 19.762,-33.224c-1.292,-14.919 8.35,-28.658 22.874,-32.534c6.062,-13.302 19.036,-22.167 32.519,-22.167c11.623,0 22.714,6.218 29.473,16.376c6.764,-10.163 17.855,-16.376 29.473,-16.376Z" style="fill:url(#_Linear2);fill-rule:nonzero;"/></g><defs><linearGradient id="_Linear1" x1="0" y1="0" x2="1" y2="0" gradientUnits="userSpaceOnUse" gradientTransform="matrix(0,-228.903,228.903,-0,214.999,248.088)"><stop offset="0" style="stop-color:#f76ff7;stop-opacity:1"/><stop offset="0.81" style="stop-color:#9534fb;stop-opacity:1"/><stop offset="1" style="stop-color:#4102fe;stop-opacity:1"/></linearGradient><linearGradient id="_Linear2" x1="0" y1="0" x2="1" y2="0" gradientUnits="userSpaceOnUse" gradientTransform="matrix(0,-266.233,266.233,-0,215,266.752)"><stop offset="0" style="stop-color:#f76ff7;stop-opacity:1"/><stop offset="0.81" style="stop-color:#9534fb;stop-opacity:1"/><stop offset="1" style="stop-color:#4102fe;stop-opacity:1"/></linearGradient></defs></svg>