<svg clip-rule="evenodd" fill-rule="evenodd" stroke-linecap="round" stroke-linejoin="round" stroke-miterlimit="10" viewBox="0 0 618 618" xmlns="http://www.w3.org/2000/svg" xmlns:xlink="http://www.w3.org/1999/xlink"><linearGradient id="a"><stop offset="0" stop-color="#f76ff7"/><stop offset=".81" stop-color="#9534fb"/><stop offset="1" stop-color="#4102fe"/></linearGradient><linearGradient id="b" gradientTransform="matrix(0 -429.894 429.894 0 309 523.95)" gradientUnits="userSpaceOnUse" x1="0" x2="1" xlink:href="#a" y1="0" y2="0"/><linearGradient id="c" gradientTransform="matrix(0 -500 500 0 309 559)" gradientUnits="userSpaceOnUse" x1="0" x2="1" xlink:href="#a" y1="0" y2="0"/><path d="m0 0h618v618h-618z" fill="none"/><g fill-rule="nonzero"><path d="m320.99 140.18v55.82a12 12 0 0 1 -23.99 0v-55.83c0-24.57-20.25-46.13-43.35-46.13-12.15 0-24.15 6.37-32.78 17.23a57.66 57.66 0 0 1 27.75 15.48 11.91 11.91 0 0 1 3.51 8.47c0 3.2-1.24 6.21-3.5 8.48a12.02 12.02 0 0 1 -16.97.01 33.95 33.95 0 0 0 -24.14-10 33.94 33.94 0 0 0 -24.37 10.23 33.8 33.8 0 0 0 -9.68 21.47c2.14-.22 4.28-.33 6.38-.33 13.7 0 26.61 4.52 37.39 12.2a12.03 12.03 0 0 1 -14.01 19.59c-6.85-4.9-14.94-7.8-23.38-7.8-23.1 0-43.36 21.55-43.36 46.12 0 7.26 1.95 14.38 5.8 21.18a12.03 12.03 0 0 1 -4.02 16.1 43.12 43.12 0 0 0 -20.23 36.53c0 18.44 11.4 35.18 26.86 42.39a11.99 11.99 0 0 1 6.94 10.86c0 8.68-8.99 14.58-16.87 10.94a68.24 68.24 0 0 1 -12.1-7.2 42.48 42.48 0 0 0 -4.83 19.58c0 12.7 5.75 24.79 15.8 33.16a12.01 12.01 0 0 1 4 12.05c-3.56 14.8.5 30.04 11.14 41.8 9.33 10.3 22.2 15.75 33.61 14.18l2.01-.25a11.99 11.99 0 0 1 12.24 6.87c8.62 18.57 27.3 30.57 47.58 30.57 20.85 0 40.39-13.94 48.6-34.68 2.66-6.68 8.92-11 15.98-11s13.32 4.32 15.97 11c8.22 20.74 27.75 34.68 48.6 34.68a52.72 52.72 0 0 0 47.52-30.44 12.13 12.13 0 0 1 12.3-7c.67.07 1.34.17 2.01.25 9.8 1.35 20.56-2.35 29.5-10.15 10.56-9.21 16.6-22.22 16.6-35.7 0-3.07-.42-6.29-1.34-10.12-1.06-4.43.5-9.17 4-12.08 10.04-8.36 15.8-20.45 15.8-33.14a42.5 42.5 0 0 0 -4.83-19.58 68.3 68.3 0 0 1 -12.1 7.2c-7.89 3.64-16.87-2.27-16.87-10.94 0-4.67 2.71-8.9 6.94-10.87 15.45-7.2 26.86-23.94 26.86-42.38a43.12 43.12 0 0 0 -20.29-36.56 11.9 11.9 0 0 1 -3.98-16.02 42.63 42.63 0 0 0 5.82-21.22c0-24.57-20.26-46.13-43.36-46.13-9.5 0-18.53 3.65-25.86 9.66a11.49 11.49 0 0 1 -18.04-4.79l-.4-1.04c-1.73-4.6-.4-9.83 3.42-12.92 11.43-9.29 25.68-14.9 40.88-14.9 2.1 0 4.23.12 6.37.34-.64-9.3-5-17.83-12.37-23.94a33.84 33.84 0 0 0 -18.57-7.62 34 34 0 0 0 -27.25 9.86 12.04 12.04 0 0 1 -18-1.18c-3.7-4.8-3.08-11.74 1.44-16.18a57.67 57.67 0 0 1 27.35-15.08c-8.62-10.85-20.62-17.23-32.77-17.23-23.1 0-43.36 21.56-43.36 46.13z" fill="url(#b)"/><path d="m309 83.17c-14.7-15.33-34.56-24.17-55.35-24.17-14.66 0-29.18 4.62-42 13.37a84.02 84.02 0 0 0 -26.89 30.16 69.04 69.04 0 0 0 -46.43 64.12 81.84 81.84 0 0 0 -25.26 26.5 82.2 82.2 0 0 0 -11.64 42.05c0 6.86.93 13.65 2.77 20.3a78.09 78.09 0 0 0 -21.22 53.5 88.4 88.4 0 0 0 9.58 39.31 77.4 77.4 0 0 0 9.06 87.67c-1.49 20.71 5.47 41.64 19.49 58.17 13.48 15.89 32.1 25.75 51.83 27.63 16.32 23.1 43.19 37.22 71.48 37.22a84.33 84.33 0 0 0 42.23-11.47 89.58 89.58 0 0 0 22.34-18.4 89.65 89.65 0 0 0 22.33 18.39 84.44 84.44 0 0 0 42.26 11.48c28.29 0 55.16-14.12 71.48-37.21 18.27-1.72 35.38-10.16 48.72-24.19a82 82 0 0 0 22.78-56.68c0-1.63-.05-3.28-.18-4.94a77.42 77.42 0 0 0 9.06-87.67 88.36 88.36 0 0 0 9.58-39.31 78.16 78.16 0 0 0 -21.22-53.5 76.06 76.06 0 0 0 2.76-20.3 82.33 82.33 0 0 0 -11.64-42.08 81.61 81.61 0 0 0 -25.25-26.47 69.02 69.02 0 0 0 -46.42-64.12 84.02 84.02 0 0 0 -26.88-30.15c-12.83-8.75-27.36-13.38-42.02-13.38-20.8 0-40.66 8.84-55.35 24.17zm55.35-13.1c25.34 0 49.72 16.68 61.08 41.63a58.12 58.12 0 0 1 42.95 61.1c22.58 12.1 37.11 36.4 37.11 62.4a65.2 65.2 0 0 1 -4.37 23.42 66.87 66.87 0 0 1 22.82 50.38 77.3 77.3 0 0 1 -11.32 39.51 66.43 66.43 0 0 1 -7.77 83.7c.43 3.03.64 5.88.64 8.7 0 37.76-30.43 69.7-66.61 70.12a76.75 76.75 0 0 1 -65.3 36.9c-26.01 0-50.36-14.18-64.58-37.34-14.27 23.18-38.6 37.34-64.58 37.34-26.56 0-51.43-14.1-65.3-36.9-18.74-.22-36.77-8.96-49.57-24.05-13.23-15.59-19.16-35.47-16.4-54.77a66.48 66.48 0 0 1 -7.78-83.7 77.3 77.3 0 0 1 -11.32-39.51 66.9 66.9 0 0 1 22.82-50.38 65.24 65.24 0 0 1 -4.37-23.42c0-25.97 14.51-50.25 37.11-62.4a58.12 58.12 0 0 1 42.97-61.1c11.38-24.98 35.74-41.63 61.07-41.63 21.82 0 42.65 11.68 55.35 30.75 12.7-19.08 33.53-30.75 55.35-30.75z" fill="url(#c)"/><path d="m483.02 373.19a68.34 68.34 0 0 0 12.11-7.2 42.5 42.5 0 0 1 4.83 19.58c0 12.7-5.76 24.78-15.8 33.14a12.15 12.15 0 0 0 -4 12.08 42.66 42.66 0 0 1 1.35 10.13c0 13.47-6.05 26.48-16.62 35.7-8.93 7.79-19.68 11.49-29.49 10.14l-2.01-.26a12.14 12.14 0 0 0 -12.3 7.01 52.71 52.71 0 0 1 -47.52 30.44c-20.85 0-40.38-13.94-48.6-34.68a17.16 17.16 0 0 0 -15.97-11 17.16 17.16 0 0 0 -15.97 11c-8.22 20.74-27.76 34.68-48.6 34.68-20.3 0-38.97-12-47.6-30.58a11.99 11.99 0 0 0 -12.23-6.86c-.67.07-1.33.17-2 .25-11.42 1.57-24.29-3.87-33.62-14.19-10.64-11.75-14.7-26.98-11.15-41.79a12.02 12.02 0 0 0 -4-12.06c-10.04-8.36-15.8-20.45-15.8-33.15 0-6.77 1.67-13.49 4.83-19.58a68.27 68.27 0 0 0 12.11 7.2c7.88 3.64 16.87-2.27 16.87-10.94a12 12 0 0 0 -6.94-10.87c-15.46-7.2-26.86-23.94-26.86-42.38a43.12 43.12 0 0 1 20.23-36.52 12.03 12.03 0 0 0 4.02-16.1 42.66 42.66 0 0 1 -5.8-21.18c0-24.57 20.25-46.13 43.35-46.13 8.45 0 16.54 2.9 23.4 7.8a12.03 12.03 0 0 0 14-19.59c-10.78-7.67-23.69-12.2-37.4-12.2-2.09 0-4.23.12-6.37.34a33.82 33.82 0 0 1 9.68-21.47 33.93 33.93 0 0 1 24.37-10.23c9.11 0 17.68 3.55 24.14 10a12.02 12.02 0 0 0 20.47-8.49c0-3.2-1.25-6.21-3.51-8.47a57.68 57.68 0 0 0 -27.75-15.48c8.63-10.86 20.63-17.23 32.78-17.23 23.1 0 43.35 21.56 43.35 46.13v55.82a12 12 0 0 0 23.99 0v-55.83c0-24.57 20.26-46.13 43.36-46.13 12.15 0 24.15 6.38 32.77 17.23a57.68 57.68 0 0 0 -27.35 15.08c-4.52 4.44-5.14 11.38-1.44 16.18a12.05 12.05 0 0 0 18 1.18 34 34 0 0 1 27.25-9.86c6.8.6 13.31 3.27 18.57 7.62a33.94 33.94 0 0 1 12.37 23.94 62.25 62.25 0 0 0 -6.37-.33c-15.2 0-29.45 5.6-40.88 14.89a11.43 11.43 0 0 0 -3.42 12.91l.4 1.05a11.49 11.49 0 0 0 18.04 4.8c7.33-6.02 16.35-9.67 25.86-9.67 23.1 0 43.36 21.56 43.36 46.13 0 7.27-1.96 14.4-5.82 21.22a11.9 11.9 0 0 0 3.98 16.02 43.12 43.12 0 0 1 20.29 36.57c0 18.44-11.4 35.17-26.86 42.38a12 12 0 0 0 -6.94 10.87c0 8.67 8.98 14.58 16.86 10.94m29.6-24.68a77.31 77.31 0 0 0 11.32-39.51 66.88 66.88 0 0 0 -22.82-50.38 65.24 65.24 0 0 0 4.37-23.42c0-26-14.53-50.3-37.1-62.4a58.12 58.12 0 0 0 -42.96-61.1c-11.36-24.95-35.74-41.63-61.08-41.63-21.82 0-42.65 11.67-55.35 30.76-12.7-19.08-33.53-30.76-55.35-30.76-25.33 0-49.69 16.65-61.08 41.63a58.12 58.12 0 0 0 -42.96 61.1c-22.6 12.15-37.1 36.43-37.1 62.4 0 7.99 1.47 15.86 4.36 23.42a66.86 66.86 0 0 0 -22.82 50.38 77.3 77.3 0 0 0 11.32 39.51 66.43 66.43 0 0 0 7.78 83.7c-2.76 19.3 3.17 39.18 16.4 54.77 12.8 15.1 30.83 23.83 49.56 24.05 13.88 22.8 38.75 36.9 65.31 36.9 25.99 0 50.3-14.16 64.58-37.34 14.22 23.15 38.57 37.34 64.57 37.34a76.75 76.75 0 0 0 65.3-36.9c36.19-.42 66.62-32.36 66.62-70.11 0-2.83-.2-5.68-.64-8.7a66.48 66.48 0 0 0 7.77-83.7" fill="#3c0a66"/><path d="m248.89 329.18c0 27.14-11.56 49.15-25.83 49.15-14.26 0-25.82-22-25.82-49.15s11.56-49.16 25.82-49.16c14.27 0 25.83 22 25.83 49.16" fill="#1c1c1b"/><path d="m243.06 310.35c0 11.7-4.85 21.17-10.83 21.17s-10.83-9.47-10.83-21.17c0-11.69 4.85-21.16 10.83-21.16s10.83 9.47 10.83 21.16m-25.74 13.52c0 4.23-1.75 7.65-3.91 7.65-2.17 0-3.92-3.42-3.92-7.65s1.75-7.66 3.91-7.66c2.17 0 3.92 3.43 3.92 7.66m11.92 18.63c0 4.23-1.76 7.66-3.92 7.66-2.17 0-3.92-3.43-3.92-7.66s1.75-7.65 3.92-7.65c2.16 0 3.92 3.42 3.92 7.65" fill="#fff"/><path d="m420.76 329.18c0 27.14-11.56 49.15-25.83 49.15-14.26 0-25.82-22-25.82-49.15s11.56-49.16 25.82-49.16c14.27 0 25.83 22 25.83 49.16" fill="#1c1c1b"/><path d="m414.93 310.35c0 11.7-4.85 21.17-10.83 21.17s-10.83-9.47-10.83-21.17c0-11.69 4.85-21.16 10.83-21.16s10.83 9.47 10.83 21.16m-25.73 13.52c0 4.23-1.76 7.65-3.93 7.65-2.16 0-3.91-3.42-3.91-7.65s1.75-7.66 3.91-7.66c2.17 0 3.92 3.43 3.92 7.66m11.91 18.63c0 4.23-1.75 7.66-3.91 7.66-2.17 0-3.92-3.43-3.92-7.66s1.75-7.65 3.92-7.65c2.16 0 3.92 3.42 3.92 7.65" fill="#fff"/></g><path d="m221.13 254.04s-21.42-4.35-26.81 17.2m197.91-17.2s21.42-4.35 26.81 17.2" fill="none" stroke="#1c1c1b" stroke-width="4.91"/><path d="m350.22 401.94s-42.29-10.2-82.44 9.5" fill="none" stroke="#1c1c1b" stroke-width="7.08"/></svg>