<?xml version="1.0" encoding="UTF-8" standalone="no"?><!DOCTYPE svg PUBLIC "-//W3C//DTD SVG 1.1//EN" "http://www.w3.org/Graphics/SVG/1.1/DTD/svg11.dtd"><svg width="100%" height="100%" viewBox="0 0 1792 1609" version="1.1" xmlns="http://www.w3.org/2000/svg" xmlns:xlink="http://www.w3.org/1999/xlink" xml:space="preserve" xmlns:serif="http://www.serif.com/" style="fill-rule:evenodd;clip-rule:evenodd;stroke-linejoin:round;stroke-miterlimit:2;"><g><g><path d="M277.649,1232.37c2.962,3.246 4.446,7.554 4.446,12.917l-0,268.116c-0,5.084 -1.413,9.175 -4.234,12.284c-2.829,3.104 -6.779,4.658 -11.862,4.658c-5.084,-0 -8.896,-1.554 -11.434,-4.658c-2.541,-3.109 -3.812,-7.2 -3.812,-12.284l-0,-216.441l-91.917,176.2c-3.958,8.195 -9.741,12.287 -17.366,12.287c-7.342,0 -13.13,-4.092 -17.367,-12.287l-92.338,-174.08l0,214.321c0,5.084 -1.341,9.175 -4.025,12.284c-2.683,3.104 -6.562,4.658 -11.641,4.658c-5.084,-0 -9.042,-1.554 -11.863,-4.658c-2.829,-3.109 -4.237,-7.2 -4.237,-12.284l-0,-268.116c-0,-5.363 1.55,-9.671 4.658,-12.917c3.108,-3.242 7.342,-4.875 12.708,-4.875c7.059,-0 12.709,4.096 16.946,12.283l107.584,206.275l106.316,-206.275c2.259,-4.516 4.721,-7.691 7.413,-9.529c2.679,-1.833 5.854,-2.754 9.529,-2.754c5.358,-0 9.529,1.633 12.496,4.875" style="fill:#fff;fill-rule:nonzero;"/><path d="M514.628,1318.14c4.237,-0 8.05,1.416 11.437,4.237c3.388,2.821 5.084,6.35 5.084,10.588c-0,2.537 -0.571,4.8 -1.696,6.775l-119.021,256.679c-1.421,3.104 -3.462,5.508 -6.142,7.204c-2.687,1.692 -5.441,2.542 -8.262,2.542c-4.233,-0 -7.979,-1.346 -11.221,-4.025c-3.25,-2.688 -4.871,-6.142 -4.871,-10.379c0,-2.263 0.563,-4.521 1.692,-6.775l29.65,-63.963l-83.867,-181.283c-1.129,-1.975 -1.696,-4.092 -1.696,-6.354c0,-4.234 1.909,-7.9 5.721,-11.009c3.813,-3.108 7.975,-4.666 12.496,-4.666c2.817,-0 5.571,0.854 8.258,2.545c2.68,1.692 4.725,4.096 6.142,7.196l70.738,158.838l70.733,-157.988c3.104,-6.779 8.046,-10.162 14.825,-10.162" style="fill:#fff;fill-rule:nonzero;"/><path d="M638.729,1415.99l111.821,0l-55.909,-125.8l-55.912,125.8Zm203.733,90.642c0,6.496 -2.608,12.004 -7.833,16.521c-5.229,4.52 -11.225,6.779 -18.004,6.779c-4.521,-0 -8.75,-1.209 -12.705,-3.609c-3.958,-2.391 -7.062,-6.137 -9.32,-11.22l-25.409,-56.759l-149.1,0l-25.412,56.759c-2.263,5.083 -5.367,8.829 -9.321,11.22c-3.958,2.4 -8.333,3.609 -13.129,3.609c-6.5,-0 -12.425,-2.259 -17.788,-6.779c-5.371,-4.517 -8.05,-10.025 -8.05,-16.521c0,-3.667 0.846,-7.342 2.542,-11.017l116.904,-251.171c2.542,-5.646 6.421,-9.954 11.65,-12.916c5.221,-2.967 10.8,-4.45 16.729,-4.45c5.929,-0 11.504,1.483 16.734,4.45c5.22,2.962 9.104,7.27 11.645,12.916l117.33,251.171c1.691,3.675 2.537,7.35 2.537,11.017" style="fill:#fff;fill-rule:nonzero;"/><path d="M1093.21,1378.71c-0,-69.742 -34.308,-104.617 -102.929,-104.617l-52.096,0l-0,209.663l52.096,-0c68.621,-0 102.929,-35.009 102.929,-105.046m-202.679,142.746c-4.659,-4.517 -6.988,-10.875 -6.988,-19.063l0,-246.941c0,-8.188 2.329,-14.538 6.988,-19.059c4.662,-4.512 11.083,-6.779 19.271,-6.779l83.866,0c48.85,0 86.763,13.067 113.729,39.179c26.963,26.125 40.45,62.767 40.45,109.917c0,47.442 -13.487,84.221 -40.45,110.337c-26.966,26.125 -64.879,39.184 -113.729,39.184l-83.866,-0c-8.188,-0 -14.609,-2.259 -19.271,-6.775" style="fill:#fff;fill-rule:nonzero;"/><path d="M1455.78,1234.91c4.796,4.942 7.204,11.508 7.204,19.7l0,248.625c0,8.196 -2.479,14.825 -7.416,19.913c-4.942,5.079 -11.367,7.62 -19.271,7.62c-8.196,0 -14.684,-2.541 -19.488,-7.62c-4.804,-5.088 -7.196,-11.717 -7.196,-19.913l0,-104.617l-152.908,0l0,104.617c0,8.196 -2.475,14.825 -7.412,19.913c-4.942,5.079 -11.509,7.62 -19.696,7.62c-7.913,0 -14.338,-2.541 -19.271,-7.62c-4.946,-5.088 -7.413,-11.717 -7.413,-19.913l0,-248.625c0,-8.192 2.396,-14.758 7.2,-19.7c4.796,-4.942 11.288,-7.412 19.484,-7.412c8.187,-0 14.754,2.47 19.696,7.412c4.937,4.942 7.412,11.508 7.412,19.7l0,99.958l152.908,0l0,-99.958c0,-8.192 2.392,-14.758 7.196,-19.7c4.804,-4.942 11.292,-7.412 19.488,-7.412c8.187,-0 14.679,2.47 19.483,7.412" style="fill:#fff;fill-rule:nonzero;"/><path d="M1737.03,1378.71c-0,-69.742 -34.308,-104.617 -102.929,-104.617l-52.096,0l-0,209.663l52.096,-0c68.621,-0 102.929,-35.009 102.929,-105.046m-202.679,142.746c-4.659,-4.517 -6.988,-10.875 -6.988,-19.063l0,-246.941c0,-8.188 2.329,-14.538 6.988,-19.059c4.662,-4.512 11.083,-6.779 19.271,-6.779l83.866,0c48.85,0 86.763,13.067 113.729,39.179c26.963,26.125 40.45,62.767 40.45,109.917c0,47.442 -13.487,84.221 -40.45,110.337c-26.966,26.125 -64.879,39.184 -113.729,39.184l-83.866,-0c-8.188,-0 -14.609,-2.259 -19.271,-6.775" style="fill:#fff;fill-rule:nonzero;"/></g><g><path d="M922.438,182.275l-0,123.862c-0,14.692 -11.913,26.605 -26.609,26.605c-14.7,-0 -26.608,-11.913 -26.608,-26.605l-0,-123.862c-0,-54.508 -44.942,-102.338 -96.196,-102.338c-26.954,0 -53.562,14.117 -72.721,38.213c23.229,5.421 44.371,17.171 61.571,34.342c5.013,5.012 7.796,11.683 7.796,18.808c-0,7.104 -2.767,13.775 -7.779,18.808c-10.379,10.375 -27.263,10.375 -37.642,0.021c-14.325,-14.304 -33.337,-22.183 -53.558,-22.183c-20.492,-0 -39.688,8.062 -54.075,22.696c-12.729,12.954 -20.225,29.675 -21.471,47.625c4.75,-0.492 9.496,-0.734 14.142,-0.734c30.416,0 59.058,10.042 82.97,27.05c9.871,7.021 13.705,19.875 9.413,31.2c-6.213,16.388 -26.233,22.442 -40.496,12.263c-15.204,-10.854 -33.137,-17.304 -51.887,-17.304c-51.246,-0 -96.192,47.833 -96.192,102.337c-0,16.108 4.337,31.908 12.871,46.992c7.021,12.404 3.096,28.104 -8.925,35.716c-28.096,17.83 -44.884,48.117 -44.884,81.03c0,40.904 25.309,78.041 59.596,94.033c9.375,4.375 15.396,13.746 15.396,24.1c0,19.25 -19.937,32.346 -37.417,24.279c-9.375,-4.325 -18.391,-9.671 -26.866,-15.967c-7.021,13.509 -10.709,28.409 -10.709,43.434c0,28.179 12.775,54.991 35.063,73.558c7.821,6.504 11.237,16.842 8.858,26.75c-7.875,32.85 1.129,66.642 24.729,92.713c20.709,22.879 49.263,34.958 74.584,31.479c1.491,-0.184 2.966,-0.392 4.458,-0.55c11.4,-1.292 22.308,4.829 27.138,15.225c19.137,41.2 60.562,67.829 105.57,67.829c46.255,-0 89.609,-30.929 107.842,-76.938c5.875,-14.816 19.771,-24.395 35.429,-24.395c15.659,-0 29.55,9.579 35.429,24.395c18.234,46.009 61.584,76.938 107.842,76.938c44.9,-0 86.246,-26.488 105.425,-67.525c4.888,-10.458 15.796,-16.842 27.279,-15.554c1.496,0.183 2.967,0.391 4.467,0.575c21.75,2.987 45.617,-5.221 65.429,-22.513c23.438,-20.446 36.858,-49.304 36.858,-79.187c0,-6.838 -0.937,-13.979 -2.983,-22.475c-2.35,-9.821 1.125,-20.342 8.879,-26.809c22.271,-18.541 35.042,-45.358 35.042,-73.516c-0,-15.025 -3.683,-29.925 -10.704,-43.434c-8.479,6.296 -17.496,11.642 -26.863,15.967c-17.487,8.067 -37.429,-5.029 -37.429,-24.279c0,-10.35 6.025,-19.725 15.404,-24.1c34.284,-15.992 59.592,-53.129 59.592,-94.033c-0,-32.955 -16.825,-63.288 -45.008,-81.113c-12.055,-7.612 -15.884,-23.15 -8.838,-35.55c8.575,-15.104 12.908,-30.946 12.908,-47.075c0,-54.504 -44.941,-102.337 -96.195,-102.337c-21.084,-0 -41.105,8.1 -57.367,21.429c-13.492,11.062 -33.838,5.696 -40.021,-10.621l-0.879,-2.321c-3.863,-10.192 -0.892,-21.8 7.567,-28.662c25.375,-20.605 56.979,-33.034 90.7,-33.034c4.65,0 9.4,0.242 14.145,0.734c-1.433,-20.613 -11.091,-39.563 -27.445,-53.109c-11.667,-9.662 -26.113,-15.579 -41.196,-16.908c-22.763,-2.004 -44.521,5.958 -60.463,21.879c-5.404,5.404 -12.879,8.229 -20.508,7.713c-7.633,-0.467 -14.692,-4.255 -19.421,-10.334c-8.208,-10.637 -6.837,-26.054 3.192,-35.896c17.004,-16.683 37.846,-28.125 60.683,-33.462c-19.137,-24.075 -45.767,-38.213 -72.717,-38.213c-51.254,0 -96.195,47.83 -96.195,102.338Zm137.887,451.167c-41.204,-0.859 -79.762,-17.213 -108.579,-46.025c-10.379,-10.38 -10.379,-27.263 -0,-37.621c5.033,-5.038 11.704,-7.8 18.808,-7.8c7.125,-0 13.792,2.762 18.829,7.8c18.38,18.383 44.33,29.371 71.225,30.15c26.767,0.754 51.967,-8.642 69.155,-25.813c10.362,-10.375 27.245,-10.375 37.62,0c10.38,10.379 10.38,27.246 0,37.617c-26.975,27 -63.67,41.733 -103.641,41.733c-1.15,0 -2.279,0 -3.417,-0.041Zm-329.275,-53.496c26.892,-0.779 52.842,-11.767 71.246,-30.15c10.354,-10.375 27.242,-10.375 37.617,-0.021c10.375,10.396 10.375,27.262 -0,37.642c-28.817,28.812 -67.38,45.166 -108.575,46.025c-1.15,0.041 -2.296,0.041 -3.421,0.041c-39.975,0 -76.65,-14.733 -103.646,-41.733c-5.013,-5.008 -7.796,-11.704 -7.796,-18.804c0,-7.104 2.783,-13.796 7.796,-18.813c2.521,-2.516 5.446,-4.458 8.642,-5.787c3.166,-1.309 6.604,-2.009 10.166,-2.009c7.121,0 13.796,2.763 18.829,7.796c16.517,16.517 40.434,25.859 66.071,25.859c1.021,-0 2.046,-0.017 3.071,-0.046Z" style="fill:url(#_Linear1);fill-rule:nonzero;"/><path d="M895.833,55.796c-32.596,-34.029 -76.662,-53.634 -122.8,-53.634c-32.529,0 -64.746,10.246 -93.183,29.663c-24.963,17.017 -45.404,40.004 -59.65,66.908c-61.008,21.2 -102.025,78.121 -103.008,142.263c-22.684,14.921 -41.884,35.017 -56.055,58.804c-16.9,28.363 -25.829,60.608 -25.829,93.279c0,15.225 2.071,30.292 6.159,45.025c-30.105,31.988 -47.075,74.413 -47.075,118.713c-0,29.52 7.637,60.516 21.245,87.212c-13.937,25.433 -21.245,53.704 -21.245,82.663c-0,41.175 14.591,80.471 41.337,111.846c-3.287,45.95 12.15,92.387 43.246,129.05c29.921,35.254 71.237,57.129 114.996,61.291c36.216,51.259 95.821,82.588 158.591,82.588c32.555,-0 64.963,-8.792 93.684,-25.45c18.496,-10.696 35.254,-24.538 49.562,-40.8c14.313,16.262 31.071,30.083 49.546,40.771c28.742,16.666 61.171,25.479 93.75,25.479c62.771,-0 122.371,-31.329 158.596,-82.563c40.537,-3.808 78.492,-22.537 108.079,-53.654c32.6,-34.292 50.554,-78.942 50.554,-125.762c0,-3.617 -0.116,-7.259 -0.396,-10.95c26.746,-31.405 41.338,-70.671 41.338,-111.846c-0,-28.959 -7.313,-57.229 -21.246,-82.663c13.604,-26.696 21.246,-57.716 21.246,-87.212c-0,-44.279 -16.992,-86.7 -47.075,-118.713c4.067,-14.733 6.133,-29.8 6.133,-45.025c0,-32.696 -8.933,-64.962 -25.829,-93.354c-14.171,-23.783 -33.375,-43.854 -56.029,-58.729c-0.958,-64.142 -41.971,-121.038 -102.983,-142.263c-14.221,-26.883 -34.667,-49.845 -59.625,-66.883c-28.463,-19.417 -60.709,-29.687 -93.234,-29.687c-46.158,-0 -90.204,19.604 -122.8,53.633Zm122.8,-29.071c56.221,0 110.313,37 135.509,92.363c60.52,16.15 100.72,73.458 95.295,135.558c50.105,26.85 82.338,80.758 82.338,138.433c-0,17.721 -3.275,35.184 -9.7,51.963c32.233,28.333 50.637,68.791 50.637,111.775c0,29.941 -9.333,62.383 -25.12,87.662c16.437,24.6 25.12,52.925 25.12,82.217c0,38.762 -15.029,75.396 -42.37,103.479c0.966,6.708 1.433,13.038 1.433,19.321c-0,83.75 -67.521,154.604 -147.792,155.55c-30.758,50.596 -85.958,81.871 -144.883,81.871c-57.7,-0 -111.713,-31.479 -143.271,-82.859c-31.662,51.442 -85.612,82.859 -143.271,82.859c-58.925,-0 -114.1,-31.275 -144.883,-81.871c-41.571,-0.492 -81.563,-19.871 -109.971,-53.354c-29.346,-34.596 -42.512,-78.704 -36.392,-121.517c-27.341,-28.083 -42.366,-64.717 -42.366,-103.479c-0,-29.292 8.679,-57.617 25.116,-82.217c-15.783,-25.279 -25.116,-57.721 -25.116,-87.662c-0,-42.984 18.4,-83.467 50.633,-111.775c-6.425,-16.779 -9.7,-34.242 -9.7,-51.963c0,-57.616 32.192,-111.483 82.342,-138.433c-5.384,-62.163 34.791,-119.408 95.308,-135.558c25.258,-55.426 79.317,-92.363 135.496,-92.363c48.429,0 94.642,25.908 122.804,68.233c28.183,-42.346 74.396,-68.233 122.804,-68.233Z" style="fill:url(#_Linear2);fill-rule:nonzero;"/></g></g><defs><linearGradient id="_Linear1" x1="0" y1="0" x2="1" y2="0" gradientUnits="userSpaceOnUse" gradientTransform="matrix(0,-953.764,953.764,-0,895.828,1033.7)"><stop offset="0" style="stop-color:#f76ff7;stop-opacity:1"/><stop offset="0.81" style="stop-color:#9534fb;stop-opacity:1"/><stop offset="1" style="stop-color:#4102fe;stop-opacity:1"/></linearGradient><linearGradient id="_Linear2" x1="0" y1="0" x2="1" y2="0" gradientUnits="userSpaceOnUse" gradientTransform="matrix(0,-1109.3,1109.3,-0,895.833,1111.47)"><stop offset="0" style="stop-color:#f76ff7;stop-opacity:1"/><stop offset="0.81" style="stop-color:#9534fb;stop-opacity:1"/><stop offset="1" style="stop-color:#4102fe;stop-opacity:1"/></linearGradient></defs></svg>