<svg width="100%" height="100%" viewBox="0 0 1240 1240" version="1.1" xmlns="http://www.w3.org/2000/svg" xmlns:xlink="http://www.w3.org/1999/xlink" xml:space="preserve" xmlns:serif="http://www.serif.com/" fill-rule="evenodd" clip-rule="evenodd" stroke-linejoin="round" stroke-miterlimit="1.41421"><g><g><path d="M758.795,1046.43l-102.612,0c-3.82,0 -6.912,-3.091 -6.912,-6.911c0,-3.82 3.092,-6.91 6.912,-6.91l102.612,0c3.819,0 6.91,3.09 6.91,6.91c0,3.82 -3.091,6.911 -6.91,6.911Z" fill="#26bdff" fill-rule="nonzero"/><path d="M740.928,1018.48l-97.278,0c-3.819,0 -6.911,-3.09 -6.911,-6.91c0,-3.82 3.092,-6.91 6.911,-6.91l97.278,0c3.819,0 6.911,3.09 6.911,6.91c0,3.82 -3.092,6.91 -6.911,6.91Zm86.773,0l-40.727,0c-3.82,0 -6.911,-3.09 -6.911,-6.91c0,-3.82 3.091,-6.91 6.911,-6.91l40.727,0c3.82,0 6.911,3.09 6.911,6.91c0,3.82 -3.091,6.91 -6.911,6.91Z" fill="#26bdff" fill-rule="nonzero"/><path d="M704.254,990.514l-61.625,0c-3.819,0 -6.911,-3.092 -6.911,-6.911c0,-3.819 3.092,-6.911 6.911,-6.911l61.625,0c3.819,0 6.911,3.092 6.911,6.911c0,3.819 -3.092,6.911 -6.911,6.911Zm148.821,0l-88.376,0c-3.819,0 -6.91,-3.092 -6.91,-6.911c0,-3.819 3.091,-6.911 6.91,-6.911l88.376,0c3.82,0 6.91,3.092 6.91,6.911c0,3.819 -3.09,6.911 -6.91,6.911Z" fill="#26bdff" fill-rule="nonzero"/><path d="M658.486,962.561l-15.857,0c-3.819,0 -6.911,-3.092 -6.911,-6.912c0,-3.819 3.092,-6.911 6.911,-6.911l15.857,0c3.82,0 6.91,3.092 6.91,6.911c0,3.82 -3.09,6.912 -6.91,6.912Zm170.392,0l-99.224,0c-3.819,0 -6.911,-3.092 -6.911,-6.912c0,-3.819 3.092,-6.911 6.911,-6.911l99.224,0c3.819,0 6.911,3.092 6.911,6.911c0,3.82 -3.092,6.912 -6.911,6.912Z" fill="#26bdff" fill-rule="nonzero"/><path d="M814.184,934.597l-171.555,0c-3.819,0 -6.911,-3.092 -6.911,-6.911c0,-3.82 3.092,-6.912 6.911,-6.912l171.555,0c3.819,0 6.908,3.092 6.908,6.912c0,3.819 -3.089,6.911 -6.908,6.911Zm103.883,0l-63.868,0c-3.816,0 -6.908,-3.092 -6.908,-6.911c0,-3.82 3.092,-6.912 6.908,-6.912l63.868,0c3.82,0 6.912,3.092 6.912,6.912c0,3.819 -3.092,6.911 -6.912,6.911Z" fill="#26bdff" fill-rule="nonzero"/><path d="M757.521,906.633l-114.892,0c-3.819,0 -6.911,-3.092 -6.911,-6.908c0,-3.82 3.092,-6.912 6.911,-6.912l114.892,0c3.819,0 6.911,3.092 6.911,6.912c0,3.816 -3.092,6.908 -6.911,6.908Zm186.023,0l-99.111,0c-3.82,0 -6.911,-3.092 -6.911,-6.908c0,-3.82 3.091,-6.912 6.911,-6.912l99.111,0c3.819,0 6.91,3.092 6.91,6.912c0,3.816 -3.091,6.908 -6.91,6.908Z" fill="#26bdff" fill-rule="nonzero"/><path d="M709.449,878.68l-66.82,0c-3.819,0 -6.911,-3.092 -6.911,-6.911c0,-3.82 3.092,-6.912 6.911,-6.912l66.82,0c3.82,0 6.911,3.092 6.911,6.912c0,3.819 -3.091,6.911 -6.911,6.911Zm248.271,0l-114.421,0c-3.82,0 -6.911,-3.092 -6.911,-6.911c0,-3.82 3.091,-6.912 6.911,-6.912l114.421,0c3.819,0 6.911,3.092 6.911,6.912c0,3.819 -3.092,6.911 -6.911,6.911Z" fill="#26bdff" fill-rule="nonzero"/><path d="M689.29,850.716l-46.661,0c-3.819,0 -6.911,-3.092 -6.911,-6.908c0,-3.82 3.092,-6.912 6.911,-6.912l46.661,0c3.818,0 6.91,3.092 6.91,6.912c0,3.816 -3.092,6.908 -6.91,6.908Zm123.3,0l-79.455,0c-3.82,0 -6.911,-3.092 -6.911,-6.908c0,-3.82 3.091,-6.912 6.911,-6.912l79.455,0c3.819,0 6.91,3.092 6.91,6.912c0,3.816 -3.091,6.908 -6.91,6.908Zm152.224,0l-104.319,0c-3.819,0 -6.91,-3.092 -6.91,-6.908c0,-3.82 3.091,-6.912 6.91,-6.912l104.319,0c3.82,0 6.91,3.092 6.91,6.912c0,3.816 -3.09,6.908 -6.91,6.908Z" fill="#26bdff" fill-rule="nonzero"/><path d="M678.985,822.756l-36.356,0c-3.819,0 -6.911,-3.096 -6.911,-6.912c0,-3.818 3.092,-6.914 6.911,-6.914l36.356,0c3.819,0 6.911,3.096 6.911,6.914c0,3.816 -3.092,6.912 -6.911,6.912Zm154.337,0l-116.355,0c-3.82,0 -6.91,-3.096 -6.91,-6.912c0,-3.818 3.09,-6.914 6.91,-6.914l116.355,0c3.82,0 6.91,3.096 6.91,6.914c0,3.816 -3.09,6.912 -6.91,6.912Zm131.942,0l-95.804,0c-3.819,0 -6.91,-3.096 -6.91,-6.912c0,-3.818 3.091,-6.914 6.91,-6.914l95.804,0c3.819,0 6.911,3.096 6.911,6.914c0,3.816 -3.092,6.912 -6.911,6.912Z" fill="#26bdff" fill-rule="nonzero"/><path d="M675.399,794.797l-32.77,0c-3.819,0 -6.911,-3.096 -6.911,-6.912c0,-3.817 3.092,-6.914 6.911,-6.914l32.77,0c3.82,0 6.912,3.097 6.912,6.914c0,3.816 -3.092,6.912 -6.912,6.912Zm87.578,0l-51.796,0c-3.82,0 -6.909,-3.096 -6.909,-6.912c0,-3.817 3.089,-6.914 6.909,-6.914l51.796,0c3.819,0 6.911,3.097 6.911,6.914c0,3.816 -3.092,6.912 -6.911,6.912Zm188.344,0l-152.546,0c-3.819,0 -6.908,-3.096 -6.908,-6.912c0,-3.817 3.089,-6.914 6.908,-6.914l152.546,0c3.82,0 6.911,3.097 6.911,6.914c0,3.816 -3.091,6.912 -6.911,6.912Z" fill="#26bdff" fill-rule="nonzero"/><path d="M773.428,766.837l-130.799,0c-3.819,0 -6.911,-3.097 -6.911,-6.914c0,-3.817 3.092,-6.912 6.911,-6.912l130.799,0c3.819,0 6.911,3.095 6.911,6.912c0,3.817 -3.092,6.914 -6.911,6.914Zm140.172,0l-92.09,0c-3.82,0 -6.911,-3.097 -6.911,-6.914c0,-3.817 3.091,-6.912 6.911,-6.912l92.09,0c3.819,0 6.91,3.095 6.91,6.912c0,3.817 -3.091,6.914 -6.91,6.914Z" fill="#26bdff" fill-rule="nonzero"/><path d="M798.371,738.876l-155.742,0c-3.819,0 -6.911,-3.096 -6.911,-6.912c0,-3.818 3.092,-6.914 6.911,-6.914l155.742,0c3.817,0 6.908,3.096 6.908,6.914c0,3.816 -3.091,6.912 -6.908,6.912Zm196.52,0l-57.147,0c-3.819,0 -6.911,-3.096 -6.911,-6.912c0,-3.818 3.092,-6.914 6.911,-6.914l57.147,0c3.819,0 6.909,3.096 6.909,6.914c0,3.816 -3.09,6.912 -6.909,6.912Z" fill="#26bdff" fill-rule="nonzero"/><path d="M817.612,710.917l-174.983,0c-3.819,0 -6.911,-3.096 -6.911,-6.912c0,-3.817 3.092,-6.913 6.911,-6.913l174.983,0c3.819,0 6.91,3.096 6.91,6.913c0,3.816 -3.091,6.912 -6.91,6.912Zm192.038,0l-151.188,0c-3.819,0 -6.91,-3.096 -6.91,-6.912c0,-3.817 3.091,-6.913 6.91,-6.913l151.188,0c3.82,0 6.91,3.096 6.91,6.913c0,3.816 -3.09,6.912 -6.91,6.912Z" fill="#26bdff" fill-rule="nonzero"/><path d="M808.797,682.956l-166.168,0c-3.819,0 -6.911,-3.096 -6.911,-6.912c0,-3.817 3.092,-6.914 6.911,-6.914l166.168,0c3.818,0 6.911,3.097 6.911,6.914c0,3.816 -3.093,6.912 -6.911,6.912Zm210.983,0l-173.529,0c-3.819,0 -6.911,-3.096 -6.911,-6.912c0,-3.817 3.092,-6.914 6.911,-6.914l173.529,0c3.82,0 6.909,3.097 6.909,6.914c0,3.816 -3.089,6.912 -6.909,6.912Z" fill="#26bdff" fill-rule="nonzero"/><path d="M806.233,654.996l-163.604,0c-3.819,0 -6.911,-3.096 -6.911,-6.914c0,-3.816 3.092,-6.912 6.911,-6.912l163.604,0c3.819,0 6.911,3.096 6.911,6.912c0,3.818 -3.092,6.914 -6.911,6.914Zm219.157,0l-182.619,0c-3.82,0 -6.912,-3.096 -6.912,-6.914c0,-3.816 3.092,-6.912 6.912,-6.912l182.619,0c3.819,0 6.91,3.096 6.91,6.912c0,3.818 -3.091,6.914 -6.91,6.914Z" fill="#26bdff" fill-rule="nonzero"/><path d="M756.317,627.038l-113.688,0c-3.819,0 -6.911,-3.095 -6.911,-6.912c0,-3.816 3.092,-6.912 6.911,-6.912l113.688,0c3.82,0 6.912,3.096 6.912,6.912c0,3.817 -3.092,6.912 -6.912,6.912Zm270.022,0l-178.347,0c-3.819,0 -6.911,-3.095 -6.911,-6.912c0,-3.816 3.092,-6.912 6.911,-6.912l178.347,0c3.821,0 6.911,3.096 6.911,6.912c0,3.817 -3.09,6.912 -6.911,6.912Z" fill="#26bdff" fill-rule="nonzero"/><path d="M725.229,599.079l-82.6,0c-3.819,0 -6.911,-3.096 -6.911,-6.914c0,-3.816 3.092,-6.912 6.911,-6.912l82.6,0c3.818,0 6.91,3.096 6.91,6.912c0,3.818 -3.092,6.914 -6.91,6.914Zm95.794,0l-41.194,0c-3.819,0 -6.91,-3.096 -6.91,-6.914c0,-3.816 3.091,-6.912 6.91,-6.912l41.194,0c3.82,0 6.912,3.096 6.912,6.912c0,3.818 -3.092,6.914 -6.912,6.914Zm201.257,0l-173.632,0c-3.818,0 -6.91,-3.096 -6.91,-6.914c0,-3.816 3.092,-6.912 6.91,-6.912l173.632,0c3.82,0 6.909,3.096 6.909,6.912c0,3.818 -3.089,6.914 -6.909,6.914Z" fill="#26bdff" fill-rule="nonzero"/><path d="M705.381,571.117l-62.752,0c-3.819,0 -6.911,-3.096 -6.911,-6.912c0,-3.816 3.092,-6.913 6.911,-6.913l62.752,0c3.816,0 6.908,3.097 6.908,6.913c0,3.816 -3.092,6.912 -6.908,6.912Zm307.209,0l-263.165,0c-3.819,0 -6.91,-3.096 -6.91,-6.912c0,-3.816 3.091,-6.913 6.91,-6.913l263.165,0c3.82,0 6.91,3.097 6.91,6.913c0,3.816 -3.09,6.912 -6.91,6.912Z" fill="#26bdff" fill-rule="nonzero"/><path d="M693.169,543.159l-50.54,0c-3.819,0 -6.911,-3.096 -6.911,-6.912c0,-3.817 3.092,-6.914 6.911,-6.914l50.54,0c3.819,0 6.911,3.097 6.911,6.914c0,3.816 -3.092,6.912 -6.911,6.912Zm303.253,0l-264.189,0c-3.819,0 -6.911,-3.096 -6.911,-6.912c0,-3.817 3.092,-6.914 6.911,-6.914l264.189,0c3.818,0 6.908,3.097 6.908,6.914c0,3.816 -3.09,6.912 -6.908,6.912Z" fill="#26bdff" fill-rule="nonzero"/><path d="M686.744,515.199l-44.115,0c-3.819,0 -6.911,-3.097 -6.911,-6.913c0,-3.817 3.092,-6.913 6.911,-6.913l44.115,0c3.819,0 6.911,3.096 6.911,6.913c0,3.816 -3.092,6.913 -6.911,6.913Zm154.752,0l-117.836,0c-3.819,0 -6.911,-3.097 -6.911,-6.913c0,-3.817 3.092,-6.913 6.911,-6.913l117.836,0c3.819,0 6.911,3.096 6.911,6.913c0,3.816 -3.092,6.913 -6.911,6.913Z" fill="#26bdff" fill-rule="nonzero"/><path d="M767.308,487.24l-124.679,0c-3.819,0 -6.911,-3.096 -6.911,-6.913c0,-3.817 3.092,-6.912 6.911,-6.912l124.679,0c3.819,0 6.908,3.095 6.908,6.912c0,3.817 -3.089,6.913 -6.908,6.913Zm228.578,0l-178.334,0c-3.82,0 -6.911,-3.096 -6.911,-6.913c0,-3.817 3.091,-6.912 6.911,-6.912l178.334,0c3.819,0 6.914,3.095 6.914,6.912c0,3.817 -3.095,6.913 -6.914,6.913Z" fill="#26bdff" fill-rule="nonzero"/><path d="M794.032,459.279l-151.403,0c-3.819,0 -6.911,-3.096 -6.911,-6.914c0,-3.816 3.092,-6.912 6.911,-6.912l151.403,0c3.82,0 6.91,3.096 6.91,6.912c0,3.818 -3.09,6.914 -6.91,6.914Zm202.789,0l-158.122,0c-3.819,0 -6.911,-3.096 -6.911,-6.914c0,-3.816 3.092,-6.912 6.911,-6.912l158.122,0c3.819,0 6.909,3.096 6.909,6.912c0,3.818 -3.09,6.914 -6.909,6.914Z" fill="#26bdff" fill-rule="nonzero"/><path d="M811.741,431.317l-169.112,0c-3.819,0 -6.911,-3.095 -6.911,-6.912c0,-3.816 3.092,-6.913 6.911,-6.913l169.112,0c3.82,0 6.911,3.097 6.911,6.913c0,3.817 -3.091,6.912 -6.911,6.912Zm182.49,0l-143.702,0c-3.819,0 -6.91,-3.095 -6.91,-6.912c0,-3.816 3.091,-6.913 6.91,-6.913l143.702,0c3.82,0 6.909,3.097 6.909,6.913c0,3.817 -3.089,6.912 -6.909,6.912Z" fill="#26bdff" fill-rule="nonzero"/><path d="M798.066,403.359l-155.437,0c-3.819,0 -6.911,-3.095 -6.911,-6.912c0,-3.817 3.092,-6.913 6.911,-6.913l155.437,0c3.82,0 6.912,3.096 6.912,6.913c0,3.817 -3.092,6.912 -6.912,6.912Zm189.005,0l-129.788,0c-3.819,0 -6.911,-3.095 -6.911,-6.912c0,-3.817 3.092,-6.913 6.911,-6.913l129.788,0c3.817,0 6.91,3.096 6.91,6.913c0,3.817 -3.093,6.912 -6.91,6.912Z" fill="#26bdff" fill-rule="nonzero"/><path d="M758.795,375.399l-116.166,0c-3.819,0 -6.911,-3.097 -6.911,-6.913c0,-3.817 3.092,-6.913 6.911,-6.913l116.166,0c3.819,0 6.91,3.096 6.91,6.913c0,3.816 -3.091,6.913 -6.91,6.913Zm214.801,0l-72.962,0c-3.82,0 -6.908,-3.097 -6.908,-6.913c0,-3.817 3.088,-6.913 6.908,-6.913l72.962,0c3.819,0 6.911,3.096 6.911,6.913c0,3.816 -3.092,6.913 -6.911,6.913Z" fill="#26bdff" fill-rule="nonzero"/><path d="M877.096,347.44l-234.467,0c-3.819,0 -6.911,-3.096 -6.911,-6.913c0,-3.817 3.092,-6.912 6.911,-6.912l234.467,0c3.819,0 6.911,3.095 6.911,6.912c0,3.817 -3.092,6.913 -6.911,6.913Zm73.456,0l-29.359,0c-3.819,0 -6.911,-3.096 -6.911,-6.913c0,-3.817 3.092,-6.912 6.911,-6.912l29.359,0c3.819,0 6.911,3.095 6.911,6.912c0,3.817 -3.092,6.913 -6.911,6.913Z" fill="#26bdff" fill-rule="nonzero"/><path d="M895.11,319.479l-252.481,0c-3.819,0 -6.911,-3.095 -6.911,-6.912c0,-3.818 3.092,-6.913 6.911,-6.913l252.481,0c3.82,0 6.911,3.095 6.911,6.913c0,3.817 -3.091,6.912 -6.911,6.912Z" fill="#26bdff" fill-rule="nonzero"/><path d="M683.133,291.518l-40.504,0c-3.819,0 -6.911,-3.096 -6.911,-6.912c0,-3.816 3.092,-6.914 6.911,-6.914l40.504,0c3.819,0 6.91,3.098 6.91,6.914c0,3.816 -3.091,6.912 -6.91,6.912Zm208.859,0l-172.386,0c-3.819,0 -6.91,-3.096 -6.91,-6.912c0,-3.816 3.091,-6.914 6.91,-6.914l172.386,0c3.82,0 6.911,3.098 6.911,6.914c0,3.816 -3.091,6.912 -6.911,6.912Z" fill="#26bdff" fill-rule="nonzero"/><path d="M688.588,263.56l-45.872,0c-3.82,0 -6.911,-3.096 -6.911,-6.913c0,-3.816 3.091,-6.913 6.911,-6.913l45.872,0c3.819,0 6.911,3.097 6.911,6.913c0,3.817 -3.092,6.913 -6.911,6.913Zm181.001,0l-140.5,0c-3.819,0 -6.908,-3.096 -6.908,-6.913c0,-3.816 3.089,-6.913 6.908,-6.913l140.5,0c3.819,0 6.911,3.097 6.911,6.913c0,3.817 -3.092,6.913 -6.911,6.913Z" fill="#26bdff" fill-rule="nonzero"/><path d="M704.186,235.6l-53.788,0c-3.819,0 -6.911,-3.096 -6.911,-6.914c0,-3.817 3.092,-6.913 6.911,-6.913l53.788,0c3.816,0 6.911,3.096 6.911,6.913c0,3.818 -3.095,6.914 -6.911,6.914Zm121.713,0l-68.517,0c-3.819,0 -6.911,-3.096 -6.911,-6.914c0,-3.817 3.092,-6.913 6.911,-6.913l68.517,0c3.819,0 6.911,3.096 6.911,6.913c0,3.818 -3.092,6.914 -6.911,6.914Z" fill="#26bdff" fill-rule="nonzero"/><path d="M733.741,207.641l-52.402,0c-3.819,0 -6.911,-3.096 -6.911,-6.914c0,-3.816 3.092,-6.912 6.911,-6.912l52.402,0c3.82,0 6.911,3.096 6.911,6.912c0,3.818 -3.091,6.914 -6.911,6.914Z" fill="#26bdff" fill-rule="nonzero"/></g><g><path d="M583.835,1046.43l-102.607,0c-3.817,0 -6.913,-3.091 -6.913,-6.911c0,-3.82 3.096,-6.91 6.913,-6.91l102.607,0c3.817,0 6.913,3.09 6.913,6.91c0,3.82 -3.096,6.911 -6.913,6.911Z" fill="#ff4b88" fill-rule="nonzero"/><path d="M453.049,1018.48l-40.732,0c-3.817,0 -6.914,-3.09 -6.914,-6.91c0,-3.82 3.097,-6.91 6.914,-6.91l40.732,0c3.817,0 6.912,3.09 6.912,6.91c0,3.82 -3.095,6.91 -6.912,6.91Zm143.32,0l-97.278,0c-3.817,0 -6.913,-3.09 -6.913,-6.91c0,-3.82 3.096,-6.91 6.913,-6.91l97.278,0c3.816,0 6.912,3.09 6.912,6.91c0,3.82 -3.096,6.91 -6.912,6.91Z" fill="#ff4b88" fill-rule="nonzero"/><path d="M475.32,990.514l-88.375,0c-3.818,0 -6.913,-3.092 -6.913,-6.911c0,-3.819 3.095,-6.911 6.913,-6.911l88.375,0c3.816,0 6.912,3.092 6.912,6.911c0,3.819 -3.096,6.911 -6.912,6.911Zm122.068,0l-61.62,0c-3.816,0 -6.912,-3.092 -6.912,-6.911c0,-3.819 3.096,-6.911 6.912,-6.911l61.62,0c3.816,0 6.913,3.092 6.913,6.911c0,3.819 -3.097,6.911 -6.913,6.911Z" fill="#ff4b88" fill-rule="nonzero"/><path d="M510.37,962.561l-99.227,0c-3.817,0 -6.913,-3.092 -6.913,-6.912c0,-3.819 3.096,-6.911 6.913,-6.911l99.227,0c3.818,0 6.914,3.092 6.914,6.911c0,3.82 -3.096,6.912 -6.914,6.912Zm87.018,0l-15.85,0c-3.816,0 -6.913,-3.092 -6.913,-6.912c0,-3.819 3.097,-6.911 6.913,-6.911l15.85,0c3.816,0 6.913,3.092 6.913,6.911c0,3.82 -3.097,6.912 -6.913,6.912Z" fill="#ff4b88" fill-rule="nonzero"/><path d="M385.821,934.597l-63.869,0c-3.817,0 -6.912,-3.092 -6.912,-6.911c0,-3.82 3.095,-6.912 6.912,-6.912l63.869,0c3.817,0 6.914,3.092 6.914,6.912c0,3.819 -3.097,6.911 -6.914,6.911Zm211.567,0l-171.546,0c-3.818,0 -6.914,-3.092 -6.914,-6.911c0,-3.82 3.096,-6.912 6.914,-6.912l171.546,0c3.816,0 6.913,3.092 6.913,6.912c0,3.819 -3.097,6.911 -6.913,6.911Z" fill="#ff4b88" fill-rule="nonzero"/><path d="M395.593,906.633l-99.116,0c-3.817,0 -6.913,-3.092 -6.913,-6.908c0,-3.82 3.096,-6.912 6.913,-6.912l99.116,0c3.816,0 6.912,3.092 6.912,6.912c0,3.816 -3.096,6.908 -6.912,6.908Zm201.795,0l-114.889,0c-3.817,0 -6.913,-3.092 -6.913,-6.908c0,-3.82 3.096,-6.912 6.913,-6.912l114.889,0c3.816,0 6.913,3.092 6.913,6.912c0,3.816 -3.097,6.908 -6.913,6.908Z" fill="#ff4b88" fill-rule="nonzero"/><path d="M396.726,878.68l-114.426,0c-3.816,0 -6.912,-3.092 -6.912,-6.911c0,-3.82 3.096,-6.912 6.912,-6.912l114.426,0c3.816,0 6.913,3.092 6.913,6.912c0,3.819 -3.097,6.911 -6.913,6.911Zm200.662,0l-66.82,0c-3.818,0 -6.913,-3.092 -6.913,-6.911c0,-3.82 3.095,-6.912 6.913,-6.912l66.82,0c3.816,0 6.913,3.092 6.913,6.912c0,3.819 -3.097,6.911 -6.913,6.911Z" fill="#ff4b88" fill-rule="nonzero"/><path d="M379.521,850.716l-104.315,0c-3.817,0 -6.913,-3.092 -6.913,-6.908c0,-3.82 3.096,-6.912 6.913,-6.912l104.315,0c3.817,0 6.914,3.092 6.914,6.912c0,3.816 -3.097,6.908 -6.914,6.908Zm127.362,0l-79.451,0c-3.816,0 -6.912,-3.092 -6.912,-6.908c0,-3.82 3.096,-6.912 6.912,-6.912l79.451,0c3.817,0 6.913,3.092 6.913,6.912c0,3.816 -3.096,6.908 -6.913,6.908Zm90.505,0l-46.653,0c-3.817,0 -6.914,-3.092 -6.914,-6.908c0,-3.82 3.097,-6.912 6.914,-6.912l46.653,0c3.816,0 6.913,3.092 6.913,6.912c0,3.816 -3.097,6.908 -6.913,6.908Z" fill="#ff4b88" fill-rule="nonzero"/><path d="M370.56,822.756l-95.805,0c-3.817,0 -6.912,-3.096 -6.912,-6.912c0,-3.818 3.095,-6.914 6.912,-6.914l95.805,0c3.817,0 6.914,3.096 6.914,6.914c0,3.816 -3.097,6.912 -6.914,6.912Zm152.492,0l-116.354,0c-3.816,0 -6.913,-3.096 -6.913,-6.912c0,-3.818 3.097,-6.914 6.913,-6.914l116.354,0c3.818,0 6.914,3.096 6.914,6.914c0,3.816 -3.096,6.912 -6.914,6.912Zm74.336,0l-36.35,0c-3.816,0 -6.913,-3.096 -6.913,-6.912c0,-3.818 3.097,-6.914 6.913,-6.914l36.35,0c3.816,0 6.913,3.096 6.913,6.914c0,3.816 -3.097,6.912 -6.913,6.912Z" fill="#ff4b88" fill-rule="nonzero"/><path d="M441.241,794.797l-152.543,0c-3.817,0 -6.913,-3.096 -6.913,-6.912c0,-3.817 3.096,-6.914 6.913,-6.914l152.543,0c3.817,0 6.912,3.097 6.912,6.914c0,3.816 -3.095,6.912 -6.912,6.912Zm87.599,0l-51.797,0c-3.817,0 -6.912,-3.096 -6.912,-6.912c0,-3.817 3.095,-6.914 6.912,-6.914l51.797,0c3.817,0 6.913,3.097 6.913,6.914c0,3.816 -3.096,6.912 -6.913,6.912Zm68.548,0l-32.764,0c-3.818,0 -6.914,-3.096 -6.914,-6.912c0,-3.817 3.096,-6.914 6.914,-6.914l32.764,0c3.816,0 6.913,3.097 6.913,6.914c0,3.816 -3.097,6.912 -6.913,6.912Z" fill="#ff4b88" fill-rule="nonzero"/><path d="M418.508,766.837l-92.087,0c-3.817,0 -6.914,-3.097 -6.914,-6.914c0,-3.817 3.097,-6.912 6.914,-6.912l92.087,0c3.817,0 6.913,3.095 6.913,6.912c0,3.817 -3.096,6.914 -6.913,6.914Zm178.88,0l-130.793,0c-3.817,0 -6.913,-3.097 -6.913,-6.914c0,-3.817 3.096,-6.912 6.913,-6.912l130.793,0c3.816,0 6.913,3.095 6.913,6.912c0,3.817 -3.097,6.914 -6.913,6.914Z" fill="#ff4b88" fill-rule="nonzero"/><path d="M302.281,738.876l-57.154,0c-3.816,0 -6.912,-3.096 -6.912,-6.912c0,-3.818 3.096,-6.914 6.912,-6.914l57.154,0c3.817,0 6.913,3.096 6.913,6.914c0,3.816 -3.096,6.912 -6.913,6.912Zm295.107,0l-155.733,0c-3.817,0 -6.914,-3.096 -6.914,-6.912c0,-3.818 3.097,-6.914 6.914,-6.914l155.733,0c3.816,0 6.913,3.096 6.913,6.914c0,3.816 -3.097,6.912 -6.913,6.912Z" fill="#ff4b88" fill-rule="nonzero"/><path d="M381.563,710.917l-151.19,0c-3.817,0 -6.912,-3.096 -6.912,-6.912c0,-3.817 3.095,-6.913 6.912,-6.913l151.19,0c3.817,0 6.913,3.096 6.913,6.913c0,3.816 -3.096,6.912 -6.913,6.912Zm215.825,0l-174.981,0c-3.817,0 -6.912,-3.096 -6.912,-6.912c0,-3.817 3.095,-6.913 6.912,-6.913l174.981,0c3.816,0 6.913,3.096 6.913,6.913c0,3.816 -3.097,6.912 -6.913,6.912Z" fill="#ff4b88" fill-rule="nonzero"/><path d="M393.77,682.956l-173.524,0c-3.817,0 -6.914,-3.096 -6.914,-6.912c0,-3.817 3.097,-6.914 6.914,-6.914l173.524,0c3.816,0 6.912,3.097 6.912,6.914c0,3.816 -3.096,6.912 -6.912,6.912Zm203.618,0l-166.164,0c-3.818,0 -6.913,-3.096 -6.913,-6.912c0,-3.817 3.095,-6.914 6.913,-6.914l166.164,0c3.816,0 6.913,3.097 6.913,6.914c0,3.816 -3.097,6.912 -6.913,6.912Z" fill="#ff4b88" fill-rule="nonzero"/><path d="M397.252,654.996l-182.625,0c-3.816,0 -6.912,-3.096 -6.912,-6.914c0,-3.816 3.096,-6.912 6.912,-6.912l182.625,0c3.817,0 6.913,3.096 6.913,6.912c0,3.818 -3.096,6.914 -6.913,6.914Zm200.136,0l-163.603,0c-3.818,0 -6.913,-3.096 -6.913,-6.914c0,-3.816 3.095,-6.912 6.913,-6.912l163.603,0c3.816,0 6.913,3.096 6.913,6.912c0,3.818 -3.097,6.914 -6.913,6.914Z" fill="#ff4b88" fill-rule="nonzero"/><path d="M392.031,627.038l-178.356,0c-3.817,0 -6.914,-3.095 -6.914,-6.912c0,-3.816 3.097,-6.912 6.914,-6.912l178.356,0c3.817,0 6.912,3.096 6.912,6.912c0,3.817 -3.095,6.912 -6.912,6.912Zm205.357,0l-113.685,0c-3.817,0 -6.913,-3.095 -6.913,-6.912c0,-3.816 3.096,-6.912 6.913,-6.912l113.685,0c3.816,0 6.913,3.096 6.913,6.912c0,3.817 -3.097,6.912 -6.913,6.912Z" fill="#ff4b88" fill-rule="nonzero"/><path d="M391.367,599.079l-173.631,0c-3.817,0 -6.912,-3.096 -6.912,-6.914c0,-3.816 3.095,-6.912 6.912,-6.912l173.631,0c3.819,0 6.914,3.096 6.914,6.912c0,3.818 -3.095,6.914 -6.914,6.914Zm68.828,0l-41.201,0c-3.818,0 -6.914,-3.096 -6.914,-6.914c0,-3.816 3.096,-6.912 6.914,-6.912l41.201,0c3.817,0 6.912,3.096 6.912,6.912c0,3.818 -3.095,6.914 -6.912,6.914Zm137.193,0l-82.599,0c-3.816,0 -6.913,-3.096 -6.913,-6.914c0,-3.816 3.097,-6.912 6.913,-6.912l82.599,0c3.816,0 6.913,3.096 6.913,6.912c0,3.818 -3.097,6.914 -6.913,6.914Z" fill="#ff4b88" fill-rule="nonzero"/><path d="M490.595,571.117l-263.168,0c-3.818,0 -6.913,-3.096 -6.913,-6.912c0,-3.816 3.095,-6.913 6.913,-6.913l263.168,0c3.818,0 6.914,3.097 6.914,6.913c0,3.816 -3.096,6.912 -6.914,6.912Zm106.793,0l-62.743,0c-3.818,0 -6.914,-3.096 -6.914,-6.912c0,-3.816 3.096,-6.913 6.914,-6.913l62.743,0c3.816,0 6.913,3.097 6.913,6.913c0,3.816 -3.097,6.912 -6.913,6.912Z" fill="#ff4b88" fill-rule="nonzero"/><path d="M507.783,543.159l-264.186,0c-3.817,0 -6.913,-3.096 -6.913,-6.912c0,-3.817 3.096,-6.914 6.913,-6.914l264.186,0c3.818,0 6.912,3.097 6.912,6.914c0,3.816 -3.094,6.912 -6.912,6.912Zm89.605,0l-50.535,0c-3.817,0 -6.913,-3.096 -6.913,-6.912c0,-3.817 3.096,-6.914 6.913,-6.914l50.535,0c3.816,0 6.913,3.097 6.913,6.914c0,3.816 -3.097,6.912 -6.913,6.912Z" fill="#ff4b88" fill-rule="nonzero"/><path d="M516.359,515.199l-117.838,0c-3.816,0 -6.913,-3.097 -6.913,-6.913c0,-3.817 3.097,-6.913 6.913,-6.913l117.838,0c3.817,0 6.912,3.096 6.912,6.913c0,3.816 -3.095,6.913 -6.912,6.913Zm81.029,0l-44.115,0c-3.816,0 -6.912,-3.097 -6.912,-6.913c0,-3.817 3.096,-6.913 6.912,-6.913l44.115,0c3.816,0 6.913,3.096 6.913,6.913c0,3.816 -3.097,6.913 -6.913,6.913Z" fill="#ff4b88" fill-rule="nonzero"/><path d="M422.468,487.24l-178.33,0c-3.816,0 -6.912,-3.096 -6.912,-6.913c0,-3.817 3.096,-6.912 6.912,-6.912l178.33,0c3.816,0 6.913,3.095 6.913,6.912c0,3.817 -3.097,6.913 -6.913,6.913Zm174.92,0l-124.673,0c-3.816,0 -6.913,-3.096 -6.913,-6.913c0,-3.817 3.097,-6.912 6.913,-6.912l124.673,0c3.816,0 6.913,3.095 6.913,6.912c0,3.817 -3.097,6.913 -6.913,6.913Z" fill="#ff4b88" fill-rule="nonzero"/><path d="M401.323,459.279l-158.122,0c-3.817,0 -6.912,-3.096 -6.912,-6.914c0,-3.816 3.095,-6.912 6.912,-6.912l158.122,0c3.817,0 6.912,3.096 6.912,6.912c0,3.818 -3.095,6.914 -6.912,6.914Zm196.065,0l-151.402,0c-3.817,0 -6.912,-3.096 -6.912,-6.914c0,-3.816 3.095,-6.912 6.912,-6.912l151.402,0c3.816,0 6.913,3.096 6.913,6.912c0,3.818 -3.097,6.914 -6.913,6.914Z" fill="#ff4b88" fill-rule="nonzero"/><path d="M389.488,431.317l-143.697,0c-3.817,0 -6.914,-3.095 -6.914,-6.912c0,-3.816 3.097,-6.913 6.914,-6.913l143.697,0c3.818,0 6.913,3.097 6.913,6.913c0,3.817 -3.095,6.912 -6.913,6.912Zm207.9,0l-169.112,0c-3.816,0 -6.913,-3.095 -6.913,-6.912c0,-3.816 3.097,-6.913 6.913,-6.913l169.112,0c3.816,0 6.913,3.097 6.913,6.913c0,3.817 -3.097,6.912 -6.913,6.912Z" fill="#ff4b88" fill-rule="nonzero"/><path d="M382.739,403.359l-129.787,0c-3.816,0 -6.913,-3.095 -6.913,-6.912c0,-3.817 3.097,-6.913 6.913,-6.913l129.787,0c3.817,0 6.912,3.096 6.912,6.913c0,3.817 -3.095,6.912 -6.912,6.912Zm214.649,0l-155.431,0c-3.817,0 -6.913,-3.095 -6.913,-6.912c0,-3.817 3.096,-6.913 6.913,-6.913l155.431,0c3.816,0 6.913,3.096 6.913,6.913c0,3.817 -3.097,6.912 -6.913,6.912Z" fill="#ff4b88" fill-rule="nonzero"/><path d="M339.387,375.399l-72.965,0c-3.817,0 -6.912,-3.097 -6.912,-6.913c0,-3.817 3.095,-6.913 6.912,-6.913l72.965,0c3.816,0 6.913,3.096 6.913,6.913c0,3.816 -3.097,6.913 -6.913,6.913Zm258.001,0l-116.162,0c-3.817,0 -6.913,-3.097 -6.913,-6.913c0,-3.817 3.096,-6.913 6.913,-6.913l116.162,0c3.816,0 6.913,3.096 6.913,6.913c0,3.816 -3.097,6.913 -6.913,6.913Z" fill="#ff4b88" fill-rule="nonzero"/><path d="M318.823,347.44l-29.357,0c-3.817,0 -6.912,-3.096 -6.912,-6.913c0,-3.817 3.095,-6.912 6.912,-6.912l29.357,0c3.818,0 6.914,3.095 6.914,6.912c0,3.817 -3.096,6.913 -6.914,6.913Zm278.565,0l-234.466,0c-3.817,0 -6.913,-3.096 -6.913,-6.913c0,-3.817 3.096,-6.912 6.913,-6.912l234.466,0c3.816,0 6.913,3.095 6.913,6.912c0,3.817 -3.097,6.913 -6.913,6.913Z" fill="#ff4b88" fill-rule="nonzero"/><path d="M597.388,319.479l-252.476,0c-3.817,0 -6.912,-3.095 -6.912,-6.912c0,-3.818 3.095,-6.913 6.912,-6.913l252.476,0c3.816,0 6.913,3.095 6.913,6.913c0,3.817 -3.097,6.912 -6.913,6.912Z" fill="#ff4b88" fill-rule="nonzero"/><path d="M520.416,291.518l-172.385,0c-3.817,0 -6.912,-3.096 -6.912,-6.912c0,-3.816 3.095,-6.914 6.912,-6.914l172.385,0c3.816,0 6.914,3.098 6.914,6.914c0,3.816 -3.098,6.912 -6.914,6.912Zm76.972,0l-40.503,0c-3.817,0 -6.912,-3.096 -6.912,-6.912c0,-3.816 3.095,-6.914 6.912,-6.914l40.503,0c3.816,0 6.913,3.098 6.913,6.914c0,3.816 -3.097,6.912 -6.913,6.912Z" fill="#ff4b88" fill-rule="nonzero"/><path d="M510.93,263.56l-140.497,0c-3.817,0 -6.914,-3.096 -6.914,-6.913c0,-3.816 3.097,-6.913 6.914,-6.913l140.497,0c3.817,0 6.911,3.097 6.911,6.913c0,3.817 -3.094,6.913 -6.911,6.913Zm86.374,0l-45.874,0c-3.817,0 -6.914,-3.096 -6.914,-6.913c0,-3.816 3.097,-6.913 6.914,-6.913l45.874,0c3.816,0 6.912,3.097 6.912,6.913c0,3.817 -3.096,6.913 -6.912,6.913Z" fill="#ff4b88" fill-rule="nonzero"/><path d="M482.635,235.6l-68.511,0c-3.816,0 -6.912,-3.096 -6.912,-6.914c0,-3.817 3.096,-6.913 6.912,-6.913l68.511,0c3.817,0 6.913,3.096 6.913,6.913c0,3.818 -3.096,6.914 -6.913,6.914Zm106.987,0l-53.782,0c-3.818,0 -6.913,-3.096 -6.913,-6.914c0,-3.817 3.095,-6.913 6.913,-6.913l53.782,0c3.816,0 6.913,3.096 6.913,6.913c0,3.818 -3.097,6.914 -6.913,6.914Z" fill="#ff4b88" fill-rule="nonzero"/><path d="M558.682,207.641l-52.403,0c-3.816,0 -6.913,-3.096 -6.913,-6.914c0,-3.816 3.097,-6.912 6.913,-6.912l52.403,0c3.817,0 6.914,3.096 6.914,6.912c0,3.818 -3.097,6.914 -6.914,6.914Z" fill="#ff4b88" fill-rule="nonzero"/></g></g></svg>